<svg width="130" height="49" viewBox="0 0 130 49" fill="none" xmlns="http://www.w3.org/2000/svg">
<path d="M129.707 48.7389V19.9141C129.707 13.5465 125.24 8.38477 119.73 8.38477H9.97632C4.46643 8.38477 0 13.5465 0 19.9141V48.7389H129.707Z" fill="#DEEDF2"/>
<path d="M31.6719 19.1976H25.1745C23.9263 19.1976 22.915 18.2783 22.915 17.1442C22.915 16.0101 23.9266 15.0908 25.1745 15.0908H31.6719C32.9201 15.0908 33.9314 16.0101 33.9314 17.1442C33.9314 18.2783 32.9198 19.1976 31.6719 19.1976Z" fill="#DEEDF2"/>
<path d="M47.6348 19.1976H41.1374C39.8892 19.1976 38.8779 18.2783 38.8779 17.1442C38.8779 16.0101 39.8895 15.0908 41.1374 15.0908H47.6348C48.883 15.0908 49.8943 16.0101 49.8943 17.1442C49.8943 18.2783 48.883 19.1976 47.6348 19.1976Z" fill="#DEEDF2"/>
<path d="M89.0736 19.1976H82.5759C81.3277 19.1976 80.3164 18.2783 80.3164 17.1442C80.3164 16.0101 81.328 15.0908 82.5759 15.0908H89.0736C90.3217 15.0908 91.333 16.0101 91.333 17.1442C91.333 18.2783 90.3217 19.1976 89.0736 19.1976Z" fill="#DEEDF2"/>
<path d="M105.038 19.1976H98.5407C97.2925 19.1976 96.2812 18.2783 96.2812 17.1442C96.2812 16.0101 97.2928 15.0908 98.5407 15.0908H105.038C106.287 15.0908 107.298 16.0101 107.298 17.1442C107.298 18.2783 106.286 19.1976 105.038 19.1976Z" fill="#DEEDF2"/>
<path d="M41.4014 13.1799C41.4014 15.469 39.5478 17.3247 37.2612 17.3247C34.9747 17.3247 33.1211 15.469 33.1211 13.1799V4.88997C33.1209 2.60081 34.9745 0.745117 37.261 0.745117C39.5476 0.745117 41.4012 2.60081 41.4012 4.88997V13.1799H41.4014Z" fill="#EBF5FC"/>
<path d="M100.191 13.1799C100.191 15.469 98.1524 17.3247 95.6373 17.3247C93.1221 17.3247 91.083 15.469 91.083 13.1799V4.88997C91.083 2.60081 93.1219 0.745117 95.637 0.745117C98.1522 0.745117 100.191 2.60081 100.191 4.88997V13.1799H100.191Z" fill="#EBF5FC"/>
<path d="M95.3985 0.745117C94.4144 0.745117 93.5005 1.00236 92.7393 1.44223C94.0255 2.18559 94.8732 3.45178 94.8732 4.89012V13.1797C94.8732 14.6179 94.0255 15.8843 92.7393 16.6276C93.5002 17.0673 94.4144 17.3247 95.3985 17.3247C98.0456 17.3247 100.191 15.4691 100.191 13.1799V4.88992C100.192 2.60079 98.0458 0.745117 95.3985 0.745117V0.745117Z" fill="#C4C4C4"/>
<path d="M37.6738 0.745117C36.9084 0.745117 36.1975 1.00236 35.6055 1.44223C36.6059 2.18559 37.2652 3.45178 37.2652 4.89012V13.1797C37.2652 14.6179 36.6059 15.8843 35.6055 16.6276C36.1973 17.0673 36.9084 17.3247 37.6738 17.3247C39.7326 17.3247 41.4017 15.4691 41.4017 13.1799V4.88992C41.4018 2.60079 39.7328 0.745117 37.6738 0.745117V0.745117Z" fill="#C4C4C4"/>
<path d="M120.017 8.07227H113.085C118.598 8.07227 123.067 12.1336 123.067 17.1438V39.8239H129.999V17.144C129.999 12.1339 125.53 8.07227 120.017 8.07227Z" fill="#DEEDF2"/>
<path d="M0.220703 28.6973H130.001V32.8043H0.220703V28.6973Z" fill="#DEEDF2"/>
</svg>
