<svg width="18" height="18" viewBox="0 0 18 18" fill="none" xmlns="http://www.w3.org/2000/svg">
<path fill-rule="evenodd" clip-rule="evenodd" d="M4.13897 0.666504H13.8612V5.52762H12.4723V2.05539H5.52786V7.61095H4.13897V0.666504Z" fill="#064D69"/>
<path fill-rule="evenodd" clip-rule="evenodd" d="M6.91675 15.9443H11.0834V17.3332H6.91675V15.9443Z" fill="#064D69"/>
<path fill-rule="evenodd" clip-rule="evenodd" d="M0.666748 8.30539H8.30564V17.3332H0.666748V8.30539ZM2.05564 9.69428V15.9443H6.91675V9.69428H2.05564Z" fill="#064D69"/>
<path fill-rule="evenodd" clip-rule="evenodd" d="M9.69453 6.22206H17.3334V17.3332H9.69453V6.22206ZM11.0834 7.61095V15.9443H15.9445V7.61095H11.0834Z" fill="#064D69"/>
<path fill-rule="evenodd" clip-rule="evenodd" d="M12.4723 8.99984H14.5556V10.3887H12.4723V8.99984Z" fill="#064D69"/>
<path fill-rule="evenodd" clip-rule="evenodd" d="M12.4723 11.0832H14.5556V12.4721H12.4723V11.0832Z" fill="#064D69"/>
<path fill-rule="evenodd" clip-rule="evenodd" d="M12.4723 13.1665H14.5556V14.5554H12.4723V13.1665Z" fill="#064D69"/>
<path fill-rule="evenodd" clip-rule="evenodd" d="M3.44453 13.1665H5.52786V14.5554H3.44453V13.1665Z" fill="#064D69"/>
<path fill-rule="evenodd" clip-rule="evenodd" d="M3.44453 11.0832H5.52786V12.4721H3.44453V11.0832Z" fill="#064D69"/>
</svg>
