<svg width="354" height="224" viewBox="0 0 354 224" fill="none" xmlns="http://www.w3.org/2000/svg">
	<path d="M0.5 8C0.5 3.85786 3.85786 0.5 8 0.5H346C350.142 0.5 353.5 3.85787 353.5 8V223.5H0.5V8Z" fill="white" stroke="#E8E8E8"/>
	<path d="M89.5 114.5H264.5V184C264.5 188.142 261.142 191.5 257 191.5H97C92.8579 191.5 89.5 188.142 89.5 184V114.5Z" fill="#FAFAFA" stroke="#E8E8E8"/>
	<path d="M265 118V85.8567C265 78.756 258.939 73 251.463 73H102.537C95.0605 73 89 78.756 89 85.8567V118H265Z" fill="#DEEDF2"/>
	<path d="M139.569 84.724H132.272C130.87 84.724 129.734 83.6916 129.734 82.4179C129.734 81.1443 130.87 80.1118 132.272 80.1118H139.569C140.971 80.1118 142.107 81.1443 142.107 82.4179C142.107 83.6916 140.97 84.724 139.569 84.724Z" fill="#DEEDF2"/>
	<path d="M157.496 84.7235H150.199C148.797 84.7235 147.662 83.6911 147.662 82.4174C147.662 81.1438 148.798 80.1113 150.199 80.1113H157.496C158.898 80.1113 160.034 81.1438 160.034 82.4174C160.034 83.6911 158.898 84.7235 157.496 84.7235Z" fill="#DEEDF2"/>
	<path d="M204.036 84.7235H196.739C195.337 84.7235 194.201 83.6911 194.201 82.4174C194.201 81.1438 195.337 80.1113 196.739 80.1113H204.036C205.438 80.1113 206.574 81.1438 206.574 82.4174C206.574 83.6911 205.438 84.7235 204.036 84.7235Z" fill="#DEEDF2"/>
	<path d="M221.963 84.7235H214.666C213.264 84.7235 212.128 83.6911 212.128 82.4174C212.128 81.1438 213.265 80.1113 214.666 80.1113H221.963C223.365 80.1113 224.501 81.1438 224.501 82.4174C224.501 83.6911 223.365 84.7235 221.963 84.7235Z" fill="#DEEDF2"/>
	<path d="M150.497 77.9651C150.497 80.536 148.415 82.6201 145.847 82.6201C143.279 82.6201 141.197 80.536 141.197 77.9651V68.655C141.197 66.0841 143.279 64 145.847 64C148.415 64 150.496 66.0841 150.496 68.655V77.9651H150.497Z" fill="#EBF5FC"/>
	<path d="M216.521 77.9651C216.521 80.536 214.231 82.6201 211.406 82.6201C208.582 82.6201 206.292 80.536 206.292 77.9651V68.655C206.292 66.0841 208.581 64 211.406 64C214.231 64 216.521 66.0841 216.521 68.655V77.9651H216.521Z" fill="#EBF5FC"/>
	<path d="M211.138 64C210.033 64 209.007 64.2889 208.152 64.7829C209.596 65.6178 210.548 67.0398 210.548 68.6551V77.965C210.548 79.5801 209.596 81.0023 208.152 81.8372C209.006 82.331 210.033 82.6201 211.138 82.6201C214.111 82.6201 216.521 80.536 216.521 77.9652V68.6549C216.521 66.0841 214.112 64 211.138 64V64Z" fill="#C4C4C4"/>
	<path d="M146.31 64C145.451 64 144.652 64.2889 143.987 64.7829C145.111 65.6178 145.851 67.0398 145.851 68.6551V77.965C145.851 79.5801 145.111 81.0023 143.987 81.8372C144.652 82.331 145.451 82.6201 146.31 82.6201C148.622 82.6201 150.497 80.536 150.497 77.9652V68.6549C150.497 66.0841 148.623 64 146.31 64V64Z" fill="#C4C4C4"/>
	<path d="M104.248 95.3926H250V100.005H104.248V95.3926Z" fill="#DEEDF2"/>
	<path d="M139.779 103.12H144.297V104.5H138.049V94.5474H139.779V103.12ZM147.23 104.5H145.569V97.104H147.23V104.5ZM145.466 95.1831C145.466 94.9279 145.546 94.716 145.706 94.5474C145.87 94.3787 146.102 94.2944 146.403 94.2944C146.704 94.2944 146.936 94.3787 147.1 94.5474C147.264 94.716 147.346 94.9279 147.346 95.1831C147.346 95.4338 147.264 95.6434 147.1 95.812C146.936 95.9761 146.704 96.0581 146.403 96.0581C146.102 96.0581 145.87 95.9761 145.706 95.812C145.546 95.6434 145.466 95.4338 145.466 95.1831ZM145.432 106.08C145.432 105.838 145.512 105.635 145.671 105.471C145.835 105.312 146.068 105.232 146.369 105.232C146.669 105.232 146.902 105.312 147.066 105.471C147.23 105.635 147.312 105.838 147.312 106.08C147.312 106.321 147.23 106.522 147.066 106.681C146.902 106.841 146.669 106.92 146.369 106.92C146.068 106.92 145.835 106.841 145.671 106.681C145.512 106.522 145.432 106.321 145.432 106.08ZM152.083 103.311C152.498 103.311 152.842 103.19 153.116 102.949C153.389 102.707 153.535 102.409 153.553 102.053H155.119C155.1 102.514 154.957 102.944 154.688 103.345C154.419 103.742 154.054 104.056 153.594 104.289C153.134 104.521 152.637 104.637 152.104 104.637C151.069 104.637 150.249 104.302 149.643 103.632C149.037 102.962 148.734 102.037 148.734 100.857V100.686C148.734 99.5604 149.035 98.6603 149.636 97.9858C150.238 97.3068 151.058 96.9673 152.097 96.9673C152.977 96.9673 153.692 97.2248 154.244 97.7397C154.8 98.2502 155.091 98.9224 155.119 99.7563H153.553C153.535 99.3325 153.389 98.9839 153.116 98.7104C152.847 98.437 152.503 98.3003 152.083 98.3003C151.546 98.3003 151.131 98.4963 150.839 98.8882C150.548 99.2756 150.4 99.8657 150.395 100.659V100.925C150.395 101.727 150.539 102.327 150.826 102.723C151.117 103.115 151.537 103.311 152.083 103.311ZM158.01 97.9106C158.553 97.2817 159.238 96.9673 160.068 96.9673C161.645 96.9673 162.444 97.8674 162.467 99.6675V104.5H160.806V99.729C160.806 99.2186 160.694 98.8586 160.471 98.6489C160.252 98.4347 159.929 98.3276 159.5 98.3276C158.835 98.3276 158.338 98.6239 158.01 99.2163V104.5H156.349V94.0005H158.01V97.9106ZM169.201 97.104L169.248 97.8765C169.768 97.2703 170.479 96.9673 171.381 96.9673C172.37 96.9673 173.047 97.3455 173.412 98.1021C173.949 97.3455 174.706 96.9673 175.681 96.9673C176.497 96.9673 177.103 97.1929 177.499 97.644C177.9 98.0952 178.106 98.7606 178.115 99.6401V104.5H176.454V99.688C176.454 99.2186 176.351 98.8745 176.146 98.6558C175.941 98.437 175.601 98.3276 175.127 98.3276C174.749 98.3276 174.439 98.4302 174.198 98.6353C173.961 98.8358 173.794 99.1001 173.699 99.4282L173.706 104.5H172.044V99.6333C172.022 98.7629 171.577 98.3276 170.711 98.3276C170.046 98.3276 169.574 98.5988 169.296 99.1411V104.5H167.635V97.104H169.201ZM179.509 100.734C179.509 100 179.65 99.3462 179.933 98.772C180.22 98.1932 180.623 97.7489 181.143 97.439C181.663 97.1245 182.26 96.9673 182.934 96.9673C183.959 96.9673 184.787 97.3068 185.415 97.9858C185.657 97.8993 185.832 97.7352 185.942 97.4937C186.051 97.2521 186.106 96.8716 186.106 96.3521H187.248C187.248 96.9627 187.147 97.4731 186.947 97.8833C186.746 98.2889 186.411 98.576 185.942 98.7446C186.229 99.3143 186.377 99.9591 186.386 100.679V100.877C186.386 101.607 186.245 102.258 185.962 102.833C185.684 103.407 185.281 103.851 184.752 104.166C184.228 104.48 183.627 104.637 182.948 104.637C181.913 104.637 181.081 104.293 180.453 103.605C179.824 102.917 179.509 101.987 179.509 100.816V100.734ZM181.164 100.877C181.164 101.639 181.321 102.236 181.635 102.668C181.95 103.097 182.387 103.311 182.948 103.311C183.508 103.311 183.943 103.092 184.253 102.655C184.568 102.217 184.725 101.577 184.725 100.734C184.725 99.9728 184.563 99.3781 184.24 98.9497C183.921 98.5168 183.485 98.3003 182.934 98.3003C182.392 98.3003 181.961 98.5168 181.642 98.9497C181.323 99.3781 181.164 100.021 181.164 100.877ZM182.332 95.8872L182.285 94.8892C182.617 94.8664 182.857 94.8231 183.002 94.7593C183.153 94.6955 183.228 94.5838 183.228 94.4243C183.228 94.0962 182.886 93.9321 182.203 93.9321L182.25 93.0913C183.021 93.0913 183.599 93.2098 183.987 93.4468C184.379 93.6838 184.575 94.0028 184.575 94.4038C184.575 94.6772 184.486 94.9028 184.308 95.0806C184.13 95.2583 183.877 95.37 183.549 95.4155V95.8872H182.332ZM193.468 95.3062V97.104H194.774V98.3345H193.468V102.463C193.468 102.746 193.523 102.951 193.632 103.079C193.746 103.202 193.947 103.263 194.234 103.263C194.425 103.263 194.619 103.24 194.815 103.195V104.48C194.437 104.585 194.072 104.637 193.721 104.637C192.445 104.637 191.807 103.933 191.807 102.525V98.3345H190.59V97.104H191.807V95.3062H193.468ZM197.686 97.9106C198.228 97.2817 198.914 96.9673 199.744 96.9673C201.32 96.9673 202.12 97.8674 202.143 99.6675V104.5H200.482V99.729C200.482 99.2186 200.37 98.8586 200.147 98.6489C199.928 98.4347 199.605 98.3276 199.176 98.3276C198.511 98.3276 198.014 98.6239 197.686 99.2163V104.5H196.025V94.0005H197.686V97.9106ZM208.248 104.5C208.175 104.359 208.111 104.129 208.056 103.81C207.527 104.361 206.88 104.637 206.115 104.637C205.372 104.637 204.766 104.425 204.296 104.001C203.827 103.578 203.592 103.054 203.592 102.429C203.592 101.641 203.884 101.037 204.467 100.618C205.055 100.194 205.894 99.9819 206.983 99.9819H208.001V99.4966C208.001 99.1138 207.894 98.8084 207.68 98.5806C207.466 98.3481 207.14 98.2319 206.703 98.2319C206.324 98.2319 206.014 98.3276 205.773 98.519C205.531 98.7059 205.411 98.9451 205.411 99.2368H203.749C203.749 98.8312 203.884 98.453 204.153 98.1021C204.422 97.7466 204.786 97.4686 205.247 97.2681C205.711 97.0675 206.229 96.9673 206.798 96.9673C207.664 96.9673 208.355 97.186 208.87 97.6235C209.385 98.0565 209.649 98.6672 209.663 99.4556V102.792C209.663 103.457 209.756 103.988 209.943 104.384V104.5H208.248ZM206.422 103.304C206.75 103.304 207.058 103.224 207.345 103.065C207.637 102.905 207.856 102.691 208.001 102.422V101.028H207.106C206.491 101.028 206.028 101.135 205.718 101.349C205.408 101.563 205.253 101.866 205.253 102.258C205.253 102.577 205.358 102.833 205.568 103.024C205.782 103.211 206.067 103.304 206.422 103.304ZM209.389 96.0786H207.933L206.846 95.1079L205.759 96.0786H204.31L206.299 94.3696H207.4L209.389 96.0786ZM204.823 94.9985H203.749L202.28 93.1733H203.79L204.823 94.9985ZM215.883 103.776C215.396 104.35 214.703 104.637 213.805 104.637C213.003 104.637 212.395 104.403 211.98 103.933C211.57 103.464 211.365 102.785 211.365 101.896V97.104H213.026V101.875C213.026 102.814 213.415 103.284 214.195 103.284C215.001 103.284 215.546 102.994 215.829 102.416V97.104H217.49V104.5H215.924L215.883 103.776Z" fill="#064D69"/>
	<path d="M56.7188 32.7734H52.2852V45H49.834V32.7734H45.4395V30.7812H56.7188V32.7734ZM60.7031 35.5859C61.4779 34.6875 62.4577 34.2383 63.6426 34.2383C65.8952 34.2383 67.0378 35.5241 67.0703 38.0957V45H64.6973V38.1836C64.6973 37.4544 64.5378 36.9401 64.2188 36.6406C63.9062 36.3346 63.444 36.1816 62.832 36.1816C61.8815 36.1816 61.1719 36.6048 60.7031 37.4512V45H58.3301V30H60.7031V35.5859ZM69.0332 39.6191C69.0332 38.571 69.235 37.6367 69.6387 36.8164C70.0488 35.9896 70.625 35.3548 71.3672 34.9121C72.1094 34.4629 72.9622 34.2383 73.9258 34.2383C75.3906 34.2383 76.5723 34.7233 77.4707 35.6934C77.8158 35.5697 78.0664 35.3353 78.2227 34.9902C78.3789 34.6452 78.457 34.1016 78.457 33.3594H80.0879C80.0879 34.2318 79.9447 34.9609 79.6582 35.5469C79.3717 36.1263 78.8932 36.5365 78.2227 36.7773C78.6328 37.5911 78.8444 38.5124 78.8574 39.541V39.8242C78.8574 40.8659 78.6556 41.7969 78.252 42.6172C77.8548 43.4375 77.2786 44.0723 76.5234 44.5215C75.7747 44.9707 74.9154 45.1953 73.9453 45.1953C72.4674 45.1953 71.2793 44.7038 70.3809 43.7207C69.4824 42.7376 69.0332 41.4095 69.0332 39.7363V39.6191ZM71.3965 39.8242C71.3965 40.9115 71.6211 41.7643 72.0703 42.3828C72.5195 42.9948 73.1445 43.3008 73.9453 43.3008C74.7461 43.3008 75.3678 42.9883 75.8105 42.3633C76.2598 41.7383 76.4844 40.8236 76.4844 39.6191C76.4844 38.5319 76.2533 37.6823 75.791 37.0703C75.3353 36.4518 74.7135 36.1426 73.9258 36.1426C73.151 36.1426 72.5358 36.4518 72.0801 37.0703C71.6243 37.6823 71.3965 38.6003 71.3965 39.8242ZM75.1562 32.959H73.1836L70.5469 30H73.252L75.1562 32.959ZM83.5449 45H81.1719V34.4336H83.5449V45ZM81.0254 31.6895C81.0254 31.3249 81.1393 31.0221 81.3672 30.7812C81.6016 30.5404 81.9336 30.4199 82.3633 30.4199C82.793 30.4199 83.125 30.5404 83.3594 30.7812C83.5938 31.0221 83.7109 31.3249 83.7109 31.6895C83.7109 32.0475 83.5938 32.347 83.3594 32.5879C83.125 32.8223 82.793 32.9395 82.3633 32.9395C81.9336 32.9395 81.6016 32.8223 81.3672 32.5879C81.1393 32.347 81.0254 32.0475 81.0254 31.6895ZM101.641 33.0469H99.9316V45H97.7832L97.666 43.9062C96.9564 44.7656 96.0091 45.1953 94.8242 45.1953C93.5872 45.1953 92.5846 44.6973 91.8164 43.7012C91.0547 42.7051 90.6738 41.3509 90.6738 39.6387C90.6738 38.0111 91.0514 36.7057 91.8066 35.7227C92.5618 34.7331 93.5742 34.2383 94.8438 34.2383C95.9635 34.2383 96.8685 34.6289 97.5586 35.4102V33.0469H95.1074V31.3867H97.5586V30H99.9316V31.3867H101.641V33.0469ZM93.0469 39.8438C93.0469 40.918 93.252 41.7578 93.6621 42.3633C94.0788 42.9622 94.668 43.2617 95.4297 43.2617C96.3997 43.2617 97.1094 42.8288 97.5586 41.9629V37.4512C97.1224 36.6048 96.4193 36.1816 95.4492 36.1816C94.681 36.1816 94.0885 36.4876 93.6719 37.0996C93.2552 37.7051 93.0469 38.6198 93.0469 39.8438ZM105.967 45H103.594V34.4336H105.967V45ZM103.447 31.6895C103.447 31.3249 103.561 31.0221 103.789 30.7812C104.023 30.5404 104.355 30.4199 104.785 30.4199C105.215 30.4199 105.547 30.5404 105.781 30.7812C106.016 31.0221 106.133 31.3249 106.133 31.6895C106.133 32.0475 106.016 32.347 105.781 32.5879C105.547 32.8223 105.215 32.9395 104.785 32.9395C104.355 32.9395 104.023 32.8223 103.789 32.5879C103.561 32.347 103.447 32.0475 103.447 31.6895ZM113.213 45.1953C111.709 45.1953 110.488 44.7233 109.551 43.7793C108.62 42.8288 108.154 41.5658 108.154 39.9902V39.6973C108.154 38.6426 108.356 37.7018 108.76 36.875C109.17 36.0417 109.743 35.3939 110.479 34.9316C111.214 34.4694 112.035 34.2383 112.939 34.2383C114.378 34.2383 115.488 34.6973 116.27 35.6152C117.057 36.5332 117.451 37.832 117.451 39.5117V40.4688H110.547C110.618 41.3411 110.908 42.0312 111.416 42.5391C111.93 43.0469 112.575 43.3008 113.35 43.3008C114.437 43.3008 115.322 42.8613 116.006 41.9824L117.285 43.2031C116.862 43.8346 116.296 44.3262 115.586 44.6777C114.883 45.0228 114.092 45.1953 113.213 45.1953ZM112.93 36.1426C112.279 36.1426 111.751 36.3704 111.348 36.8262C110.951 37.2819 110.697 37.9167 110.586 38.7305H115.107V38.5547C115.055 37.7604 114.844 37.1615 114.473 36.7578C114.102 36.3477 113.587 36.1426 112.93 36.1426ZM116.377 33.0762H114.492L112.744 31.4941L111.006 33.0762H109.121L111.836 30.6348H113.662L116.377 33.0762ZM115.469 31.7676L115.4 30.5469C115.811 30.5143 116.107 30.459 116.289 30.3809C116.471 30.3027 116.562 30.1693 116.562 29.9805C116.562 29.5768 116.143 29.375 115.303 29.375L115.371 28.3496C116.263 28.3496 116.937 28.4961 117.393 28.7891C117.848 29.0755 118.076 29.4629 118.076 29.9512C118.076 30.3092 117.956 30.5957 117.715 30.8105C117.48 31.0189 117.181 31.1458 116.816 31.1914L116.807 31.7676H115.469ZM121.533 34.4336L121.602 35.5371C122.344 34.6712 123.359 34.2383 124.648 34.2383C126.061 34.2383 127.028 34.7786 127.549 35.8594C128.317 34.7786 129.398 34.2383 130.791 34.2383C131.956 34.2383 132.822 34.5605 133.389 35.2051C133.962 35.8496 134.255 36.8001 134.268 38.0566V45H131.895V38.125C131.895 37.4544 131.748 36.9629 131.455 36.6504C131.162 36.3379 130.677 36.1816 130 36.1816C129.46 36.1816 129.017 36.3281 128.672 36.6211C128.333 36.9076 128.096 37.2852 127.959 37.7539L127.969 45H125.596V38.0469C125.563 36.8034 124.928 36.1816 123.691 36.1816C122.741 36.1816 122.067 36.569 121.67 37.3438V45H119.297V34.4336H121.533ZM143.916 34.4336L143.984 35.5371C144.727 34.6712 145.742 34.2383 147.031 34.2383C148.444 34.2383 149.411 34.7786 149.932 35.8594C150.7 34.7786 151.781 34.2383 153.174 34.2383C154.339 34.2383 155.205 34.5605 155.771 35.2051C156.344 35.8496 156.637 36.8001 156.65 38.0566V45H154.277V38.125C154.277 37.4544 154.131 36.9629 153.838 36.6504C153.545 36.3379 153.06 36.1816 152.383 36.1816C151.842 36.1816 151.4 36.3281 151.055 36.6211C150.716 36.9076 150.479 37.2852 150.342 37.7539L150.352 45H147.979V38.0469C147.946 36.8034 147.311 36.1816 146.074 36.1816C145.124 36.1816 144.45 36.569 144.053 37.3438V45H141.68V34.4336H143.916ZM158.643 39.6191C158.643 38.571 158.844 37.6367 159.248 36.8164C159.658 35.9896 160.234 35.3548 160.977 34.9121C161.719 34.4629 162.572 34.2383 163.535 34.2383C165 34.2383 166.182 34.7233 167.08 35.6934C167.425 35.5697 167.676 35.3353 167.832 34.9902C167.988 34.6452 168.066 34.1016 168.066 33.3594H169.697C169.697 34.2318 169.554 34.9609 169.268 35.5469C168.981 36.1263 168.503 36.5365 167.832 36.7773C168.242 37.5911 168.454 38.5124 168.467 39.541V39.8242C168.467 40.8659 168.265 41.7969 167.861 42.6172C167.464 43.4375 166.888 44.0723 166.133 44.5215C165.384 44.9707 164.525 45.1953 163.555 45.1953C162.077 45.1953 160.889 44.7038 159.99 43.7207C159.092 42.7376 158.643 41.4095 158.643 39.7363V39.6191ZM161.006 39.8242C161.006 40.9115 161.23 41.7643 161.68 42.3828C162.129 42.9948 162.754 43.3008 163.555 43.3008C164.355 43.3008 164.977 42.9883 165.42 42.3633C165.869 41.7383 166.094 40.8236 166.094 39.6191C166.094 38.5319 165.863 37.6823 165.4 37.0703C164.945 36.4518 164.323 36.1426 163.535 36.1426C162.76 36.1426 162.145 36.4518 161.689 37.0703C161.234 37.6823 161.006 38.6003 161.006 39.8242ZM162.676 32.6953L162.607 31.2695C163.083 31.237 163.424 31.1751 163.633 31.084C163.848 30.9928 163.955 30.8333 163.955 30.6055C163.955 30.1367 163.467 29.9023 162.49 29.9023L162.559 28.7012C163.659 28.7012 164.486 28.8704 165.039 29.209C165.599 29.5475 165.879 30.0033 165.879 30.5762C165.879 30.9668 165.752 31.2891 165.498 31.543C165.244 31.7969 164.883 31.9564 164.414 32.0215V32.6953H162.676ZM178.584 31.8652V34.4336H180.449V36.1914H178.584V42.0898C178.584 42.4935 178.662 42.7865 178.818 42.9688C178.981 43.1445 179.268 43.2324 179.678 43.2324C179.951 43.2324 180.228 43.1999 180.508 43.1348V44.9707C179.967 45.1204 179.447 45.1953 178.945 45.1953C177.122 45.1953 176.211 44.1895 176.211 42.1777V36.1914H174.473V34.4336H176.211V31.8652H178.584ZM184.609 35.5859C185.384 34.6875 186.364 34.2383 187.549 34.2383C189.801 34.2383 190.944 35.5241 190.977 38.0957V45H188.604V38.1836C188.604 37.4544 188.444 36.9401 188.125 36.6406C187.812 36.3346 187.35 36.1816 186.738 36.1816C185.788 36.1816 185.078 36.6048 184.609 37.4512V45H182.236V30H184.609V35.5859ZM199.697 45C199.593 44.7982 199.502 44.4694 199.424 44.0137C198.669 44.8014 197.744 45.1953 196.65 45.1953C195.589 45.1953 194.723 44.8926 194.053 44.2871C193.382 43.6816 193.047 42.9329 193.047 42.041C193.047 40.9147 193.464 40.0521 194.297 39.4531C195.137 38.8477 196.335 38.5449 197.891 38.5449H199.346V37.8516C199.346 37.3047 199.193 36.8685 198.887 36.543C198.581 36.2109 198.115 36.0449 197.49 36.0449C196.95 36.0449 196.507 36.1816 196.162 36.4551C195.817 36.722 195.645 37.0638 195.645 37.4805H193.271C193.271 36.901 193.464 36.3607 193.848 35.8594C194.232 35.3516 194.753 34.9544 195.41 34.668C196.074 34.3815 196.813 34.2383 197.627 34.2383C198.864 34.2383 199.85 34.5508 200.586 35.1758C201.322 35.7943 201.699 36.6667 201.719 37.793V42.5586C201.719 43.5091 201.852 44.2676 202.119 44.834V45H199.697ZM197.09 43.291C197.559 43.291 197.998 43.1771 198.408 42.9492C198.825 42.7214 199.137 42.4154 199.346 42.0312V40.0391H198.066C197.188 40.0391 196.527 40.1921 196.084 40.498C195.641 40.804 195.42 41.237 195.42 41.7969C195.42 42.2526 195.57 42.6172 195.869 42.8906C196.175 43.1576 196.582 43.291 197.09 43.291ZM201.328 32.9688H199.248L197.695 31.582L196.143 32.9688H194.072L196.914 30.5273H198.486L201.328 32.9688ZM194.805 31.4258H193.271L191.172 28.8184H193.33L194.805 31.4258ZM210.605 43.9648C209.909 44.7852 208.919 45.1953 207.637 45.1953C206.491 45.1953 205.622 44.86 205.029 44.1895C204.443 43.5189 204.15 42.5488 204.15 41.2793V34.4336H206.523V41.25C206.523 42.5911 207.08 43.2617 208.193 43.2617C209.346 43.2617 210.124 42.8483 210.527 42.0215V34.4336H212.9V45H210.664L210.605 43.9648ZM219.854 39.6289C219.854 37.9753 220.231 36.6634 220.986 35.6934C221.742 34.7233 222.764 34.2383 224.053 34.2383C225.231 34.2383 226.165 34.6517 226.855 35.4785L226.992 34.4336H229.102V49.0625H226.729V44.1016C226.038 44.8307 225.14 45.1953 224.033 45.1953C222.77 45.1953 221.758 44.7038 220.996 43.7207C220.234 42.7311 219.854 41.3672 219.854 39.6289ZM222.227 39.834C222.227 40.9147 222.438 41.7643 222.861 42.3828C223.291 42.9948 223.883 43.3008 224.639 43.3008C225.576 43.3008 226.273 42.9004 226.729 42.0996V37.2949C226.273 36.5267 225.583 36.1426 224.658 36.1426C223.903 36.1426 223.307 36.4453 222.871 37.0508C222.441 37.6562 222.227 38.584 222.227 39.834ZM238.066 43.9648C237.37 44.7852 236.38 45.1953 235.098 45.1953C233.952 45.1953 233.083 44.86 232.49 44.1895C231.904 43.5189 231.611 42.5488 231.611 41.2793V34.4336H233.984V41.25C233.984 42.5911 234.541 43.2617 235.654 43.2617C236.807 43.2617 237.585 42.8483 237.988 42.0215V34.4336H240.361V45H238.125L238.066 43.9648ZM249.092 45C248.988 44.7982 248.896 44.4694 248.818 44.0137C248.063 44.8014 247.139 45.1953 246.045 45.1953C244.984 45.1953 244.118 44.8926 243.447 44.2871C242.777 43.6816 242.441 42.9329 242.441 42.041C242.441 40.9147 242.858 40.0521 243.691 39.4531C244.531 38.8477 245.729 38.5449 247.285 38.5449H248.74V37.8516C248.74 37.3047 248.587 36.8685 248.281 36.543C247.975 36.2109 247.51 36.0449 246.885 36.0449C246.344 36.0449 245.902 36.1816 245.557 36.4551C245.212 36.722 245.039 37.0638 245.039 37.4805H242.666C242.666 36.901 242.858 36.3607 243.242 35.8594C243.626 35.3516 244.147 34.9544 244.805 34.668C245.469 34.3815 246.208 34.2383 247.021 34.2383C248.258 34.2383 249.245 34.5508 249.98 35.1758C250.716 35.7943 251.094 36.6667 251.113 37.793V42.5586C251.113 43.5091 251.247 44.2676 251.514 44.834V45H249.092ZM246.484 43.291C246.953 43.291 247.393 43.1771 247.803 42.9492C248.219 42.7214 248.532 42.4154 248.74 42.0312V40.0391H247.461C246.582 40.0391 245.921 40.1921 245.479 40.498C245.036 40.804 244.814 41.237 244.814 41.7969C244.814 42.2526 244.964 42.6172 245.264 42.8906C245.57 43.1576 245.977 43.291 246.484 43.291ZM260.811 34.4336L260.879 35.5371C261.621 34.6712 262.637 34.2383 263.926 34.2383C265.339 34.2383 266.305 34.7786 266.826 35.8594C267.594 34.7786 268.675 34.2383 270.068 34.2383C271.234 34.2383 272.1 34.5605 272.666 35.2051C273.239 35.8496 273.532 36.8001 273.545 38.0566V45H271.172V38.125C271.172 37.4544 271.025 36.9629 270.732 36.6504C270.439 36.3379 269.954 36.1816 269.277 36.1816C268.737 36.1816 268.294 36.3281 267.949 36.6211C267.611 36.9076 267.373 37.2852 267.236 37.7539L267.246 45H264.873V38.0469C264.84 36.8034 264.206 36.1816 262.969 36.1816C262.018 36.1816 261.344 36.569 260.947 37.3438V45H258.574V34.4336H260.811ZM282.295 45C282.191 44.7982 282.1 44.4694 282.021 44.0137C281.266 44.8014 280.342 45.1953 279.248 45.1953C278.187 45.1953 277.321 44.8926 276.65 44.2871C275.98 43.6816 275.645 42.9329 275.645 42.041C275.645 40.9147 276.061 40.0521 276.895 39.4531C277.734 38.8477 278.932 38.5449 280.488 38.5449H281.943V37.8516C281.943 37.3047 281.79 36.8685 281.484 36.543C281.178 36.2109 280.713 36.0449 280.088 36.0449C279.548 36.0449 279.105 36.1816 278.76 36.4551C278.415 36.722 278.242 37.0638 278.242 37.4805H275.869C275.869 36.901 276.061 36.3607 276.445 35.8594C276.829 35.3516 277.35 34.9544 278.008 34.668C278.672 34.3815 279.411 34.2383 280.225 34.2383C281.462 34.2383 282.448 34.5508 283.184 35.1758C283.919 35.7943 284.297 36.6667 284.316 37.793V42.5586C284.316 43.5091 284.45 44.2676 284.717 44.834V45H282.295ZM279.688 43.291C280.156 43.291 280.596 43.1771 281.006 42.9492C281.423 42.7214 281.735 42.4154 281.943 42.0312V40.0391H280.664C279.785 40.0391 279.124 40.1921 278.682 40.498C278.239 40.804 278.018 41.237 278.018 41.7969C278.018 42.2526 278.167 42.6172 278.467 42.8906C278.773 43.1576 279.18 43.291 279.688 43.291ZM278.164 47.2852C278.164 46.9401 278.278 46.6504 278.506 46.416C278.74 46.1882 279.072 46.0742 279.502 46.0742C279.932 46.0742 280.264 46.1882 280.498 46.416C280.732 46.6504 280.85 46.9401 280.85 47.2852C280.85 47.6302 280.732 47.9167 280.498 48.1445C280.264 48.3724 279.932 48.4863 279.502 48.4863C279.072 48.4863 278.74 48.3724 278.506 48.1445C278.278 47.9167 278.164 47.6302 278.164 47.2852ZM289.004 34.4336L289.072 35.6543C289.854 34.7103 290.879 34.2383 292.148 34.2383C294.349 34.2383 295.469 35.498 295.508 38.0176V45H293.135V38.1543C293.135 37.4837 292.988 36.9889 292.695 36.6699C292.409 36.3444 291.937 36.1816 291.279 36.1816C290.322 36.1816 289.609 36.6146 289.141 37.4805V45H286.768V34.4336H289.004ZM297.52 39.6387C297.52 37.998 297.904 36.6895 298.672 35.7129C299.447 34.7298 300.472 34.2383 301.748 34.2383C302.952 34.2383 303.9 34.6582 304.59 35.498L304.697 34.4336H306.836V44.6777C306.836 46.0645 306.403 47.1582 305.537 47.959C304.678 48.7598 303.516 49.1602 302.051 49.1602C301.276 49.1602 300.518 48.9974 299.775 48.6719C299.04 48.3529 298.48 47.9329 298.096 47.4121L299.219 45.9863C299.948 46.8522 300.846 47.2852 301.914 47.2852C302.702 47.2852 303.324 47.0703 303.779 46.6406C304.235 46.2174 304.463 45.5924 304.463 44.7656V44.0527C303.779 44.8145 302.868 45.1953 301.729 45.1953C300.492 45.1953 299.479 44.7038 298.691 43.7207C297.91 42.7376 297.52 41.377 297.52 39.6387ZM299.883 39.8438C299.883 40.9049 300.098 41.7415 300.527 42.3535C300.964 42.959 301.566 43.2617 302.334 43.2617C303.291 43.2617 304.001 42.8516 304.463 42.0312V37.3828C304.014 36.582 303.311 36.1816 302.354 36.1816C301.572 36.1816 300.964 36.4909 300.527 37.1094C300.098 37.7279 299.883 38.6393 299.883 39.8438Z" fill="#064D69"/>
</svg>
