<svg width="16" height="16" viewBox="0 0 16 16" fill="none" xmlns="http://www.w3.org/2000/svg">
<path d="M9.21069 10.9958C9.18133 10.9668 9.14167 10.9505 9.10034 10.9505C9.05901 10.9505 9.01936 10.9668 8.98999 10.9958L6.72046 13.2654C5.66968 14.3162 3.89624 14.4275 2.73608 13.2654C1.57397 12.1033 1.6853 10.3318 2.73608 9.28101L5.00562 7.01147C5.06616 6.95093 5.06616 6.85132 5.00562 6.79077L4.22827 6.01343C4.1989 5.98435 4.15925 5.96804 4.11792 5.96804C4.07659 5.96804 4.03694 5.98435 4.00757 6.01343L1.73804 8.28296C0.0856933 9.9353 0.0856933 12.6091 1.73804 14.2595C3.39038 15.9099 6.06421 15.9119 7.7146 14.2595L9.98413 11.99C10.0447 11.9294 10.0447 11.8298 9.98413 11.7693L9.21069 10.9958ZM14.2615 1.73804C12.6091 0.0856933 9.9353 0.0856933 8.28491 1.73804L6.01343 4.00757C5.98435 4.03694 5.96804 4.07659 5.96804 4.11792C5.96804 4.15925 5.98435 4.1989 6.01343 4.22827L6.78882 5.00366C6.84937 5.06421 6.94897 5.06421 7.00952 5.00366L9.27905 2.73413C10.3298 1.68335 12.1033 1.57202 13.2634 2.73413C14.4255 3.89624 14.3142 5.66773 13.2634 6.71851L10.9939 8.98804C10.9648 9.0174 10.9485 9.05706 10.9485 9.09839C10.9485 9.13972 10.9648 9.17937 10.9939 9.20874L11.7712 9.98608C11.8318 10.0466 11.9314 10.0466 11.9919 9.98608L14.2615 7.71655C15.9119 6.06421 15.9119 3.39038 14.2615 1.73804ZM9.91577 5.27124C9.8864 5.24216 9.84675 5.22585 9.80542 5.22585C9.76409 5.22585 9.72443 5.24216 9.69507 5.27124L5.27124 9.69312C5.24216 9.72248 5.22585 9.76214 5.22585 9.80347C5.22585 9.84479 5.24216 9.88445 5.27124 9.91382L6.04468 10.6873C6.10522 10.7478 6.20483 10.7478 6.26538 10.6873L10.6873 6.26538C10.7478 6.20483 10.7478 6.10522 10.6873 6.04468L9.91577 5.27124Z" fill="#595959"/>
</svg>
