<svg width="14" height="12" viewBox="0 0 14 12" fill="none" xmlns="http://www.w3.org/2000/svg">
<path fill-rule="evenodd" clip-rule="evenodd" d="M1.44436 6.00008V9.73341C1.44436 9.87486 1.50289 10.0105 1.60708 10.1105C1.71127 10.2106 1.85258 10.2667 1.99992 10.2667H11.9999C12.1473 10.2667 12.2886 10.2106 12.3928 10.1105C12.4969 10.0105 12.5555 9.87486 12.5555 9.73341V6.00008H13.6666V9.73341C13.6666 10.1578 13.491 10.5647 13.1784 10.8648C12.8659 11.1648 12.4419 11.3334 11.9999 11.3334H1.99992C1.55789 11.3334 1.13397 11.1648 0.821407 10.8648C0.508847 10.5647 0.333252 10.1578 0.333252 9.73341V6.00008H1.44436Z" fill="#064D69"/>
<path fill-rule="evenodd" clip-rule="evenodd" d="M0.821407 1.13538C1.13397 0.835319 1.55789 0.666748 1.99992 0.666748H11.9999C12.4419 0.666748 12.8659 0.835319 13.1784 1.13538C13.491 1.43544 13.6666 1.8424 13.6666 2.26675V4.18335L6.99992 7.67426L0.333252 4.18335V2.26675C0.333252 1.8424 0.508847 1.43544 0.821407 1.13538ZM1.99992 1.73341C1.85258 1.73341 1.71127 1.7896 1.60708 1.88962C1.50289 1.98964 1.44436 2.1253 1.44436 2.26675V3.55014L6.99992 6.45923L12.5555 3.55014V2.26675C12.5555 2.1253 12.4969 1.98964 12.3928 1.88962C12.2886 1.7896 12.1473 1.73341 11.9999 1.73341H1.99992Z" fill="#064D69"/>
</svg>
