<svg width="16" height="18" viewBox="0 0 16 18" fill="none" xmlns="http://www.w3.org/2000/svg">
<path fill-rule="evenodd" clip-rule="evenodd" d="M3.90909 13.1665H15.5V14.9026C15.5 16.2452 14.4318 17.3332 13.1136 17.3332H2.88648C2.8864 17.3332 2.88636 17.3332 2.88636 16.6387L2.88648 17.3332L2.81891 15.9556C2.81808 15.9478 2.81801 15.9478 2.81795 15.9478L2.81645 15.9479L2.81496 15.9481L2.81368 15.9482C2.81357 15.9483 2.81525 15.9481 2.81795 15.9478C2.82336 15.9471 2.83377 15.9455 2.84907 15.943C2.87987 15.9378 2.92795 15.9286 2.98733 15.9135C3.10888 15.8825 3.26292 15.8306 3.41006 15.7481C3.68664 15.5932 3.90909 15.36 3.90909 14.9026V13.1665ZM5.04864 15.9443H13.1136C13.6787 15.9443 14.1364 15.4781 14.1364 14.9026V14.5554H5.27273V14.9026C5.27273 15.3116 5.18648 15.6561 5.04864 15.9443Z" fill="#595959"/>
<path fill-rule="evenodd" clip-rule="evenodd" d="M0.5 0.666504H13.4545V12.4721H12.0909V2.05539H1.86364V14.9026C1.86364 15.4781 2.32133 15.9443 2.88636 15.9443H4.59091V17.3332H2.88648C1.56833 17.3332 0.5 16.2452 0.5 14.9026V0.666504Z" fill="#595959"/>
<path fill-rule="evenodd" clip-rule="evenodd" d="M3.90909 4.13873H10.0455V5.52762H3.90909V4.13873Z" fill="#595959"/>
<path fill-rule="evenodd" clip-rule="evenodd" d="M3.90909 6.9165H10.0455V8.30539H3.90909V6.9165Z" fill="#595959"/>
<path fill-rule="evenodd" clip-rule="evenodd" d="M3.90909 9.69428H10.0455V11.0832H3.90909V9.69428Z" fill="#595959"/>
</svg>
