<svg width="354" height="147" viewBox="0 0 354 147" fill="none" xmlns="http://www.w3.org/2000/svg">
	<path d="M0.5 8C0.5 3.85787 3.85786 0.5 8 0.5H346C350.142 0.5 353.5 3.85786 353.5 8V139C353.5 143.142 350.142 146.5 346 146.5H8C3.85786 146.5 0.5 143.142 0.5 139V8Z" fill="white" stroke="#E8E8E8"/>
	<path d="M52.0322 23.127H48.833V32H47.5273V23.127H44.335V22.0469H52.0322V23.127ZM54.5752 25.499C55.1357 24.8109 55.8649 24.4668 56.7627 24.4668C58.3258 24.4668 59.1143 25.3486 59.1279 27.1123V32H57.8633V27.1055C57.8587 26.5723 57.7357 26.1781 57.4941 25.9229C57.2572 25.6676 56.8857 25.54 56.3799 25.54C55.9697 25.54 55.6097 25.6494 55.2998 25.8682C54.9899 26.0869 54.7484 26.374 54.5752 26.7295V32H53.3105V21.5H54.5752V25.499ZM60.6865 28.2334C60.6865 27.5088 60.8255 26.8594 61.1035 26.2852C61.3861 25.7064 61.7826 25.2598 62.293 24.9453C62.8079 24.6263 63.3913 24.4668 64.043 24.4668C64.9863 24.4668 65.7679 24.7812 66.3877 25.4102C66.7113 25.3737 66.946 25.2415 67.0918 25.0137C67.2376 24.7858 67.3105 24.3802 67.3105 23.7969H68.3359C68.3359 25.123 67.8643 25.9023 66.9209 26.1348C67.2536 26.7637 67.4199 27.4632 67.4199 28.2334V28.3838C67.4199 29.1038 67.2786 29.7533 66.9961 30.332C66.7135 30.9108 66.3171 31.3574 65.8066 31.6719C65.2962 31.9818 64.7129 32.1367 64.0566 32.1367C63.0449 32.1367 62.2292 31.7881 61.6094 31.0908C60.9941 30.389 60.6865 29.4661 60.6865 28.3223V28.2334ZM61.9512 28.3838C61.9512 29.2041 62.1403 29.8626 62.5186 30.3594C62.9014 30.8561 63.4141 31.1045 64.0566 31.1045C64.6901 31.1045 65.196 30.8561 65.5742 30.3594C65.957 29.8581 66.1484 29.1859 66.1484 28.3428V28.2334C66.1484 27.4085 65.9548 26.7477 65.5674 26.251C65.1846 25.7542 64.6764 25.5059 64.043 25.5059C63.4141 25.5059 62.9082 25.7542 62.5254 26.251C62.1426 26.7477 61.9512 27.4587 61.9512 28.3838ZM64.7676 23.5098H63.6807L61.917 21.5H63.4414L64.7676 23.5098ZM70.3936 32H69.1289V24.6035H70.3936V32ZM69.0264 22.6416C69.0264 22.4365 69.0879 22.2633 69.2109 22.1221C69.3385 21.9808 69.5254 21.9102 69.7715 21.9102C70.0176 21.9102 70.2044 21.9808 70.332 22.1221C70.4596 22.2633 70.5234 22.4365 70.5234 22.6416C70.5234 22.8467 70.4596 23.0176 70.332 23.1543C70.2044 23.291 70.0176 23.3594 69.7715 23.3594C69.5254 23.3594 69.3385 23.291 69.2109 23.1543C69.0879 23.0176 69.0264 22.8467 69.0264 22.6416ZM83.1152 23.5713H81.8301V32H80.668L80.6064 31.207C80.1006 31.8268 79.3965 32.1367 78.4941 32.1367C77.6374 32.1367 76.9378 31.7858 76.3955 31.084C75.8577 30.3822 75.5889 29.4661 75.5889 28.3359V28.2402C75.5889 27.1055 75.8577 26.194 76.3955 25.5059C76.9333 24.8132 77.6374 24.4668 78.5078 24.4668C79.3737 24.4668 80.0596 24.763 80.5654 25.3555V23.5713H78.7607V22.5391H80.5654V21.5H81.8301V22.5391H83.1152V23.5713ZM76.8535 28.3838C76.8535 29.2223 77.0267 29.8786 77.373 30.3525C77.7194 30.8265 78.1979 31.0635 78.8086 31.0635C79.6107 31.0635 80.1963 30.7035 80.5654 29.9834V26.5859C80.1872 25.8887 79.6061 25.54 78.8223 25.54C78.2025 25.54 77.7194 25.7793 77.373 26.2578C77.0267 26.7363 76.8535 27.445 76.8535 28.3838ZM85.6377 32H84.373V24.6035H85.6377V32ZM84.2705 22.6416C84.2705 22.4365 84.332 22.2633 84.4551 22.1221C84.5827 21.9808 84.7695 21.9102 85.0156 21.9102C85.2617 21.9102 85.4486 21.9808 85.5762 22.1221C85.7038 22.2633 85.7676 22.4365 85.7676 22.6416C85.7676 22.8467 85.7038 23.0176 85.5762 23.1543C85.4486 23.291 85.2617 23.3594 85.0156 23.3594C84.7695 23.3594 84.5827 23.291 84.4551 23.1543C84.332 23.0176 84.2705 22.8467 84.2705 22.6416ZM90.7373 32.1367C89.7347 32.1367 88.9189 31.8086 88.29 31.1523C87.6611 30.4915 87.3467 29.6097 87.3467 28.5068V28.2744C87.3467 27.5407 87.4857 26.8867 87.7637 26.3125C88.0462 25.7337 88.4382 25.2826 88.9395 24.959C89.4453 24.6309 89.9922 24.4668 90.5801 24.4668C91.5417 24.4668 92.2891 24.7835 92.8223 25.417C93.3555 26.0505 93.6221 26.9574 93.6221 28.1377V28.6641H88.6113C88.6296 29.3932 88.8415 29.9834 89.2471 30.4346C89.6572 30.8812 90.1768 31.1045 90.8057 31.1045C91.2523 31.1045 91.6305 31.0133 91.9404 30.8311C92.2503 30.6488 92.5215 30.4072 92.7539 30.1064L93.5264 30.708C92.9066 31.6605 91.9769 32.1367 90.7373 32.1367ZM90.5801 25.5059C90.0697 25.5059 89.6413 25.6927 89.2949 26.0664C88.9486 26.4355 88.7344 26.9551 88.6523 27.625H92.3574V27.5293C92.321 26.8867 92.1478 26.39 91.8379 26.0391C91.528 25.6836 91.1087 25.5059 90.5801 25.5059ZM93.0752 23.6191H91.9131L90.5664 22.3477L89.2197 23.6191H88.0645L89.9238 21.8281H91.209L93.0752 23.6191ZM92.5078 22.6758L92.501 21.7803C92.7972 21.762 93.0114 21.7233 93.1436 21.6641C93.2803 21.6048 93.3486 21.5 93.3486 21.3496C93.3486 21.0443 93.0273 20.8916 92.3848 20.8916L92.4189 20.2627C93.0023 20.2627 93.4466 20.363 93.752 20.5635C94.0573 20.764 94.21 21.0306 94.21 21.3633C94.21 21.6322 94.1257 21.8418 93.957 21.9922C93.7884 22.1426 93.5674 22.2337 93.2939 22.2656L93.2871 22.6758H92.5078ZM96.2812 24.6035L96.3154 25.4238C96.8577 24.7858 97.5892 24.4668 98.5098 24.4668C99.5443 24.4668 100.248 24.8633 100.622 25.6562C100.868 25.3008 101.187 25.0137 101.579 24.7949C101.976 24.5762 102.443 24.4668 102.98 24.4668C104.603 24.4668 105.428 25.3258 105.455 27.0439V32H104.19V27.1191C104.19 26.5905 104.07 26.1963 103.828 25.9365C103.587 25.6722 103.181 25.54 102.611 25.54C102.142 25.54 101.752 25.6813 101.442 25.9639C101.132 26.2419 100.952 26.6178 100.902 27.0918V32H99.6309V27.1533C99.6309 26.0778 99.1045 25.54 98.0518 25.54C97.2223 25.54 96.6549 25.8932 96.3496 26.5996V32H95.085V24.6035H96.2812ZM118.061 23.5713H116.775V32H115.613L115.552 31.207C115.046 31.8268 114.342 32.1367 113.439 32.1367C112.583 32.1367 111.883 31.7858 111.341 31.084C110.803 30.3822 110.534 29.4661 110.534 28.3359V28.2402C110.534 27.1055 110.803 26.194 111.341 25.5059C111.879 24.8132 112.583 24.4668 113.453 24.4668C114.319 24.4668 115.005 24.763 115.511 25.3555V23.5713H113.706V22.5391H115.511V21.5H116.775V22.5391H118.061V23.5713ZM111.799 28.3838C111.799 29.2223 111.972 29.8786 112.318 30.3525C112.665 30.8265 113.143 31.0635 113.754 31.0635C114.556 31.0635 115.142 30.7035 115.511 29.9834V26.5859C115.132 25.8887 114.551 25.54 113.768 25.54C113.148 25.54 112.665 25.7793 112.318 26.2578C111.972 26.7363 111.799 27.445 111.799 28.3838ZM118.874 28.2334C118.874 27.5088 119.015 26.8571 119.298 26.2783C119.585 25.6995 119.981 25.2529 120.487 24.9385C120.998 24.624 121.579 24.4668 122.23 24.4668C123.238 24.4668 124.051 24.8154 124.671 25.5127C125.295 26.21 125.607 27.1374 125.607 28.2949V28.3838C125.607 29.1038 125.468 29.751 125.19 30.3252C124.917 30.8949 124.523 31.3392 124.008 31.6582C123.497 31.9772 122.91 32.1367 122.244 32.1367C121.242 32.1367 120.428 31.7881 119.804 31.0908C119.184 30.3936 118.874 29.4707 118.874 28.3223V28.2334ZM120.146 28.3838C120.146 29.2041 120.335 29.8626 120.713 30.3594C121.096 30.8561 121.606 31.1045 122.244 31.1045C122.887 31.1045 123.397 30.8538 123.775 30.3525C124.154 29.8467 124.343 29.1403 124.343 28.2334C124.343 27.4222 124.149 26.766 123.762 26.2646C123.379 25.7588 122.868 25.5059 122.23 25.5059C121.606 25.5059 121.103 25.7542 120.72 26.251C120.337 26.7477 120.146 27.4587 120.146 28.3838ZM122.805 21.5H124.336L122.504 23.5098H121.485L122.805 21.5ZM128.39 24.6035L128.431 25.5332C128.996 24.8223 129.734 24.4668 130.646 24.4668C132.209 24.4668 132.997 25.3486 133.011 27.1123V32H131.746V27.1055C131.742 26.5723 131.618 26.1781 131.377 25.9229C131.14 25.6676 130.769 25.54 130.263 25.54C129.853 25.54 129.493 25.6494 129.183 25.8682C128.873 26.0869 128.631 26.374 128.458 26.7295V32H127.193V24.6035H128.39ZM134.617 28.2402C134.617 27.0872 134.884 26.1712 135.417 25.4922C135.95 24.8086 136.657 24.4668 137.536 24.4668C138.438 24.4668 139.143 24.7858 139.648 25.4238L139.71 24.6035H140.865V31.8223C140.865 32.7793 140.58 33.5335 140.011 34.085C139.446 34.6364 138.685 34.9121 137.728 34.9121C137.194 34.9121 136.673 34.7982 136.162 34.5703C135.652 34.3424 135.262 34.0303 134.993 33.6338L135.649 32.875C136.192 33.5449 136.855 33.8799 137.639 33.8799C138.254 33.8799 138.732 33.7067 139.074 33.3604C139.421 33.014 139.594 32.5264 139.594 31.8975V31.2617C139.088 31.8451 138.397 32.1367 137.522 32.1367C136.657 32.1367 135.955 31.7881 135.417 31.0908C134.884 30.3936 134.617 29.4434 134.617 28.2402ZM135.889 28.3838C135.889 29.2178 136.06 29.874 136.401 30.3525C136.743 30.8265 137.222 31.0635 137.837 31.0635C138.634 31.0635 139.22 30.7012 139.594 29.9766V26.5996C139.206 25.8932 138.625 25.54 137.851 25.54C137.235 25.54 136.755 25.7793 136.408 26.2578C136.062 26.7363 135.889 27.445 135.889 28.3838ZM147.968 22.8125V24.6035H149.349V25.5811H147.968V30.168C147.968 30.4642 148.029 30.6875 148.152 30.8379C148.275 30.9837 148.485 31.0566 148.781 31.0566C148.927 31.0566 149.128 31.0293 149.383 30.9746V32C149.05 32.0911 148.727 32.1367 148.412 32.1367C147.847 32.1367 147.421 31.9658 147.134 31.624C146.847 31.2822 146.703 30.7969 146.703 30.168V25.5811H145.356V24.6035H146.703V22.8125H147.968ZM152.097 25.499C152.657 24.8109 153.386 24.4668 154.284 24.4668C155.847 24.4668 156.636 25.3486 156.649 27.1123V32H155.385V27.1055C155.38 26.5723 155.257 26.1781 155.016 25.9229C154.779 25.6676 154.407 25.54 153.901 25.54C153.491 25.54 153.131 25.6494 152.821 25.8682C152.511 26.0869 152.27 26.374 152.097 26.7295V32H150.832V21.5H152.097V25.499ZM163.109 32C163.036 31.8542 162.977 31.5944 162.932 31.2207C162.344 31.8314 161.642 32.1367 160.826 32.1367C160.097 32.1367 159.498 31.9316 159.028 31.5215C158.563 31.1068 158.331 30.5827 158.331 29.9492C158.331 29.179 158.623 28.582 159.206 28.1582C159.794 27.7298 160.619 27.5156 161.681 27.5156H162.911V26.9346C162.911 26.4925 162.779 26.1416 162.515 25.8818C162.25 25.6175 161.861 25.4854 161.346 25.4854C160.895 25.4854 160.516 25.5993 160.211 25.8271C159.906 26.055 159.753 26.3307 159.753 26.6543H158.481C158.481 26.2852 158.611 25.9297 158.871 25.5879C159.135 25.2415 159.491 24.9681 159.938 24.7676C160.389 24.5671 160.883 24.4668 161.421 24.4668C162.273 24.4668 162.941 24.681 163.424 25.1094C163.907 25.5332 164.158 26.1188 164.176 26.8662V30.2705C164.176 30.9495 164.262 31.4896 164.436 31.8906V32H163.109ZM161.011 31.0361C161.407 31.0361 161.783 30.9336 162.139 30.7285C162.494 30.5234 162.752 30.2568 162.911 29.9287V28.4111H161.92C160.37 28.4111 159.596 28.8646 159.596 29.7715C159.596 30.168 159.728 30.4779 159.992 30.7012C160.257 30.9245 160.596 31.0361 161.011 31.0361ZM164.053 23.5371H162.706L161.544 22.457L160.382 23.5371H159.042L161.024 21.7461H162.063L164.053 23.5371ZM159.541 22.3271H158.584L157.217 20.5635H158.577L159.541 22.3271ZM170.725 31.2686C170.232 31.8473 169.51 32.1367 168.558 32.1367C167.769 32.1367 167.168 31.9089 166.753 31.4531C166.343 30.9928 166.135 30.3138 166.131 29.416V24.6035H167.396V29.3818C167.396 30.5029 167.851 31.0635 168.763 31.0635C169.729 31.0635 170.371 30.7035 170.69 29.9834V24.6035H171.955V32H170.752L170.725 31.2686Z" fill="#595959"/>
	<g clip-path="url(#clip0)">
		<path d="M74.2211 105.833H48.6984C46.2316 105.833 44.2319 103.833 44.2319 101.367V96.8999H78.5115L74.2211 105.833Z" fill="#D3DCFB"/>
		<path d="M102.303 70.0999V88.8648V101.366H48.6984C46.2316 101.366 44.2319 99.3666 44.2319 96.8997V70.0999L75.5008 58.9331L102.303 70.0999Z" fill="#EBF5FC"/>
		<path d="M52.1199 79.0335H49.7471C49.1689 79.0335 48.7002 78.5648 48.7002 77.9866V75.6138C48.7002 75.0356 49.1689 74.5669 49.7471 74.5669H52.1199C52.6981 74.5669 53.1668 75.0356 53.1668 75.6138V77.9866C53.1668 78.5648 52.6981 79.0335 52.1199 79.0335Z" fill="#40A9FF"/>
		<path d="M61.0535 79.0335H58.6807C58.1025 79.0335 57.6338 78.5648 57.6338 77.9866V75.6138C57.6338 75.0356 58.1025 74.5669 58.6807 74.5669H61.0535C61.6317 74.5669 62.1004 75.0356 62.1004 75.6138V77.9866C62.1004 78.5648 61.6317 79.0335 61.0535 79.0335Z" fill="#40A9FF"/>
		<path d="M69.9866 79.0335H67.6138C67.0356 79.0335 66.5669 78.5648 66.5669 77.9866V75.6138C66.5669 75.0356 67.0356 74.5669 67.6138 74.5669H69.9866C70.5648 74.5669 71.0335 75.0356 71.0335 75.6138V77.9866C71.0335 78.5648 70.5649 79.0335 69.9866 79.0335Z" fill="#40A9FF"/>
		<path d="M78.9193 79.0335H76.5464C75.9682 79.0335 75.4995 78.5648 75.4995 77.9866V75.6138C75.4995 75.0356 75.9682 74.5669 76.5464 74.5669H78.9193C79.4974 74.5669 79.9661 75.0356 79.9661 75.6138V77.9866C79.9661 78.5648 79.4974 79.0335 78.9193 79.0335Z" fill="#40A9FF"/>
		<path d="M87.8519 79.0335H85.479C84.9009 79.0335 84.4321 78.5648 84.4321 77.9866V75.6138C84.4321 75.0356 84.9009 74.5669 85.479 74.5669H87.8519C88.43 74.5669 88.8988 75.0356 88.8988 75.6138V77.9866C88.8988 78.5648 88.4301 79.0335 87.8519 79.0335Z" fill="#40A9FF"/>
		<path d="M96.7855 79.0335H94.4126C93.8345 79.0335 93.3657 78.5648 93.3657 77.9866V75.6138C93.3657 75.0356 93.8345 74.5669 94.4126 74.5669H96.7855C97.3636 74.5669 97.8323 75.0356 97.8323 75.6138V77.9866C97.8323 78.5648 97.3636 79.0335 96.7855 79.0335Z" fill="#40A9FF"/>
		<path d="M52.1199 87.9666H49.7471C49.1689 87.9666 48.7002 87.4979 48.7002 86.9197V84.5469C48.7002 83.9687 49.1689 83.5 49.7471 83.5H52.1199C52.6981 83.5 53.1668 83.9687 53.1668 84.5469V86.9197C53.1668 87.498 52.6981 87.9666 52.1199 87.9666Z" fill="#40A9FF"/>
		<path d="M61.0535 87.9666H58.6807C58.1025 87.9666 57.6338 87.4979 57.6338 86.9197V84.5469C57.6338 83.9687 58.1025 83.5 58.6807 83.5H61.0535C61.6317 83.5 62.1004 83.9687 62.1004 84.5469V86.9197C62.1004 87.498 61.6317 87.9666 61.0535 87.9666Z" fill="#40A9FF"/>
		<path d="M69.9866 87.9666H67.6138C67.0356 87.9666 66.5669 87.4979 66.5669 86.9197V84.5469C66.5669 83.9687 67.0356 83.5 67.6138 83.5H69.9866C70.5648 83.5 71.0335 83.9687 71.0335 84.5469V86.9197C71.0335 87.498 70.5649 87.9666 69.9866 87.9666Z" fill="#40A9FF"/>
		<path d="M79.9661 87.9666V84.6166C79.9661 83.9999 79.4662 83.5 78.8495 83.5H76.6161C75.9994 83.5 75.4995 83.9999 75.4995 84.6166V86.85C75.4995 87.4667 75.9995 87.9666 76.6161 87.9666H79.9661Z" fill="#40A9FF"/>
		<path d="M52.1199 96.9002H49.7471C49.1689 96.9002 48.7002 96.4315 48.7002 95.8534V93.4805C48.7002 92.9023 49.1689 92.4336 49.7471 92.4336H52.1199C52.6981 92.4336 53.1668 92.9023 53.1668 93.4805V95.8534C53.1668 96.4315 52.6981 96.9002 52.1199 96.9002Z" fill="#40A9FF"/>
		<path d="M61.0535 96.9002H58.6807C58.1025 96.9002 57.6338 96.4315 57.6338 95.8534V93.4805C57.6338 92.9023 58.1025 92.4336 58.6807 92.4336H61.0535C61.6317 92.4336 62.1004 92.9023 62.1004 93.4805V95.8534C62.1004 96.4315 61.6317 96.9002 61.0535 96.9002Z" fill="#40A9FF"/>
		<path d="M69.9866 96.9002H67.6138C67.0356 96.9002 66.5669 96.4315 66.5669 95.8534V93.4805C66.5669 92.9023 67.0356 92.4336 67.6138 92.4336H69.9866C70.5648 92.4336 71.0335 92.9023 71.0335 93.4805V95.8534C71.0335 96.4315 70.5649 96.9002 69.9866 96.9002Z" fill="#40A9FF"/>
		<path d="M96.753 74.5669H94.4433C94.3036 74.5669 94.1705 74.5944 94.0479 74.6427C94.4476 74.8005 94.7308 75.1894 94.7308 75.6453V77.955C94.7308 78.4109 94.4475 78.7998 94.0479 78.9576C94.1705 79.006 94.3036 79.0335 94.4433 79.0335H96.753C97.3486 79.0335 97.8315 78.5506 97.8315 77.9551V75.6454C97.8314 75.0498 97.3485 74.5669 96.753 74.5669Z" fill="#69C0FF"/>
		<path d="M87.8199 74.5669H85.5102C85.3704 74.5669 85.2374 74.5944 85.1147 74.6427C85.5145 74.8005 85.7977 75.1894 85.7977 75.6453V77.955C85.7977 78.4109 85.5144 78.7998 85.1147 78.9576C85.2374 79.006 85.3704 79.0335 85.5102 79.0335H87.8199C88.4155 79.0335 88.8983 78.5506 88.8983 77.9551V75.6454C88.8983 75.0498 88.4155 74.5669 87.8199 74.5669Z" fill="#69C0FF"/>
		<path d="M78.8882 74.5669H76.5786C76.4388 74.5669 76.3057 74.5944 76.1831 74.6427C76.5829 74.8005 76.8662 75.1894 76.8662 75.6453V77.955C76.8662 78.4109 76.5829 78.7998 76.1831 78.9576C76.3057 79.006 76.4388 79.0335 76.5786 79.0335H78.8882C79.4839 79.0335 79.9668 78.5506 79.9668 77.9551V75.6454C79.9666 75.0498 79.4838 74.5669 78.8882 74.5669Z" fill="#69C0FF"/>
		<path d="M69.9551 74.5669H67.6455C67.5057 74.5669 67.3726 74.5944 67.25 74.6427C67.6498 74.8005 67.9331 75.1894 67.9331 75.6453V77.955C67.9331 78.4109 67.6498 78.7998 67.25 78.9576C67.3726 79.006 67.5057 79.0335 67.6455 79.0335H69.9551C70.5508 79.0335 71.0337 78.5506 71.0337 77.9551V75.6454C71.0335 75.0498 70.5508 74.5669 69.9551 74.5669Z" fill="#69C0FF"/>
		<path d="M61.0215 74.5669H58.7119C58.5721 74.5669 58.439 74.5944 58.3164 74.6427C58.7162 74.8005 58.9994 75.1894 58.9994 75.6453V77.955C58.9994 78.4109 58.7161 78.7998 58.3164 78.9576C58.439 79.006 58.5721 79.0335 58.7119 79.0335H61.0215C61.6172 79.0335 62.1001 78.5506 62.1001 77.9551V75.6454C62.1001 75.0498 61.6172 74.5669 61.0215 74.5669Z" fill="#69C0FF"/>
		<path d="M52.0884 74.5669H49.7788C49.639 74.5669 49.5059 74.5944 49.3833 74.6427C49.7831 74.8005 50.0664 75.1894 50.0664 75.6453V77.955C50.0664 78.4109 49.7831 78.7998 49.3833 78.9576C49.5059 79.006 49.639 79.0335 49.7788 79.0335H52.0884C52.6841 79.0335 53.167 78.5506 53.167 77.9551V75.6454C53.1668 75.0498 52.684 74.5669 52.0884 74.5669Z" fill="#69C0FF"/>
		<path d="M52.0884 83.5H49.7788C49.639 83.5 49.5059 83.5275 49.3833 83.5758C49.7831 83.7336 50.0664 84.1225 50.0664 84.5784V86.8882C50.0664 87.3441 49.7831 87.733 49.3833 87.8909C49.5059 87.9393 49.639 87.9668 49.7788 87.9668H52.0884C52.6841 87.9668 53.167 87.4839 53.167 86.8883V84.5785C53.1668 83.9829 52.684 83.5 52.0884 83.5Z" fill="#69C0FF"/>
		<path d="M52.0884 92.4331H49.7788C49.639 92.4331 49.5059 92.4606 49.3833 92.5089C49.7831 92.6667 50.0664 93.0556 50.0664 93.5115V95.8213C50.0664 96.2772 49.7831 96.6662 49.3833 96.824C49.5059 96.8724 49.639 96.8999 49.7788 96.8999H52.0884C52.6841 96.8999 53.167 96.417 53.167 95.8215V93.5117C53.1668 92.9158 52.684 92.4331 52.0884 92.4331Z" fill="#69C0FF"/>
		<path d="M61.0215 83.5H58.7119C58.5721 83.5 58.439 83.5275 58.3164 83.5758C58.7162 83.7336 58.9994 84.1225 58.9994 84.5784V86.8882C58.9994 87.3441 58.7161 87.733 58.3164 87.8909C58.439 87.9393 58.5721 87.9668 58.7119 87.9668H61.0215C61.6172 87.9668 62.1001 87.4839 62.1001 86.8883V84.5785C62.1001 83.9829 61.6172 83.5 61.0215 83.5Z" fill="#69C0FF"/>
		<path d="M61.0215 92.4331H58.7119C58.5721 92.4331 58.439 92.4606 58.3164 92.5089C58.7162 92.6667 58.9994 93.0556 58.9994 93.5115V95.8213C58.9994 96.2772 58.7161 96.6662 58.3164 96.824C58.439 96.8724 58.5721 96.8999 58.7119 96.8999H61.0215C61.6172 96.8999 62.1001 96.417 62.1001 95.8215V93.5117C62.1001 92.9158 61.6172 92.4331 61.0215 92.4331Z" fill="#69C0FF"/>
		<path d="M69.9551 83.5H67.6455C67.5057 83.5 67.3726 83.5275 67.25 83.5758C67.6498 83.7336 67.9331 84.1225 67.9331 84.5784V86.8882C67.9331 87.3441 67.6498 87.733 67.25 87.8909C67.3726 87.9393 67.5057 87.9668 67.6455 87.9668H69.9551C70.5508 87.9668 71.0337 87.4839 71.0337 86.8883V84.5785C71.0335 83.9829 70.5508 83.5 69.9551 83.5Z" fill="#69C0FF"/>
		<path d="M79.9673 87.9666V84.5784C79.9673 83.9827 79.4844 83.5 78.8887 83.5H76.5791C76.4393 83.5 76.3062 83.5275 76.1836 83.5758C76.5834 83.7336 76.8667 84.1225 76.8667 84.5784V86.8882C76.8667 87.3441 76.5834 87.733 76.1836 87.8909C76.3062 87.9393 76.4393 87.9668 76.5791 87.9668H79.9673V87.9666Z" fill="#69C0FF"/>
		<path d="M69.9551 92.4331H67.6455C67.5057 92.4331 67.3726 92.4606 67.25 92.5089C67.6498 92.6667 67.9331 93.0556 67.9331 93.5115V95.8213C67.9331 96.2772 67.6498 96.6662 67.25 96.824C67.3726 96.8724 67.5057 96.8999 67.6455 96.8999H69.9551C70.5508 96.8999 71.0337 96.417 71.0337 95.8215V93.5117C71.0335 92.9158 70.5508 92.4331 69.9551 92.4331Z" fill="#69C0FF"/>
		<path d="M99.2002 68.8071V88.8649V101.367H102.303V88.8649V70.0999L99.2002 68.8071Z" fill="#D3DCFB"/>
		<path d="M102.303 70.1V58.9333C102.303 56.4665 100.303 54.4668 97.8364 54.4668H48.6984C46.2316 54.4668 44.2319 56.4665 44.2319 58.9333V70.1H102.303Z" fill="#B6D1E3"/>
		<path d="M58.306 59.9444H55.3987C54.8402 59.9444 54.3877 59.4918 54.3877 58.9334C54.3877 58.375 54.8403 57.9224 55.3987 57.9224H58.306C58.8645 57.9224 59.317 58.375 59.317 58.9334C59.317 59.4918 58.8644 59.9444 58.306 59.9444Z" fill="#D9D9D9"/>
		<path d="M65.4486 59.9444H62.5413C61.9828 59.9444 61.5303 59.4918 61.5303 58.9334C61.5303 58.375 61.9829 57.9224 62.5413 57.9224H65.4486C66.0071 57.9224 66.4596 58.375 66.4596 58.9334C66.4596 59.4918 66.0071 59.9444 65.4486 59.9444Z" fill="#D9D9D9"/>
		<path d="M83.9907 59.9444H81.0833C80.5248 59.9444 80.0723 59.4918 80.0723 58.9334C80.0723 58.375 80.5249 57.9224 81.0833 57.9224H83.9907C84.5492 57.9224 85.0017 58.375 85.0017 58.9334C85.0017 59.4918 84.5492 59.9444 83.9907 59.9444Z" fill="#D9D9D9"/>
		<path d="M91.1343 59.9444H88.2268C87.6683 59.9444 87.2158 59.4918 87.2158 58.9334C87.2158 58.375 87.6685 57.9224 88.2268 57.9224H91.1343C91.6928 57.9224 92.1453 58.375 92.1453 58.9334C92.1453 59.4918 91.6926 59.9444 91.1343 59.9444Z" fill="#D9D9D9"/>
		<path d="M63.2151 58.375C63.2151 59.9168 61.9652 61.1666 60.4235 61.1666C58.8817 61.1666 57.6318 59.9168 57.6318 58.375V52.7916C57.6317 51.2498 58.8815 50 60.4233 50C61.9651 50 63.215 51.2498 63.215 52.7916V58.375H63.2151Z" fill="#EBF5FC"/>
		<path d="M88.8998 58.375C88.8998 59.9168 87.6499 61.1666 86.1082 61.1666C84.5664 61.1666 83.3164 59.9168 83.3164 58.375V52.7916C83.3164 51.2498 84.5662 50 86.108 50C87.6498 50 88.8996 51.2498 88.8996 52.7916V58.375H88.8998Z" fill="#EBF5FC"/>
		<path d="M86.1084 50C85.5353 50 85.0029 50.1733 84.5596 50.4695C85.3087 50.9702 85.8025 51.823 85.8025 52.7918V58.375C85.8025 59.3436 85.3087 60.1966 84.5596 60.6972C85.0028 60.9934 85.5353 61.1668 86.1084 61.1668C87.6502 61.1668 88.9 59.9169 88.9 58.3751V52.7916C88.9002 51.2498 87.6503 50 86.1084 50V50Z" fill="#D3DCFB"/>
		<path d="M60.4239 50C59.8507 50 59.3184 50.1733 58.875 50.4695C59.6242 50.9702 60.1179 51.823 60.1179 52.7918V58.375C60.1179 59.3436 59.6242 60.1966 58.875 60.6972C59.3182 60.9934 59.8507 61.1668 60.4239 61.1668C61.9656 61.1668 63.2155 59.9169 63.2155 58.3751V52.7916C63.2156 51.2498 61.9658 50 60.4239 50V50Z" fill="#D3DCFB"/>
		<path d="M90.0176 117C99.2683 117 106.768 109.501 106.768 100.25C106.768 90.9992 99.2683 83.5 90.0176 83.5C80.7668 83.5 73.2676 90.9992 73.2676 100.25C73.2676 109.501 80.7668 117 90.0176 117Z" fill="#ADC6FF"/>
		<path d="M90.0173 112.534C96.8012 112.534 102.301 107.034 102.301 100.25C102.301 93.4663 96.8012 87.9668 90.0173 87.9668C83.2333 87.9668 77.7339 93.4663 77.7339 100.25C77.7339 107.034 83.2333 112.534 90.0173 112.534Z" fill="white"/>
		<path d="M90.0174 99.0273C89.4589 99.0273 89.0063 98.5746 89.0063 98.0163V92.4329C89.0063 91.8745 89.459 91.4219 90.0174 91.4219C90.5759 91.4219 91.0284 91.8745 91.0284 92.4329V98.0163C91.0284 98.5746 90.5757 99.0273 90.0174 99.0273Z" fill="#D9D9D9"/>
		<path d="M95.6004 101.261H92.2503C91.6918 101.261 91.2393 100.809 91.2393 100.25C91.2393 99.6919 91.6919 99.2393 92.2503 99.2393H95.6004C96.1589 99.2393 96.6114 99.6919 96.6114 100.25C96.6114 100.809 96.1588 101.261 95.6004 101.261Z" fill="#D9D9D9"/>
		<path d="M90.0172 83.5C89.4944 83.5 88.9775 83.5253 88.4669 83.5721C96.9907 84.3545 103.667 91.5221 103.667 100.25C103.667 108.978 96.9906 116.145 88.4668 116.928C88.9774 116.975 89.4943 117 90.0171 117C99.2678 117 106.767 109.501 106.767 100.25C106.767 90.9993 99.2679 83.5 90.0172 83.5Z" fill="#ADC6FF"/>
		<path d="M90.0175 87.9668C89.4928 87.9668 88.9757 87.9999 88.4683 88.0638C94.5208 88.8255 99.2024 93.991 99.2024 100.25C99.2024 106.509 94.5208 111.675 88.4683 112.437C88.9757 112.5 89.4928 112.534 90.0175 112.534C96.8014 112.534 102.301 107.034 102.301 100.25C102.301 93.4663 96.8014 87.9668 90.0175 87.9668Z" fill="#E8E8E8"/>
		<path d="M90.0176 102.483C91.251 102.483 92.2509 101.483 92.2509 100.25C92.2509 99.0165 91.251 98.0166 90.0176 98.0166C88.7841 98.0166 87.7842 99.0165 87.7842 100.25C87.7842 101.483 88.7841 102.483 90.0176 102.483Z" fill="#BFBFBF"/>
	</g>
	<path d="M0 8C0 3.58172 3.58172 0 8 0H10V147H8C3.58172 147 0 143.418 0 139V8Z" fill="#E6A322"/>
	<defs>
		<clipPath id="clip0">
			<rect width="67" height="67" fill="white" transform="translate(42 50)"/>
		</clipPath>
	</defs>
</svg>
