<svg width="14" height="18" viewBox="0 0 14 18" fill="none" xmlns="http://www.w3.org/2000/svg">
<path fill-rule="evenodd" clip-rule="evenodd" d="M0.333252 15.2498C0.333252 12.5649 2.4224 10.3887 4.99992 10.3887H8.99992C11.5774 10.3887 13.6666 12.5649 13.6666 15.2498V16.4512L13.2031 16.6057L12.9999 15.9443C13.2031 16.6057 13.2031 16.6057 13.2031 16.6057L13.2014 16.6063L13.1989 16.6071L13.1916 16.6095L13.1678 16.617C13.1479 16.6233 13.1199 16.6319 13.0838 16.6425C13.0116 16.6637 12.9072 16.6929 12.771 16.7275C12.4987 16.7966 12.0994 16.887 11.5772 16.9767C10.5325 17.1562 8.99622 17.3332 6.99992 17.3332C5.00362 17.3332 3.46732 17.1562 2.42267 16.9767C1.90039 16.887 1.50113 16.7966 1.22882 16.7275C1.09266 16.6929 0.988253 16.6637 0.916075 16.6425C0.879986 16.6319 0.851956 16.6233 0.832045 16.617L0.808277 16.6095L0.800975 16.6071L0.798472 16.6063L0.797507 16.6059C0.797507 16.6059 0.796735 16.6057 0.999919 15.9443L0.796735 16.6057L0.333252 16.4512V15.2498ZM1.66659 15.4083C1.90273 15.4652 2.22786 15.5356 2.63967 15.6063C3.61585 15.774 5.07955 15.9443 6.99992 15.9443C8.92028 15.9443 10.384 15.774 11.3602 15.6063C11.772 15.5356 12.0971 15.4652 12.3333 15.4083V15.2498C12.3333 13.332 10.8411 11.7776 8.99992 11.7776H4.99992C3.15878 11.7776 1.66659 13.332 1.66659 15.2498V15.4083Z" fill="#595959"/>
<path fill-rule="evenodd" clip-rule="evenodd" d="M6.99992 2.05539C5.52744 2.05539 4.33325 3.29934 4.33325 4.83317C4.33325 5.61913 4.64557 6.51296 5.16777 7.20721C5.69198 7.90413 6.3506 8.30539 6.99992 8.30539C7.64924 8.30539 8.30785 7.90413 8.83206 7.20721C9.35427 6.51296 9.66658 5.61913 9.66658 4.83317C9.66658 3.29934 8.47239 2.05539 6.99992 2.05539ZM2.99992 4.83317C2.99992 2.53228 4.79106 0.666504 6.99992 0.666504C9.20877 0.666504 10.9999 2.53228 10.9999 4.83317C10.9999 5.96458 10.5659 7.15408 9.8816 8.06382C9.19932 8.97089 8.19127 9.69428 6.99992 9.69428C5.80857 9.69428 4.80052 8.97089 4.11823 8.06382C3.43394 7.15408 2.99992 5.96458 2.99992 4.83317Z" fill="#595959"/>
</svg>
