<svg width="1920" height="627" viewBox="0 0 1920 627" fill="none" xmlns="http://www.w3.org/2000/svg">
<rect width="1920" height="627" fill="#E1F0F5"/>
<g clip-path="url(#clip0)">
<path opacity="0.05" d="M2464 934.551C2435.6 710.913 2215.5 585.567 2109 550.849C2064 406.899 1970 119 1954 119C1938 119 1520.67 305.038 1314 398.056L1590 1109.45C1893.17 1144.33 2492.4 1158.19 2464 934.551Z" fill="#0043A5"/>
</g>
<g clip-path="url(#clip1)">
<path opacity="0.05" d="M1379 -420.708C1350.6 -193.108 1130.5 -65.5415 1024 -30.2082C979 116.292 885 409.292 869 409.292C853 409.292 435.667 219.958 229 125.292L505 -598.708C808.167 -634.208 1407.4 -648.308 1379 -420.708Z" fill="#0043A5"/>
</g>
<defs>
<clipPath id="clip0">
<rect width="606" height="508" fill="white" transform="translate(1314 119)"/>
</clipPath>
<clipPath id="clip1">
<rect width="1151" height="410" fill="white" transform="translate(229)"/>
</clipPath>
</defs>
</svg>
