<svg width="1067" height="217" viewBox="0 0 1067 217" fill="none" xmlns="http://www.w3.org/2000/svg">
<rect x="35.734" y="175" width="1030.6" height="1" fill="#F5F5F5"/>
<path d="M21.8296 172.614C21.8296 173.884 21.6128 174.827 21.1792 175.444C20.7456 176.062 20.0679 176.37 19.146 176.37C18.2358 176.37 17.562 176.069 17.1245 175.468C16.687 174.862 16.4605 173.96 16.4448 172.761V171.313C16.4448 170.06 16.6616 169.128 17.0952 168.519C17.5288 167.909 18.2085 167.604 19.1343 167.604C20.0523 167.604 20.728 167.899 21.1616 168.489C21.5952 169.075 21.8179 169.981 21.8296 171.208V172.614ZM20.7456 171.132C20.7456 170.214 20.6167 169.546 20.3589 169.128C20.1011 168.706 19.6929 168.495 19.1343 168.495C18.5796 168.495 18.1753 168.704 17.9214 169.122C17.6675 169.54 17.5366 170.183 17.5288 171.05V172.784C17.5288 173.706 17.6616 174.388 17.9273 174.829C18.1968 175.267 18.603 175.485 19.146 175.485C19.6812 175.485 20.0776 175.278 20.3355 174.864C20.5972 174.45 20.7339 173.798 20.7456 172.907V171.132Z" fill="#8C8C8C"/>
<rect x="35.7343" y="134" width="1030.6" height="1" fill="#F5F5F5"/>
<path d="M9.401 132.723L9.83459 128.469H14.2057V129.471H10.7545L10.4967 131.797C10.9147 131.551 11.3893 131.428 11.9205 131.428C12.6979 131.428 13.3151 131.686 13.7721 132.201C14.2291 132.713 14.4576 133.406 14.4576 134.281C14.4576 135.16 14.2194 135.854 13.7428 136.361C13.2701 136.865 12.608 137.117 11.7565 137.117C11.0026 137.117 10.3873 136.908 9.91077 136.49C9.4342 136.072 9.16272 135.494 9.09631 134.756H10.1217C10.1881 135.244 10.3619 135.613 10.6432 135.863C10.9244 136.109 11.2955 136.232 11.7565 136.232C12.2604 136.232 12.6549 136.061 12.9401 135.717C13.2291 135.373 13.3737 134.898 13.3737 134.293C13.3737 133.723 13.2174 133.266 12.9049 132.922C12.5963 132.574 12.1842 132.4 11.6686 132.4C11.1959 132.4 10.8248 132.504 10.5553 132.711L10.2682 132.945L9.401 132.723ZM20.9908 133.361C20.9908 134.631 20.774 135.574 20.3405 136.191C19.9069 136.809 19.2291 137.117 18.3073 137.117C17.3971 137.117 16.7233 136.816 16.2858 136.215C15.8483 135.609 15.6217 134.707 15.6061 133.508V132.061C15.6061 130.807 15.8229 129.875 16.2565 129.266C16.6901 128.656 17.3698 128.352 18.2955 128.352C19.2135 128.352 19.8893 128.646 20.3229 129.236C20.7565 129.822 20.9791 130.729 20.9908 131.955V133.361ZM19.9069 131.879C19.9069 130.961 19.778 130.293 19.5201 129.875C19.2623 129.453 18.8541 129.242 18.2955 129.242C17.7408 129.242 17.3365 129.451 17.0826 129.869C16.8287 130.287 16.6979 130.93 16.6901 131.797V133.531C16.6901 134.453 16.8229 135.135 17.0885 135.576C17.358 136.014 17.7643 136.232 18.3073 136.232C18.8424 136.232 19.2389 136.025 19.4967 135.611C19.7584 135.197 19.8951 134.545 19.9069 133.654V131.879Z" fill="#8C8C8C"/>
<rect x="35.7343" y="93" width="1030.6" height="1" fill="#F5F5F5"/>
<path d="M5.72717 98H4.63733V90.7754L2.45178 91.5781V90.5938L5.55725 89.4277H5.72717V98ZM14.2526 94.3613C14.2526 95.6309 14.0358 96.5742 13.6022 97.1914C13.1686 97.8086 12.4908 98.1172 11.569 98.1172C10.6588 98.1172 9.98499 97.8164 9.54749 97.2148C9.10999 96.6094 8.88342 95.707 8.8678 94.5078V93.0605C8.8678 91.8066 9.08459 90.875 9.51819 90.2656C9.95178 89.6562 10.6315 89.3516 11.5573 89.3516C12.4752 89.3516 13.151 89.6465 13.5846 90.2363C14.0182 90.8223 14.2408 91.7285 14.2526 92.9551V94.3613ZM13.1686 92.8789C13.1686 91.9609 13.0397 91.293 12.7819 90.875C12.524 90.4531 12.1158 90.2422 11.5573 90.2422C11.0026 90.2422 10.5983 90.4512 10.3444 90.8691C10.0905 91.2871 9.95959 91.9297 9.95178 92.7969V94.5312C9.95178 95.4531 10.0846 96.1348 10.3502 96.5762C10.6198 97.0137 11.026 97.2324 11.569 97.2324C12.1041 97.2324 12.5006 97.0254 12.7584 96.6113C13.0201 96.1973 13.1569 95.5449 13.1686 94.6543V92.8789ZM20.9908 94.3613C20.9908 95.6309 20.774 96.5742 20.3405 97.1914C19.9069 97.8086 19.2291 98.1172 18.3073 98.1172C17.3971 98.1172 16.7233 97.8164 16.2858 97.2148C15.8483 96.6094 15.6217 95.707 15.6061 94.5078V93.0605C15.6061 91.8066 15.8229 90.875 16.2565 90.2656C16.6901 89.6562 17.3698 89.3516 18.2955 89.3516C19.2135 89.3516 19.8893 89.6465 20.3229 90.2363C20.7565 90.8223 20.9791 91.7285 20.9908 92.9551V94.3613ZM19.9069 92.8789C19.9069 91.9609 19.778 91.293 19.5201 90.875C19.2623 90.4531 18.8541 90.2422 18.2955 90.2422C17.7408 90.2422 17.3365 90.4512 17.0826 90.8691C16.8287 91.2871 16.6979 91.9297 16.6901 92.7969V94.5312C16.6901 95.4531 16.8229 96.1348 17.0885 96.5762C17.358 97.0137 17.7643 97.2324 18.3073 97.2324C18.8424 97.2324 19.2389 97.0254 19.4967 96.6113C19.7584 96.1973 19.8951 95.5449 19.9069 94.6543V92.8789Z" fill="#8C8C8C"/>
<rect x="35.7343" y="52" width="1030.6" height="1" fill="#F5F5F5"/>
<path d="M5.72717 55H4.63733V47.7754L2.45178 48.5781V47.5938L5.55725 46.4277H5.72717V55ZM9.401 50.7227L9.83459 46.4688H14.2057V47.4707H10.7545L10.4967 49.7969C10.9147 49.5508 11.3893 49.4277 11.9205 49.4277C12.6979 49.4277 13.3151 49.6855 13.7721 50.2012C14.2291 50.7129 14.4576 51.4062 14.4576 52.2812C14.4576 53.1602 14.2194 53.8535 13.7428 54.3613C13.2701 54.8652 12.608 55.1172 11.7565 55.1172C11.0026 55.1172 10.3873 54.9082 9.91077 54.4902C9.4342 54.0723 9.16272 53.4941 9.09631 52.7559H10.1217C10.1881 53.2441 10.3619 53.6133 10.6432 53.8633C10.9244 54.1094 11.2955 54.2324 11.7565 54.2324C12.2604 54.2324 12.6549 54.0605 12.9401 53.7168C13.2291 53.373 13.3737 52.8984 13.3737 52.293C13.3737 51.7227 13.2174 51.2656 12.9049 50.9219C12.5963 50.5742 12.1842 50.4004 11.6686 50.4004C11.1959 50.4004 10.8248 50.5039 10.5553 50.7109L10.2682 50.9453L9.401 50.7227ZM20.9908 51.3613C20.9908 52.6309 20.774 53.5742 20.3405 54.1914C19.9069 54.8086 19.2291 55.1172 18.3073 55.1172C17.3971 55.1172 16.7233 54.8164 16.2858 54.2148C15.8483 53.6094 15.6217 52.707 15.6061 51.5078V50.0605C15.6061 48.8066 15.8229 47.875 16.2565 47.2656C16.6901 46.6562 17.3698 46.3516 18.2955 46.3516C19.2135 46.3516 19.8893 46.6465 20.3229 47.2363C20.7565 47.8223 20.9791 48.7285 20.9908 49.9551V51.3613ZM19.9069 49.8789C19.9069 48.9609 19.778 48.293 19.5201 47.875C19.2623 47.4531 18.8541 47.2422 18.2955 47.2422C17.7408 47.2422 17.3365 47.4512 17.0826 47.8691C16.8287 48.2871 16.6979 48.9297 16.6901 49.7969V51.5312C16.6901 52.4531 16.8229 53.1348 17.0885 53.5762C17.358 54.0137 17.7643 54.2324 18.3073 54.2324C18.8424 54.2324 19.2389 54.0254 19.4967 53.6113C19.7584 53.1973 19.8951 52.5449 19.9069 51.6543V49.8789Z" fill="#8C8C8C"/>
<rect x="35.7343" y="11" width="1030.6" height="1" fill="#F5F5F5"/>
<path d="M7.75452 15H2.16467V14.2207L5.1178 10.9395C5.5553 10.4434 5.85608 10.041 6.02014 9.73242C6.18811 9.41992 6.27209 9.09766 6.27209 8.76562C6.27209 8.32031 6.13733 7.95508 5.8678 7.66992C5.59827 7.38477 5.23889 7.24219 4.78967 7.24219C4.25061 7.24219 3.83069 7.39648 3.52991 7.70508C3.23303 8.00977 3.08459 8.43555 3.08459 8.98242H2.00061C2.00061 8.19727 2.25256 7.5625 2.75647 7.07812C3.26428 6.59375 3.94202 6.35156 4.78967 6.35156C5.58264 6.35156 6.20959 6.56055 6.67053 6.97852C7.13147 7.39258 7.36194 7.94531 7.36194 8.63672C7.36194 9.47656 6.82678 10.4766 5.75647 11.6367L3.47131 14.1152H7.75452V15ZM14.2526 11.3613C14.2526 12.6309 14.0358 13.5742 13.6022 14.1914C13.1686 14.8086 12.4908 15.1172 11.569 15.1172C10.6588 15.1172 9.98499 14.8164 9.54749 14.2148C9.10999 13.6094 8.88342 12.707 8.8678 11.5078V10.0605C8.8678 8.80664 9.08459 7.875 9.51819 7.26562C9.95178 6.65625 10.6315 6.35156 11.5573 6.35156C12.4752 6.35156 13.151 6.64648 13.5846 7.23633C14.0182 7.82227 14.2408 8.72852 14.2526 9.95508V11.3613ZM13.1686 9.87891C13.1686 8.96094 13.0397 8.29297 12.7819 7.875C12.524 7.45312 12.1158 7.24219 11.5573 7.24219C11.0026 7.24219 10.5983 7.45117 10.3444 7.86914C10.0905 8.28711 9.95959 8.92969 9.95178 9.79688V11.5312C9.95178 12.4531 10.0846 13.1348 10.3502 13.5762C10.6198 14.0137 11.026 14.2324 11.569 14.2324C12.1041 14.2324 12.5006 14.0254 12.7584 13.6113C13.0201 13.1973 13.1569 12.5449 13.1686 11.6543V9.87891ZM20.9908 11.3613C20.9908 12.6309 20.774 13.5742 20.3405 14.1914C19.9069 14.8086 19.2291 15.1172 18.3073 15.1172C17.3971 15.1172 16.7233 14.8164 16.2858 14.2148C15.8483 13.6094 15.6217 12.707 15.6061 11.5078V10.0605C15.6061 8.80664 15.8229 7.875 16.2565 7.26562C16.6901 6.65625 17.3698 6.35156 18.2955 6.35156C19.2135 6.35156 19.8893 6.64648 20.3229 7.23633C20.7565 7.82227 20.9791 8.72852 20.9908 9.95508V11.3613ZM19.9069 9.87891C19.9069 8.96094 19.778 8.29297 19.5201 7.875C19.2623 7.45312 18.8541 7.24219 18.2955 7.24219C17.7408 7.24219 17.3365 7.45117 17.0826 7.86914C16.8287 8.28711 16.6979 8.92969 16.6901 9.79688V11.5312C16.6901 12.4531 16.8229 13.1348 17.0885 13.5762C17.358 14.0137 17.7643 14.2324 18.3073 14.2324C18.8424 14.2324 19.2389 14.0254 19.4967 13.6113C19.7584 13.1973 19.8951 12.5449 19.9069 11.6543V9.87891Z" fill="#8C8C8C"/>
<path d="M46.7239 192.394H43.9817L43.9011 199.999H42.7819L42.8626 192.394H40.1262L40.1361 191.469H46.7337L46.7239 192.394ZM48.882 194.427C49.3688 193.838 49.9969 193.543 50.7664 193.543C52.1063 193.543 52.774 194.298 52.7697 195.81L52.7253 199.999H51.6413L51.6858 195.804C51.6867 195.347 51.5848 195.009 51.3801 194.791C51.1793 194.572 50.8621 194.463 50.4285 194.463C50.077 194.463 49.7674 194.556 49.4998 194.744C49.2322 194.931 49.0225 195.177 48.8708 195.482L48.8229 199.999H47.7389L47.8344 191H48.9184L48.882 194.427ZM58.2624 199.999C58.2012 199.874 58.1528 199.652 58.1171 199.331C57.6077 199.855 57.0033 200.117 56.3041 200.117C55.6791 200.117 55.1673 199.941 54.7687 199.589C54.374 199.234 54.1796 198.785 54.1853 198.242C54.1923 197.581 54.4478 197.07 54.9516 196.707C55.4594 196.339 56.1684 196.156 57.0785 196.156H58.1332L58.1385 195.658C58.1425 195.279 58.0324 194.978 57.8082 194.755C57.5841 194.529 57.2513 194.416 56.8099 194.416C56.4232 194.416 56.0979 194.513 55.8341 194.709C55.5703 194.904 55.437 195.14 55.434 195.418H54.3442C54.3475 195.101 54.4621 194.796 54.6879 194.504C54.9176 194.207 55.2247 193.972 55.6094 193.8C55.9979 193.629 56.4227 193.543 56.8836 193.543C57.6141 193.543 58.1844 193.726 58.5946 194.093C59.0048 194.457 59.2143 194.959 59.2231 195.599L59.1922 198.517C59.186 199.099 59.2553 199.562 59.4001 199.906L59.3991 199.999H58.2624ZM56.4723 199.173C56.8122 199.173 57.1354 199.085 57.4419 198.91C57.7485 198.734 57.9716 198.505 58.1113 198.224L58.1251 196.923H57.2755C55.9474 196.923 55.2792 197.312 55.2709 198.089C55.2673 198.429 55.3778 198.695 55.6023 198.886C55.8269 199.078 56.1169 199.173 56.4723 199.173ZM57.561 191H58.8735L57.2849 192.722H56.4118L57.561 191ZM61.9683 193.66L61.995 194.457C62.4858 193.847 63.1219 193.543 63.9031 193.543C65.243 193.543 65.9107 194.298 65.9064 195.81L65.862 199.999H64.778L64.8225 195.804C64.8234 195.347 64.7216 195.009 64.5168 194.791C64.316 194.572 63.9988 194.463 63.5652 194.463C63.2137 194.463 62.9041 194.556 62.6365 194.744C62.3689 194.931 62.1592 195.177 62.0076 195.482L61.9597 199.999H60.8757L60.9429 193.66H61.9683ZM67.2731 196.777C67.2836 195.789 67.5204 195.004 67.9837 194.422C68.4469 193.836 69.0555 193.543 69.8094 193.543C70.5828 193.543 71.1834 193.816 71.6112 194.363L71.6714 193.66H72.6617L72.596 199.847C72.5873 200.667 72.3363 201.314 71.843 201.786C71.3537 202.259 70.6988 202.495 69.8785 202.495C69.4215 202.495 68.9752 202.398 68.5398 202.202C68.1044 202.007 67.7732 201.739 67.5464 201.4L68.1158 200.749C68.5745 201.323 69.1398 201.611 69.8117 201.611C70.339 201.611 70.7508 201.462 71.0469 201.165C71.3469 200.868 71.4998 200.45 71.5055 199.911L71.5113 199.367C71.0724 199.867 70.4779 200.117 69.7279 200.117C68.9858 200.117 68.3874 199.818 67.9328 199.22C67.4821 198.622 67.2622 197.808 67.2731 196.777ZM68.3617 196.9C68.3541 197.615 68.4946 198.177 68.7832 198.587C69.0719 198.994 69.4799 199.197 70.0072 199.197C70.6908 199.197 71.1961 198.886 71.523 198.265L71.5537 195.371C71.2281 194.765 70.7332 194.463 70.0692 194.463C69.5418 194.463 69.1275 194.668 68.8263 195.078C68.5251 195.488 68.3702 196.095 68.3617 196.9ZM80.6628 199.999H79.5729L79.6496 192.775L77.4555 193.578L77.4659 192.593L80.5838 191.428H80.7537L80.6628 199.999Z" fill="#8C8C8C"/>
<path d="M133.461 192.394H130.719L130.638 199.999H129.519L129.599 192.394H126.863L126.873 191.469H133.471L133.461 192.394ZM135.619 194.427C136.106 193.838 136.734 193.543 137.503 193.543C138.843 193.543 139.511 194.298 139.507 195.81L139.462 199.999H138.378L138.423 195.804C138.424 195.347 138.322 195.009 138.117 194.791C137.916 194.572 137.599 194.463 137.165 194.463C136.814 194.463 136.504 194.556 136.237 194.744C135.969 194.931 135.759 195.177 135.608 195.482L135.56 199.999H134.476L134.571 191H135.655L135.619 194.427ZM144.999 199.999C144.938 199.874 144.89 199.652 144.854 199.331C144.345 199.855 143.74 200.117 143.041 200.117C142.416 200.117 141.904 199.941 141.506 199.589C141.111 199.234 140.916 198.785 140.922 198.242C140.929 197.581 141.185 197.07 141.689 196.707C142.196 196.339 142.905 196.156 143.815 196.156H144.87L144.875 195.658C144.879 195.279 144.769 194.978 144.545 194.755C144.321 194.529 143.988 194.416 143.547 194.416C143.16 194.416 142.835 194.513 142.571 194.709C142.307 194.904 142.174 195.14 142.171 195.418H141.081C141.084 195.101 141.199 194.796 141.425 194.504C141.654 194.207 141.962 193.972 142.346 193.8C142.735 193.629 143.16 193.543 143.62 193.543C144.351 193.543 144.921 193.726 145.331 194.093C145.742 194.457 145.951 194.959 145.96 195.599L145.929 198.517C145.923 199.099 145.992 199.562 146.137 199.906L146.136 199.999H144.999ZM143.209 199.173C143.549 199.173 143.872 199.085 144.179 198.91C144.485 198.734 144.709 198.505 144.848 198.224L144.862 196.923H144.012C142.684 196.923 142.016 197.312 142.008 198.089C142.004 198.429 142.115 198.695 142.339 198.886C142.564 199.078 142.854 199.173 143.209 199.173ZM144.298 191H145.61L144.022 192.722H143.149L144.298 191ZM148.705 193.66L148.732 194.457C149.223 193.847 149.859 193.543 150.64 193.543C151.98 193.543 152.648 194.298 152.643 195.81L152.599 199.999H151.515L151.559 195.804C151.56 195.347 151.458 195.009 151.254 194.791C151.053 194.572 150.736 194.463 150.302 194.463C149.951 194.463 149.641 194.556 149.373 194.744C149.106 194.931 148.896 195.177 148.744 195.482L148.697 199.999H147.613L147.68 193.66H148.705ZM154.01 196.777C154.02 195.789 154.257 195.004 154.721 194.422C155.184 193.836 155.792 193.543 156.546 193.543C157.32 193.543 157.92 193.816 158.348 194.363L158.408 193.66H159.399L159.333 199.847C159.324 200.667 159.073 201.314 158.58 201.786C158.091 202.259 157.436 202.495 156.615 202.495C156.158 202.495 155.712 202.398 155.277 202.202C154.841 202.007 154.51 201.739 154.283 201.4L154.853 200.749C155.311 201.323 155.877 201.611 156.549 201.611C157.076 201.611 157.488 201.462 157.784 201.165C158.084 200.868 158.237 200.45 158.242 199.911L158.248 199.367C157.809 199.867 157.215 200.117 156.465 200.117C155.723 200.117 155.124 199.818 154.67 199.22C154.219 198.622 153.999 197.808 154.01 196.777ZM155.099 196.9C155.091 197.615 155.232 198.177 155.52 198.587C155.809 198.994 156.217 199.197 156.744 199.197C157.428 199.197 157.933 198.886 158.26 198.265L158.291 195.371C157.965 194.765 157.47 194.463 156.806 194.463C156.279 194.463 155.864 194.668 155.563 195.078C155.262 195.488 155.107 196.095 155.099 196.9ZM169.427 199.999H163.837L163.845 199.22L166.833 195.939C167.276 195.443 167.581 195.041 167.748 194.732C167.92 194.42 168.007 194.097 168.011 193.765C168.015 193.32 167.885 192.955 167.618 192.67C167.351 192.385 166.994 192.242 166.544 192.242C166.005 192.242 165.584 192.396 165.28 192.705C164.98 193.009 164.827 193.435 164.821 193.982H163.737C163.745 193.197 164.004 192.562 164.513 192.078C165.026 191.594 165.706 191.351 166.554 191.351C167.347 191.351 167.972 191.56 168.428 191.978C168.885 192.392 169.109 192.945 169.102 193.636C169.093 194.476 168.547 195.476 167.465 196.636L165.153 199.115H169.436L169.427 199.999Z" fill="#8C8C8C"/>
<path d="M220.369 192.394H217.627L217.546 199.999H216.427L216.508 192.394H213.771L213.781 191.469H220.379L220.369 192.394ZM222.527 194.427C223.014 193.838 223.642 193.543 224.411 193.543C225.751 193.543 226.419 194.298 226.415 195.81L226.37 199.999H225.286L225.331 195.804C225.332 195.347 225.23 195.009 225.025 194.791C224.824 194.572 224.507 194.463 224.074 194.463C223.722 194.463 223.412 194.556 223.145 194.744C222.877 194.931 222.668 195.177 222.516 195.482L222.468 199.999H221.384L221.479 191H222.563L222.527 194.427ZM231.907 199.999C231.846 199.874 231.798 199.652 231.762 199.331C231.253 199.855 230.648 200.117 229.949 200.117C229.324 200.117 228.812 199.941 228.414 199.589C228.019 199.234 227.825 198.785 227.83 198.242C227.837 197.581 228.093 197.07 228.597 196.707C229.104 196.339 229.813 196.156 230.724 196.156H231.778L231.784 195.658C231.788 195.279 231.677 194.978 231.453 194.755C231.229 194.529 230.896 194.416 230.455 194.416C230.068 194.416 229.743 194.513 229.479 194.709C229.215 194.904 229.082 195.14 229.079 195.418H227.989C227.993 195.101 228.107 194.796 228.333 194.504C228.563 194.207 228.87 193.972 229.254 193.8C229.643 193.629 230.068 193.543 230.529 193.543C231.259 193.543 231.829 193.726 232.24 194.093C232.65 194.457 232.859 194.959 232.868 195.599L232.837 198.517C232.831 199.099 232.9 199.562 233.045 199.906L233.044 199.999H231.907ZM230.117 199.173C230.457 199.173 230.78 199.085 231.087 198.91C231.393 198.734 231.617 198.505 231.756 198.224L231.77 196.923H230.92C229.592 196.923 228.924 197.312 228.916 198.089C228.912 198.429 229.023 198.695 229.247 198.886C229.472 199.078 229.762 199.173 230.117 199.173ZM231.206 191H232.518L230.93 192.722H230.057L231.206 191ZM235.613 193.66L235.64 194.457C236.131 193.847 236.767 193.543 237.548 193.543C238.888 193.543 239.556 194.298 239.551 195.81L239.507 199.999H238.423L238.468 195.804C238.468 195.347 238.367 195.009 238.162 194.791C237.961 194.572 237.644 194.463 237.21 194.463C236.859 194.463 236.549 194.556 236.282 194.744C236.014 194.931 235.804 195.177 235.653 195.482L235.605 199.999H234.521L234.588 193.66H235.613ZM240.918 196.777C240.929 195.789 241.165 195.004 241.629 194.422C242.092 193.836 242.7 193.543 243.454 193.543C244.228 193.543 244.828 193.816 245.256 194.363L245.316 193.66H246.307L246.241 199.847C246.232 200.667 245.981 201.314 245.488 201.786C244.999 202.259 244.344 202.495 243.524 202.495C243.066 202.495 242.62 202.398 242.185 202.202C241.749 202.007 241.418 201.739 241.191 201.4L241.761 200.749C242.22 201.323 242.785 201.611 243.457 201.611C243.984 201.611 244.396 201.462 244.692 201.165C244.992 200.868 245.145 200.45 245.151 199.911L245.156 199.367C244.717 199.867 244.123 200.117 243.373 200.117C242.631 200.117 242.032 199.818 241.578 199.22C241.127 198.622 240.907 197.808 240.918 196.777ZM242.007 196.9C241.999 197.615 242.14 198.177 242.428 198.587C242.717 198.994 243.125 199.197 243.652 199.197C244.336 199.197 244.841 198.886 245.168 198.265L245.199 195.371C244.873 194.765 244.378 194.463 243.714 194.463C243.187 194.463 242.773 194.668 242.471 195.078C242.17 195.488 242.015 196.095 242.007 196.9ZM252.372 195.207H253.187C253.699 195.199 254.102 195.064 254.398 194.802C254.694 194.541 254.844 194.187 254.849 193.742C254.859 192.742 254.367 192.242 253.371 192.242C252.902 192.242 252.525 192.377 252.241 192.646C251.961 192.912 251.819 193.265 251.814 193.707H250.73C250.737 193.031 250.989 192.47 251.486 192.025C251.987 191.576 252.618 191.351 253.38 191.351C254.185 191.351 254.813 191.564 255.266 191.99C255.718 192.416 255.941 193.008 255.933 193.765C255.929 194.136 255.804 194.496 255.558 194.843C255.316 195.191 254.987 195.451 254.571 195.623C255.038 195.771 255.397 196.017 255.647 196.361C255.901 196.705 256.026 197.124 256.021 197.621C256.012 198.386 255.756 198.994 255.251 199.443C254.746 199.892 254.094 200.117 253.293 200.117C252.492 200.117 251.842 199.9 251.343 199.466C250.847 199.033 250.603 198.46 250.611 197.749H251.701C251.696 198.199 251.839 198.558 252.129 198.828C252.419 199.097 252.81 199.232 253.302 199.232C253.826 199.232 254.228 199.095 254.508 198.822C254.788 198.548 254.931 198.156 254.936 197.644C254.942 197.148 254.793 196.767 254.491 196.501C254.19 196.236 253.752 196.099 253.177 196.091H252.363L252.372 195.207Z" fill="#8C8C8C"/>
<path d="M307.274 192.394H304.532L304.451 199.999H303.332L303.412 192.394H300.676L300.686 191.469H307.284L307.274 192.394ZM309.432 194.427C309.919 193.838 310.547 193.543 311.316 193.543C312.656 193.543 313.324 194.298 313.32 195.81L313.275 199.999H312.191L312.236 195.804C312.237 195.347 312.135 195.009 311.93 194.791C311.729 194.572 311.412 194.463 310.978 194.463C310.627 194.463 310.317 194.556 310.05 194.744C309.782 194.931 309.572 195.177 309.421 195.482L309.373 199.999H308.289L308.384 191H309.468L309.432 194.427ZM318.812 199.999C318.751 199.874 318.703 199.652 318.667 199.331C318.158 199.855 317.553 200.117 316.854 200.117C316.229 200.117 315.717 199.941 315.319 199.589C314.924 199.234 314.729 198.785 314.735 198.242C314.742 197.581 314.998 197.07 315.501 196.707C316.009 196.339 316.718 196.156 317.628 196.156H318.683L318.688 195.658C318.692 195.279 318.582 194.978 318.358 194.755C318.134 194.529 317.801 194.416 317.36 194.416C316.973 194.416 316.648 194.513 316.384 194.709C316.12 194.904 315.987 195.14 315.984 195.418H314.894C314.897 195.101 315.012 194.796 315.238 194.504C315.467 194.207 315.775 193.972 316.159 193.8C316.548 193.629 316.973 193.543 317.433 193.543C318.164 193.543 318.734 193.726 319.144 194.093C319.555 194.457 319.764 194.959 319.773 195.599L319.742 198.517C319.736 199.099 319.805 199.562 319.95 199.906L319.949 199.999H318.812ZM317.022 199.173C317.362 199.173 317.685 199.085 317.992 198.91C318.298 198.734 318.521 198.505 318.661 198.224L318.675 196.923H317.825C316.497 196.923 315.829 197.312 315.821 198.089C315.817 198.429 315.928 198.695 316.152 198.886C316.377 199.078 316.667 199.173 317.022 199.173ZM318.111 191H319.423L317.835 192.722H316.962L318.111 191ZM322.518 193.66L322.545 194.457C323.036 193.847 323.672 193.543 324.453 193.543C325.793 193.543 326.461 194.298 326.456 195.81L326.412 199.999H325.328L325.372 195.804C325.373 195.347 325.271 195.009 325.067 194.791C324.866 194.572 324.549 194.463 324.115 194.463C323.764 194.463 323.454 194.556 323.186 194.744C322.919 194.931 322.709 195.177 322.557 195.482L322.51 199.999H321.426L321.493 193.66H322.518ZM327.823 196.777C327.833 195.789 328.07 195.004 328.534 194.422C328.997 193.836 329.605 193.543 330.359 193.543C331.133 193.543 331.733 193.816 332.161 194.363L332.221 193.66H333.212L333.146 199.847C333.137 200.667 332.886 201.314 332.393 201.786C331.904 202.259 331.249 202.495 330.428 202.495C329.971 202.495 329.525 202.398 329.09 202.202C328.654 202.007 328.323 201.739 328.096 201.4L328.666 200.749C329.124 201.323 329.69 201.611 330.362 201.611C330.889 201.611 331.301 201.462 331.597 201.165C331.897 200.868 332.05 200.45 332.055 199.911L332.061 199.367C331.622 199.867 331.028 200.117 330.278 200.117C329.536 200.117 328.937 199.818 328.483 199.22C328.032 198.622 327.812 197.808 327.823 196.777ZM328.912 196.9C328.904 197.615 329.045 198.177 329.333 198.587C329.622 198.994 330.03 199.197 330.557 199.197C331.241 199.197 331.746 198.886 332.073 198.265L332.104 195.371C331.778 194.765 331.283 194.463 330.619 194.463C330.092 194.463 329.677 194.668 329.376 195.078C329.075 195.488 328.92 196.095 328.912 196.9ZM342.257 197.134H343.44L343.431 198.019H342.247L342.226 199.999H341.137L341.158 198.019H337.273L337.28 197.38L341.162 191.469H342.317L342.257 197.134ZM338.513 197.134H341.167L341.211 192.951L341.08 193.185L338.513 197.134Z" fill="#8C8C8C"/>
<path d="M394.179 192.394H391.437L391.356 199.999H390.237L390.318 192.394H387.582L387.591 191.469H394.189L394.179 192.394ZM396.337 194.427C396.824 193.838 397.452 193.543 398.222 193.543C399.562 193.543 400.229 194.298 400.225 195.81L400.181 199.999H399.097L399.141 195.804C399.142 195.347 399.04 195.009 398.835 194.791C398.635 194.572 398.317 194.463 397.884 194.463C397.532 194.463 397.223 194.556 396.955 194.744C396.687 194.931 396.478 195.177 396.326 195.482L396.278 199.999H395.194L395.29 191H396.374L396.337 194.427ZM405.718 199.999C405.657 199.874 405.608 199.652 405.572 199.331C405.063 199.855 404.459 200.117 403.759 200.117C403.134 200.117 402.623 199.941 402.224 199.589C401.829 199.234 401.635 198.785 401.641 198.242C401.648 197.581 401.903 197.07 402.407 196.707C402.915 196.339 403.624 196.156 404.534 196.156H405.589L405.594 195.658C405.598 195.279 405.488 194.978 405.264 194.755C405.039 194.529 404.707 194.416 404.265 194.416C403.878 194.416 403.553 194.513 403.289 194.709C403.026 194.904 402.892 195.14 402.889 195.418H401.8C401.803 195.101 401.917 194.796 402.143 194.504C402.373 194.207 402.68 193.972 403.065 193.8C403.453 193.629 403.878 193.543 404.339 193.543C405.069 193.543 405.64 193.726 406.05 194.093C406.46 194.457 406.67 194.959 406.678 195.599L406.647 198.517C406.641 199.099 406.711 199.562 406.855 199.906L406.854 199.999H405.718ZM403.928 199.173C404.267 199.173 404.591 199.085 404.897 198.91C405.204 198.734 405.427 198.505 405.567 198.224L405.58 196.923H404.731C403.403 196.923 402.734 197.312 402.726 198.089C402.723 198.429 402.833 198.695 403.058 198.886C403.282 199.078 403.572 199.173 403.928 199.173ZM405.016 191H406.329L404.74 192.722H403.867L405.016 191ZM409.424 193.66L409.45 194.457C409.941 193.847 410.577 193.543 411.358 193.543C412.698 193.543 413.366 194.298 413.362 195.81L413.317 199.999H412.233L412.278 195.804C412.279 195.347 412.177 195.009 411.972 194.791C411.771 194.572 411.454 194.463 411.021 194.463C410.669 194.463 410.359 194.556 410.092 194.744C409.824 194.931 409.615 195.177 409.463 195.482L409.415 199.999H408.331L408.398 193.66H409.424ZM414.728 196.777C414.739 195.789 414.976 195.004 415.439 194.422C415.902 193.836 416.511 193.543 417.265 193.543C418.038 193.543 418.639 193.816 419.067 194.363L419.127 193.66H420.117L420.051 199.847C420.043 200.667 419.792 201.314 419.298 201.786C418.809 202.259 418.154 202.495 417.334 202.495C416.877 202.495 416.431 202.398 415.995 202.202C415.56 202.007 415.229 201.739 415.002 201.4L415.571 200.749C416.03 201.323 416.595 201.611 417.267 201.611C417.794 201.611 418.206 201.462 418.502 201.165C418.802 200.868 418.955 200.45 418.961 199.911L418.967 199.367C418.528 199.867 417.933 200.117 417.183 200.117C416.441 200.117 415.843 199.818 415.388 199.22C414.937 198.622 414.718 197.808 414.728 196.777ZM415.817 196.9C415.809 197.615 415.95 198.177 416.239 198.587C416.527 198.994 416.935 199.197 417.463 199.197C418.146 199.197 418.651 198.886 418.978 198.265L419.009 195.371C418.683 194.765 418.189 194.463 417.524 194.463C416.997 194.463 416.583 194.668 416.282 195.078C415.98 195.488 415.826 196.095 415.817 196.9ZM425.099 195.722L425.578 191.469H429.949L429.938 192.47H426.487L426.205 194.796C426.625 194.55 427.101 194.427 427.632 194.427C428.41 194.427 429.024 194.685 429.476 195.201C429.927 195.712 430.148 196.406 430.139 197.281C430.13 198.16 429.884 198.853 429.402 199.361C428.924 199.865 428.259 200.117 427.408 200.117C426.654 200.117 426.041 199.908 425.569 199.49C425.097 199.072 424.831 198.494 424.773 197.755H425.798C425.859 198.244 426.029 198.613 426.308 198.863C426.587 199.109 426.956 199.232 427.417 199.232C427.921 199.232 428.318 199.06 428.606 198.716C428.899 198.372 429.049 197.898 429.055 197.292C429.061 196.722 428.91 196.265 428.601 195.921C428.296 195.574 427.886 195.4 427.37 195.4C426.897 195.4 426.525 195.503 426.253 195.711L425.964 195.945L425.099 195.722Z" fill="#8C8C8C"/>
<path d="M481.087 192.394H478.345L478.264 199.999H477.145L477.225 192.394H474.489L474.499 191.469H481.097L481.087 192.394ZM483.245 194.427C483.732 193.838 484.36 193.543 485.129 193.543C486.469 193.543 487.137 194.298 487.133 195.81L487.088 199.999H486.004L486.049 195.804C486.05 195.347 485.948 195.009 485.743 194.791C485.542 194.572 485.225 194.463 484.791 194.463C484.44 194.463 484.13 194.556 483.863 194.744C483.595 194.931 483.385 195.177 483.234 195.482L483.186 199.999H482.102L482.197 191H483.281L483.245 194.427ZM492.625 199.999C492.564 199.874 492.516 199.652 492.48 199.331C491.971 199.855 491.366 200.117 490.667 200.117C490.042 200.117 489.53 199.941 489.132 199.589C488.737 199.234 488.542 198.785 488.548 198.242C488.555 197.581 488.811 197.07 489.314 196.707C489.822 196.339 490.531 196.156 491.441 196.156H492.496L492.501 195.658C492.505 195.279 492.395 194.978 492.171 194.755C491.947 194.529 491.614 194.416 491.173 194.416C490.786 194.416 490.461 194.513 490.197 194.709C489.933 194.904 489.8 195.14 489.797 195.418H488.707C488.71 195.101 488.825 194.796 489.051 194.504C489.28 194.207 489.588 193.972 489.972 193.8C490.361 193.629 490.786 193.543 491.246 193.543C491.977 193.543 492.547 193.726 492.957 194.093C493.368 194.457 493.577 194.959 493.586 195.599L493.555 198.517C493.549 199.099 493.618 199.562 493.763 199.906L493.762 199.999H492.625ZM490.835 199.173C491.175 199.173 491.498 199.085 491.805 198.91C492.111 198.734 492.334 198.505 492.474 198.224L492.488 196.923H491.638C490.31 196.923 489.642 197.312 489.634 198.089C489.63 198.429 489.741 198.695 489.965 198.886C490.19 199.078 490.48 199.173 490.835 199.173ZM491.924 191H493.236L491.648 192.722H490.775L491.924 191ZM496.331 193.66L496.358 194.457C496.849 193.847 497.485 193.543 498.266 193.543C499.606 193.543 500.274 194.298 500.269 195.81L500.225 199.999H499.141L499.185 195.804C499.186 195.347 499.084 195.009 498.88 194.791C498.679 194.572 498.362 194.463 497.928 194.463C497.577 194.463 497.267 194.556 496.999 194.744C496.732 194.931 496.522 195.177 496.37 195.482L496.323 199.999H495.239L495.306 193.66H496.331ZM501.636 196.777C501.646 195.789 501.883 195.004 502.347 194.422C502.81 193.836 503.418 193.543 504.172 193.543C504.946 193.543 505.546 193.816 505.974 194.363L506.034 193.66H507.024L506.959 199.847C506.95 200.667 506.699 201.314 506.206 201.786C505.717 202.259 505.062 202.495 504.241 202.495C503.784 202.495 503.338 202.398 502.903 202.202C502.467 202.007 502.136 201.739 501.909 201.4L502.479 200.749C502.937 201.323 503.503 201.611 504.175 201.611C504.702 201.611 505.114 201.462 505.41 201.165C505.71 200.868 505.863 200.45 505.868 199.911L505.874 199.367C505.435 199.867 504.841 200.117 504.091 200.117C503.349 200.117 502.75 199.818 502.296 199.22C501.845 198.622 501.625 197.808 501.636 196.777ZM502.725 196.9C502.717 197.615 502.857 198.177 503.146 198.587C503.435 198.994 503.843 199.197 504.37 199.197C505.054 199.197 505.559 198.886 505.886 198.265L505.917 195.371C505.591 194.765 505.096 194.463 504.432 194.463C503.905 194.463 503.49 194.668 503.189 195.078C502.888 195.488 502.733 196.095 502.725 196.9ZM515.808 191.463L515.798 192.383H515.599C514.755 192.398 514.08 192.648 513.575 193.133C513.07 193.617 512.774 194.298 512.686 195.177C513.141 194.662 513.757 194.404 514.534 194.404C515.276 194.404 515.865 194.666 516.301 195.189C516.741 195.712 516.957 196.388 516.948 197.216C516.938 198.095 516.691 198.798 516.205 199.326C515.723 199.853 515.079 200.117 514.274 200.117C513.458 200.117 512.799 199.804 512.298 199.179C511.797 198.55 511.552 197.742 511.562 196.753L511.566 196.337C511.583 194.767 511.93 193.568 512.607 192.74C513.287 191.908 514.29 191.482 515.614 191.463H515.808ZM514.343 195.306C513.972 195.306 513.629 195.418 513.314 195.64C512.999 195.863 512.779 196.142 512.655 196.478L512.651 196.876C512.643 197.58 512.795 198.146 513.107 198.576C513.419 199.005 513.811 199.22 514.284 199.22C514.772 199.22 515.157 199.04 515.438 198.681C515.723 198.322 515.869 197.851 515.875 197.269C515.881 196.683 515.744 196.21 515.462 195.851C515.185 195.488 514.812 195.306 514.343 195.306Z" fill="#8C8C8C"/>
<path d="M567.991 192.394H565.249L565.169 199.999H564.05L564.13 192.394H561.394L561.403 191.469H568.001L567.991 192.394ZM570.149 194.427C570.636 193.838 571.264 193.543 572.034 193.543C573.374 193.543 574.041 194.298 574.037 195.81L573.993 199.999H572.909L572.953 195.804C572.954 195.347 572.852 195.009 572.648 194.791C572.447 194.572 572.13 194.463 571.696 194.463C571.344 194.463 571.035 194.556 570.767 194.744C570.5 194.931 570.29 195.177 570.138 195.482L570.091 199.999H569.007L569.102 191H570.186L570.149 194.427ZM579.53 199.999C579.469 199.874 579.42 199.652 579.385 199.331C578.875 199.855 578.271 200.117 577.572 200.117C576.947 200.117 576.435 199.941 576.036 199.589C575.642 199.234 575.447 198.785 575.453 198.242C575.46 197.581 575.715 197.07 576.219 196.707C576.727 196.339 577.436 196.156 578.346 196.156H579.401L579.406 195.658C579.41 195.279 579.3 194.978 579.076 194.755C578.851 194.529 578.519 194.416 578.077 194.416C577.691 194.416 577.365 194.513 577.102 194.709C576.838 194.904 576.704 195.14 576.701 195.418H575.612C575.615 195.101 575.73 194.796 575.955 194.504C576.185 194.207 576.492 193.972 576.877 193.8C577.265 193.629 577.69 193.543 578.151 193.543C578.881 193.543 579.452 193.726 579.862 194.093C580.272 194.457 580.482 194.959 580.491 195.599L580.46 198.517C580.454 199.099 580.523 199.562 580.668 199.906L580.667 199.999H579.53ZM577.74 199.173C578.08 199.173 578.403 199.085 578.71 198.91C579.016 198.734 579.239 198.505 579.379 198.224L579.393 196.923H578.543C577.215 196.923 576.547 197.312 576.538 198.089C576.535 198.429 576.645 198.695 576.87 198.886C577.094 199.078 577.384 199.173 577.74 199.173ZM578.828 191H580.141L578.552 192.722H577.679L578.828 191ZM583.236 193.66L583.262 194.457C583.753 193.847 584.389 193.543 585.17 193.543C586.51 193.543 587.178 194.298 587.174 195.81L587.13 199.999H586.046L586.09 195.804C586.091 195.347 585.989 195.009 585.784 194.791C585.583 194.572 585.266 194.463 584.833 194.463C584.481 194.463 584.172 194.556 583.904 194.744C583.636 194.931 583.427 195.177 583.275 195.482L583.227 199.999H582.143L582.21 193.66H583.236ZM588.541 196.777C588.551 195.789 588.788 195.004 589.251 194.422C589.714 193.836 590.323 193.543 591.077 193.543C591.85 193.543 592.451 193.816 592.879 194.363L592.939 193.66H593.929L593.864 199.847C593.855 200.667 593.604 201.314 593.111 201.786C592.621 202.259 591.967 202.495 591.146 202.495C590.689 202.495 590.243 202.398 589.808 202.202C589.372 202.007 589.041 201.739 588.814 201.4L589.383 200.749C589.842 201.323 590.408 201.611 591.079 201.611C591.607 201.611 592.019 201.462 592.315 201.165C592.615 200.868 592.767 200.45 592.773 199.911L592.779 199.367C592.34 199.867 591.746 200.117 590.996 200.117C590.253 200.117 589.655 199.818 589.2 199.22C588.75 198.622 588.53 197.808 588.541 196.777ZM589.629 196.9C589.622 197.615 589.762 198.177 590.051 198.587C590.339 198.994 590.748 199.197 591.275 199.197C591.958 199.197 592.464 198.886 592.791 198.265L592.821 195.371C592.495 194.765 592.001 194.463 591.337 194.463C590.809 194.463 590.395 194.668 590.094 195.078C589.793 195.488 589.638 196.095 589.629 196.9ZM603.959 192.078L600.343 199.999H599.206L602.808 192.359H598.191L598.2 191.469H603.966L603.959 192.078Z" fill="#8C8C8C"/>
<path d="M654.9 192.394H652.158L652.077 199.999H650.958L651.038 192.394H648.302L648.312 191.469H654.91L654.9 192.394ZM657.058 194.427C657.545 193.838 658.173 193.543 658.942 193.543C660.282 193.543 660.95 194.298 660.946 195.81L660.901 199.999H659.817L659.862 195.804C659.863 195.347 659.761 195.009 659.556 194.791C659.355 194.572 659.038 194.463 658.604 194.463C658.253 194.463 657.943 194.556 657.676 194.744C657.408 194.931 657.198 195.177 657.047 195.482L656.999 199.999H655.915L656.01 191H657.094L657.058 194.427ZM666.438 199.999C666.377 199.874 666.329 199.652 666.293 199.331C665.784 199.855 665.179 200.117 664.48 200.117C663.855 200.117 663.343 199.941 662.945 199.589C662.55 199.234 662.355 198.785 662.361 198.242C662.368 197.581 662.624 197.07 663.127 196.707C663.635 196.339 664.344 196.156 665.254 196.156H666.309L666.314 195.658C666.318 195.279 666.208 194.978 665.984 194.755C665.76 194.529 665.427 194.416 664.986 194.416C664.599 194.416 664.274 194.513 664.01 194.709C663.746 194.904 663.613 195.14 663.61 195.418H662.52C662.523 195.101 662.638 194.796 662.864 194.504C663.093 194.207 663.401 193.972 663.785 193.8C664.174 193.629 664.598 193.543 665.059 193.543C665.79 193.543 666.36 193.726 666.77 194.093C667.181 194.457 667.39 194.959 667.399 195.599L667.368 198.517C667.362 199.099 667.431 199.562 667.576 199.906L667.575 199.999H666.438ZM664.648 199.173C664.988 199.173 665.311 199.085 665.618 198.91C665.924 198.734 666.147 198.505 666.287 198.224L666.301 196.923H665.451C664.123 196.923 663.455 197.312 663.447 198.089C663.443 198.429 663.554 198.695 663.778 198.886C664.003 199.078 664.293 199.173 664.648 199.173ZM665.737 191H667.049L665.461 192.722H664.588L665.737 191ZM670.144 193.66L670.171 194.457C670.662 193.847 671.298 193.543 672.079 193.543C673.419 193.543 674.087 194.298 674.082 195.81L674.038 199.999H672.954L672.998 195.804C672.999 195.347 672.897 195.009 672.693 194.791C672.492 194.572 672.175 194.463 671.741 194.463C671.39 194.463 671.08 194.556 670.812 194.744C670.545 194.931 670.335 195.177 670.183 195.482L670.136 199.999H669.052L669.119 193.66H670.144ZM675.449 196.777C675.459 195.789 675.696 195.004 676.159 194.422C676.623 193.836 677.231 193.543 677.985 193.543C678.759 193.543 679.359 193.816 679.787 194.363L679.847 193.66H680.837L680.772 199.847C680.763 200.667 680.512 201.314 680.019 201.786C679.53 202.259 678.875 202.495 678.054 202.495C677.597 202.495 677.151 202.398 676.716 202.202C676.28 202.007 675.949 201.739 675.722 201.4L676.292 200.749C676.75 201.323 677.316 201.611 677.988 201.611C678.515 201.611 678.927 201.462 679.223 201.165C679.523 200.868 679.676 200.45 679.681 199.911L679.687 199.367C679.248 199.867 678.654 200.117 677.904 200.117C677.162 200.117 676.563 199.818 676.109 199.22C675.658 198.622 675.438 197.808 675.449 196.777ZM676.538 196.9C676.53 197.615 676.67 198.177 676.959 198.587C677.248 198.994 677.656 199.197 678.183 199.197C678.867 199.197 679.372 198.886 679.699 198.265L679.73 195.371C679.404 194.765 678.909 194.463 678.245 194.463C677.718 194.463 677.303 194.668 677.002 195.078C676.701 195.488 676.546 196.095 676.538 196.9ZM690.517 193.695C690.512 194.121 690.395 194.5 690.165 194.832C689.939 195.164 689.633 195.423 689.248 195.611C689.692 195.802 690.04 196.082 690.294 196.449C690.552 196.816 690.679 197.232 690.674 197.697C690.666 198.435 690.41 199.023 689.905 199.46C689.404 199.898 688.748 200.117 687.935 200.117C687.115 200.117 686.459 199.898 685.967 199.46C685.48 199.019 685.24 198.431 685.248 197.697C685.253 197.236 685.382 196.82 685.636 196.449C685.894 196.078 686.246 195.796 686.694 195.605C686.317 195.418 686.021 195.158 685.806 194.826C685.59 194.494 685.485 194.117 685.489 193.695C685.497 192.976 685.734 192.406 686.199 191.984C686.664 191.562 687.274 191.351 688.028 191.351C688.778 191.351 689.381 191.562 689.838 191.984C690.298 192.406 690.524 192.976 690.517 193.695ZM689.59 197.673C689.595 197.197 689.447 196.808 689.145 196.507C688.848 196.207 688.455 196.056 687.966 196.056C687.478 196.056 687.084 196.205 686.784 196.501C686.488 196.798 686.337 197.189 686.332 197.673C686.327 198.158 686.465 198.538 686.748 198.816C687.034 199.093 687.433 199.232 687.944 199.232C688.452 199.232 688.852 199.093 689.144 198.816C689.436 198.535 689.585 198.154 689.59 197.673ZM688.019 192.242C687.593 192.242 687.246 192.375 686.977 192.64C686.713 192.902 686.578 193.259 686.573 193.713C686.569 194.146 686.694 194.498 686.949 194.767C687.208 195.033 687.554 195.166 687.988 195.166C688.421 195.166 688.768 195.033 689.029 194.767C689.293 194.498 689.428 194.146 689.433 193.713C689.437 193.279 689.306 192.926 689.04 192.652C688.773 192.379 688.433 192.242 688.019 192.242Z" fill="#8C8C8C"/>
<path d="M741.805 192.394H739.063L738.982 199.999H737.863L737.944 192.394H735.208L735.217 191.469H741.815L741.805 192.394ZM743.963 194.427C744.45 193.838 745.078 193.543 745.848 193.543C747.188 193.543 747.855 194.298 747.851 195.81L747.807 199.999H746.723L746.767 195.804C746.768 195.347 746.666 195.009 746.461 194.791C746.261 194.572 745.943 194.463 745.51 194.463C745.158 194.463 744.849 194.556 744.581 194.744C744.313 194.931 744.104 195.177 743.952 195.482L743.904 199.999H742.82L742.916 191H744L743.963 194.427ZM753.344 199.999C753.283 199.874 753.234 199.652 753.198 199.331C752.689 199.855 752.085 200.117 751.385 200.117C750.76 200.117 750.249 199.941 749.85 199.589C749.455 199.234 749.261 198.785 749.267 198.242C749.274 197.581 749.529 197.07 750.033 196.707C750.541 196.339 751.25 196.156 752.16 196.156H753.215L753.22 195.658C753.224 195.279 753.114 194.978 752.89 194.755C752.665 194.529 752.333 194.416 751.891 194.416C751.504 194.416 751.179 194.513 750.915 194.709C750.652 194.904 750.518 195.14 750.515 195.418H749.425C749.429 195.101 749.543 194.796 749.769 194.504C749.999 194.207 750.306 193.972 750.691 193.8C751.079 193.629 751.504 193.543 751.965 193.543C752.695 193.543 753.266 193.726 753.676 194.093C754.086 194.457 754.296 194.959 754.304 195.599L754.273 198.517C754.267 199.099 754.337 199.562 754.481 199.906L754.48 199.999H753.344ZM751.554 199.173C751.893 199.173 752.217 199.085 752.523 198.91C752.83 198.734 753.053 198.505 753.193 198.224L753.206 196.923H752.357C751.029 196.923 750.36 197.312 750.352 198.089C750.349 198.429 750.459 198.695 750.684 198.886C750.908 199.078 751.198 199.173 751.554 199.173ZM752.642 191H753.955L752.366 192.722H751.493L752.642 191ZM757.05 193.66L757.076 194.457C757.567 193.847 758.203 193.543 758.984 193.543C760.324 193.543 760.992 194.298 760.988 195.81L760.943 199.999H759.859L759.904 195.804C759.905 195.347 759.803 195.009 759.598 194.791C759.397 194.572 759.08 194.463 758.647 194.463C758.295 194.463 757.985 194.556 757.718 194.744C757.45 194.931 757.241 195.177 757.089 195.482L757.041 199.999H755.957L756.024 193.66H757.05ZM762.354 196.777C762.365 195.789 762.602 195.004 763.065 194.422C763.528 193.836 764.137 193.543 764.891 193.543C765.664 193.543 766.265 193.816 766.693 194.363L766.753 193.66H767.743L767.677 199.847C767.669 200.667 767.418 201.314 766.924 201.786C766.435 202.259 765.78 202.495 764.96 202.495C764.503 202.495 764.057 202.398 763.621 202.202C763.186 202.007 762.855 201.739 762.628 201.4L763.197 200.749C763.656 201.323 764.221 201.611 764.893 201.611C765.42 201.611 765.832 201.462 766.128 201.165C766.428 200.868 766.581 200.45 766.587 199.911L766.593 199.367C766.154 199.867 765.559 200.117 764.809 200.117C764.067 200.117 763.469 199.818 763.014 199.22C762.563 198.622 762.343 197.808 762.354 196.777ZM763.443 196.9C763.435 197.615 763.576 198.177 763.865 198.587C764.153 198.994 764.561 199.197 765.089 199.197C765.772 199.197 766.277 198.886 766.604 198.265L766.635 195.371C766.309 194.765 765.815 194.463 765.15 194.463C764.623 194.463 764.209 194.668 763.908 195.078C763.606 195.488 763.451 196.095 763.443 196.9ZM776.376 196.25C776.146 196.519 775.872 196.736 775.554 196.9C775.24 197.064 774.895 197.146 774.52 197.146C774.028 197.146 773.6 197.025 773.235 196.783C772.875 196.541 772.597 196.201 772.402 195.763C772.208 195.322 772.113 194.836 772.119 194.304C772.125 193.734 772.238 193.22 772.458 192.763C772.681 192.306 772.993 191.957 773.394 191.715C773.795 191.472 774.262 191.351 774.793 191.351C775.637 191.351 776.297 191.668 776.775 192.301C777.257 192.929 777.492 193.789 777.48 194.879L777.477 195.195C777.459 196.855 777.118 198.068 776.454 198.833C775.789 199.595 774.795 199.986 773.471 200.005H773.26L773.269 199.091H773.498C774.393 199.076 775.083 198.843 775.568 198.394C776.053 197.941 776.322 197.226 776.376 196.25ZM774.706 196.25C775.069 196.25 775.404 196.138 775.711 195.916C776.022 195.693 776.25 195.418 776.394 195.089L776.398 194.656C776.406 193.945 776.258 193.367 775.954 192.922C775.65 192.476 775.262 192.254 774.789 192.254C774.313 192.254 773.928 192.437 773.635 192.804C773.342 193.168 773.192 193.648 773.186 194.246C773.18 194.828 773.313 195.308 773.587 195.687C773.864 196.062 774.237 196.25 774.706 196.25Z" fill="#8C8C8C"/>
<path d="M829.843 192.394H827.101L827.02 199.999H825.901L825.981 192.394H823.245L823.255 191.469H829.853L829.843 192.394ZM832.001 194.427C832.488 193.838 833.116 193.543 833.885 193.543C835.225 193.543 835.893 194.298 835.889 195.81L835.844 199.999H834.76L834.805 195.804C834.806 195.347 834.704 195.009 834.499 194.791C834.298 194.572 833.981 194.463 833.547 194.463C833.196 194.463 832.886 194.556 832.619 194.744C832.351 194.931 832.141 195.177 831.99 195.482L831.942 199.999H830.858L830.953 191H832.037L832.001 194.427ZM841.381 199.999C841.32 199.874 841.272 199.652 841.236 199.331C840.727 199.855 840.122 200.117 839.423 200.117C838.798 200.117 838.286 199.941 837.888 199.589C837.493 199.234 837.298 198.785 837.304 198.242C837.311 197.581 837.567 197.07 838.071 196.707C838.578 196.339 839.287 196.156 840.197 196.156H841.252L841.257 195.658C841.261 195.279 841.151 194.978 840.927 194.755C840.703 194.529 840.37 194.416 839.929 194.416C839.542 194.416 839.217 194.513 838.953 194.709C838.689 194.904 838.556 195.14 838.553 195.418H837.463C837.466 195.101 837.581 194.796 837.807 194.504C838.036 194.207 838.344 193.972 838.728 193.8C839.117 193.629 839.542 193.543 840.002 193.543C840.733 193.543 841.303 193.726 841.713 194.093C842.124 194.457 842.333 194.959 842.342 195.599L842.311 198.517C842.305 199.099 842.374 199.562 842.519 199.906L842.518 199.999H841.381ZM839.591 199.173C839.931 199.173 840.254 199.085 840.561 198.91C840.867 198.734 841.09 198.505 841.23 198.224L841.244 196.923H840.394C839.066 196.923 838.398 197.312 838.39 198.089C838.386 198.429 838.497 198.695 838.721 198.886C838.946 199.078 839.236 199.173 839.591 199.173ZM840.68 191H841.992L840.404 192.722H839.531L840.68 191ZM845.087 193.66L845.114 194.457C845.605 193.847 846.241 193.543 847.022 193.543C848.362 193.543 849.03 194.298 849.025 195.81L848.981 199.999H847.897L847.941 195.804C847.942 195.347 847.84 195.009 847.636 194.791C847.435 194.572 847.118 194.463 846.684 194.463C846.333 194.463 846.023 194.556 845.755 194.744C845.488 194.931 845.278 195.177 845.126 195.482L845.079 199.999H843.995L844.062 193.66H845.087ZM850.392 196.777C850.403 195.789 850.639 195.004 851.103 194.422C851.566 193.836 852.174 193.543 852.928 193.543C853.702 193.543 854.302 193.816 854.73 194.363L854.79 193.66H855.781L855.715 199.847C855.706 200.667 855.455 201.314 854.962 201.786C854.473 202.259 853.818 202.495 852.997 202.495C852.54 202.495 852.094 202.398 851.659 202.202C851.223 202.007 850.892 201.739 850.665 201.4L851.235 200.749C851.693 201.323 852.259 201.611 852.931 201.611C853.458 201.611 853.87 201.462 854.166 201.165C854.466 200.868 854.619 200.45 854.624 199.911L854.63 199.367C854.191 199.867 853.597 200.117 852.847 200.117C852.105 200.117 851.506 199.818 851.052 199.22C850.601 198.622 850.381 197.808 850.392 196.777ZM851.481 196.9C851.473 197.615 851.613 198.177 851.902 198.587C852.191 198.994 852.599 199.197 853.126 199.197C853.81 199.197 854.315 198.886 854.642 198.265L854.673 195.371C854.347 194.765 853.852 194.463 853.188 194.463C852.661 194.463 852.246 194.668 851.945 195.078C851.644 195.488 851.489 196.095 851.481 196.9ZM863.782 199.999H862.692L862.768 192.775L860.574 193.578L860.585 192.593L863.703 191.428H863.873L863.782 199.999ZM872.346 196.361C872.332 197.63 872.105 198.574 871.665 199.191C871.225 199.808 870.544 200.117 869.622 200.117C868.712 200.117 868.041 199.816 867.61 199.214C867.179 198.609 866.962 197.706 866.959 196.507L866.975 195.06C866.988 193.806 867.215 192.875 867.655 192.265C868.095 191.656 868.778 191.351 869.703 191.351C870.621 191.351 871.294 191.646 871.721 192.236C872.149 192.822 872.362 193.728 872.361 194.955L872.346 196.361ZM871.277 194.879C871.287 193.961 871.165 193.293 870.912 192.875C870.659 192.453 870.253 192.242 869.694 192.242C869.139 192.242 868.733 192.451 868.474 192.869C868.216 193.287 868.078 193.929 868.061 194.796L868.043 196.531C868.033 197.453 868.159 198.134 868.42 198.576C868.685 199.013 869.089 199.232 869.632 199.232C870.167 199.232 870.565 199.025 870.828 198.611C871.094 198.197 871.237 197.544 871.259 196.654L871.277 194.879Z" fill="#8C8C8C"/>
<path d="M923.361 192.394H920.618L920.538 199.999H919.419L919.499 192.394H916.763L916.773 191.469H923.37L923.361 192.394ZM925.519 194.427C926.005 193.838 926.634 193.543 927.403 193.543C928.743 193.543 929.411 194.298 929.406 195.81L929.362 199.999H928.278L928.323 195.804C928.323 195.347 928.222 195.009 928.017 194.791C927.816 194.572 927.499 194.463 927.065 194.463C926.714 194.463 926.404 194.556 926.136 194.744C925.869 194.931 925.659 195.177 925.508 195.482L925.46 199.999H924.376L924.471 191H925.555L925.519 194.427ZM934.899 199.999C934.838 199.874 934.79 199.652 934.754 199.331C934.244 199.855 933.64 200.117 932.941 200.117C932.316 200.117 931.804 199.941 931.405 199.589C931.011 199.234 930.816 198.785 930.822 198.242C930.829 197.581 931.084 197.07 931.588 196.707C932.096 196.339 932.805 196.156 933.715 196.156H934.77L934.775 195.658C934.779 195.279 934.669 194.978 934.445 194.755C934.221 194.529 933.888 194.416 933.447 194.416C933.06 194.416 932.735 194.513 932.471 194.709C932.207 194.904 932.074 195.14 932.071 195.418H930.981C930.984 195.101 931.099 194.796 931.325 194.504C931.554 194.207 931.861 193.972 932.246 193.8C932.635 193.629 933.059 193.543 933.52 193.543C934.251 193.543 934.821 193.726 935.231 194.093C935.641 194.457 935.851 194.959 935.86 195.599L935.829 198.517C935.823 199.099 935.892 199.562 936.037 199.906L936.036 199.999H934.899ZM933.109 199.173C933.449 199.173 933.772 199.085 934.079 198.91C934.385 198.734 934.608 198.505 934.748 198.224L934.762 196.923H933.912C932.584 196.923 931.916 197.312 931.908 198.089C931.904 198.429 932.015 198.695 932.239 198.886C932.464 199.078 932.754 199.173 933.109 199.173ZM934.198 191H935.51L933.922 192.722H933.049L934.198 191ZM938.605 193.66L938.632 194.457C939.123 193.847 939.759 193.543 940.54 193.543C941.88 193.543 942.547 194.298 942.543 195.81L942.499 199.999H941.415L941.459 195.804C941.46 195.347 941.358 195.009 941.154 194.791C940.953 194.572 940.636 194.463 940.202 194.463C939.85 194.463 939.541 194.556 939.273 194.744C939.006 194.931 938.796 195.177 938.644 195.482L938.596 199.999H937.512L937.58 193.66H938.605ZM943.91 196.777C943.92 195.789 944.157 195.004 944.62 194.422C945.084 193.836 945.692 193.543 946.446 193.543C947.22 193.543 947.82 193.816 948.248 194.363L948.308 193.66H949.298L949.233 199.847C949.224 200.667 948.973 201.314 948.48 201.786C947.99 202.259 947.336 202.495 946.515 202.495C946.058 202.495 945.612 202.398 945.177 202.202C944.741 202.007 944.41 201.739 944.183 201.4L944.752 200.749C945.211 201.323 945.777 201.611 946.448 201.611C946.976 201.611 947.387 201.462 947.684 201.165C947.984 200.868 948.137 200.45 948.142 199.911L948.148 199.367C947.709 199.867 947.115 200.117 946.365 200.117C945.622 200.117 945.024 199.818 944.569 199.22C944.119 198.622 943.899 197.808 943.91 196.777ZM944.998 196.9C944.991 197.615 945.131 198.177 945.42 198.587C945.709 198.994 946.117 199.197 946.644 199.197C947.328 199.197 947.833 198.886 948.16 198.265L948.19 195.371C947.865 194.765 947.37 194.463 946.706 194.463C946.179 194.463 945.764 194.668 945.463 195.078C945.162 195.488 945.007 196.095 944.998 196.9ZM957.299 199.999H956.21L956.286 192.775L954.092 193.578L954.103 192.593L957.22 191.428H957.39L957.299 199.999ZM964.038 199.999H962.948L963.025 192.775L960.83 193.578L960.841 192.593L963.959 191.428H964.129L964.038 199.999Z" fill="#8C8C8C"/>
<path d="M1009.49 192.394H1006.75L1006.67 199.999H1005.55L1005.63 192.394H1002.89L1002.9 191.469H1009.5L1009.49 192.394ZM1011.65 194.427C1012.14 193.838 1012.77 193.543 1013.53 193.543C1014.87 193.543 1015.54 194.298 1015.54 195.81L1015.49 199.999H1014.41L1014.45 195.804C1014.46 195.347 1014.35 195.009 1014.15 194.791C1013.95 194.572 1013.63 194.463 1013.2 194.463C1012.85 194.463 1012.54 194.556 1012.27 194.744C1012 194.931 1011.79 195.177 1011.64 195.482L1011.59 199.999H1010.51L1010.6 191H1011.69L1011.65 194.427ZM1021.03 199.999C1020.97 199.874 1020.92 199.652 1020.89 199.331C1020.38 199.855 1019.77 200.117 1019.07 200.117C1018.45 200.117 1017.94 199.941 1017.54 199.589C1017.14 199.234 1016.95 198.785 1016.95 198.242C1016.96 197.582 1017.22 197.07 1017.72 196.707C1018.23 196.339 1018.94 196.156 1019.85 196.156H1020.9L1020.91 195.658C1020.91 195.279 1020.8 194.978 1020.58 194.755C1020.35 194.529 1020.02 194.416 1019.58 194.416C1019.19 194.416 1018.87 194.513 1018.6 194.709C1018.34 194.904 1018.21 195.14 1018.2 195.418H1017.11C1017.12 195.101 1017.23 194.796 1017.46 194.504C1017.69 194.207 1017.99 193.972 1018.38 193.8C1018.77 193.629 1019.19 193.543 1019.65 193.543C1020.38 193.543 1020.95 193.726 1021.36 194.093C1021.77 194.457 1021.98 194.959 1021.99 195.599L1021.96 198.517C1021.96 199.099 1022.02 199.562 1022.17 199.906L1022.17 199.999H1021.03ZM1019.24 199.173C1019.58 199.173 1019.9 199.085 1020.21 198.91C1020.52 198.734 1020.74 198.505 1020.88 198.224L1020.89 196.923H1020.04C1018.72 196.923 1018.05 197.312 1018.04 198.089C1018.04 198.429 1018.15 198.695 1018.37 198.886C1018.6 199.078 1018.89 199.173 1019.24 199.173ZM1020.33 191H1021.64L1020.05 192.722H1019.18L1020.33 191ZM1024.74 193.66L1024.76 194.457C1025.25 193.847 1025.89 193.543 1026.67 193.543C1028.01 193.543 1028.68 194.298 1028.68 195.81L1028.63 199.999H1027.55L1027.59 195.804C1027.59 195.347 1027.49 195.009 1027.29 194.791C1027.08 194.572 1026.77 194.463 1026.33 194.463C1025.98 194.463 1025.67 194.556 1025.41 194.744C1025.14 194.931 1024.93 195.177 1024.78 195.482L1024.73 199.999H1023.64L1023.71 193.66H1024.74ZM1030.04 196.777C1030.05 195.789 1030.29 195.004 1030.75 194.422C1031.22 193.836 1031.82 193.543 1032.58 193.543C1033.35 193.543 1033.95 193.816 1034.38 194.363L1034.44 193.66H1035.43L1035.37 199.847C1035.36 200.667 1035.11 201.314 1034.61 201.786C1034.12 202.259 1033.47 202.495 1032.65 202.495C1032.19 202.495 1031.74 202.398 1031.31 202.202C1030.87 202.007 1030.54 201.739 1030.32 201.4L1030.88 200.749C1031.34 201.323 1031.91 201.611 1032.58 201.611C1033.11 201.611 1033.52 201.462 1033.82 201.165C1034.12 200.868 1034.27 200.45 1034.27 199.911L1034.28 199.367C1033.84 199.867 1033.25 200.117 1032.5 200.117C1031.75 200.117 1031.16 199.818 1030.7 199.22C1030.25 198.622 1030.03 197.808 1030.04 196.777ZM1031.13 196.9C1031.12 197.615 1031.26 198.177 1031.55 198.587C1031.84 198.994 1032.25 199.197 1032.78 199.197C1033.46 199.197 1033.97 198.886 1034.29 198.265L1034.32 195.371C1034 194.765 1033.5 194.463 1032.84 194.463C1032.31 194.463 1031.9 194.668 1031.6 195.078C1031.29 195.488 1031.14 196.095 1031.13 196.9ZM1043.43 199.999H1042.34L1042.42 192.775L1040.22 193.578L1040.23 192.593L1043.35 191.428H1043.52L1043.43 199.999ZM1052.2 199.999H1046.61L1046.62 199.22L1049.6 195.939C1050.05 195.443 1050.35 195.041 1050.52 194.732C1050.69 194.42 1050.78 194.097 1050.78 193.765C1050.79 193.32 1050.65 192.955 1050.39 192.67C1050.12 192.385 1049.76 192.242 1049.31 192.242C1048.78 192.242 1048.35 192.396 1048.05 192.705C1047.75 193.009 1047.6 193.435 1047.59 193.982H1046.51C1046.52 193.197 1046.77 192.562 1047.28 192.078C1047.8 191.594 1048.48 191.351 1049.32 191.351C1050.12 191.351 1050.74 191.56 1051.2 191.978C1051.65 192.392 1051.88 192.945 1051.87 193.636C1051.86 194.476 1051.32 195.476 1050.23 196.636L1047.92 199.115H1052.21L1052.2 199.999Z" fill="#8C8C8C"/>
<rect x="54.6261" y="113" width="15.1141" height="63" fill="#91D5FF"/>
<path d="M59.7706 98.6953C59.7706 99.1211 59.6573 99.5 59.4308 99.832C59.2081 100.164 58.9054 100.424 58.5226 100.611C58.9679 100.803 59.3195 101.082 59.5773 101.449C59.839 101.816 59.9698 102.232 59.9698 102.697C59.9698 103.436 59.7198 104.023 59.2198 104.461C58.7238 104.898 58.0695 105.117 57.257 105.117C56.4366 105.117 55.7784 104.898 55.2823 104.461C54.7902 104.02 54.5441 103.432 54.5441 102.697C54.5441 102.236 54.6691 101.82 54.9191 101.449C55.173 101.078 55.5226 100.797 55.9679 100.605C55.589 100.418 55.2902 100.158 55.0714 99.8262C54.8527 99.4941 54.7433 99.1172 54.7433 98.6953C54.7433 97.9766 54.9738 97.4062 55.4347 96.9844C55.8956 96.5625 56.5031 96.3516 57.257 96.3516C58.007 96.3516 58.6124 96.5625 59.0734 96.9844C59.5382 97.4062 59.7706 97.9766 59.7706 98.6953ZM58.8859 102.674C58.8859 102.197 58.7335 101.809 58.4288 101.508C58.1281 101.207 57.7335 101.057 57.2452 101.057C56.757 101.057 56.3644 101.205 56.0675 101.502C55.7745 101.799 55.6281 102.189 55.6281 102.674C55.6281 103.158 55.7706 103.539 56.0558 103.816C56.3448 104.094 56.7452 104.232 57.257 104.232C57.7648 104.232 58.1632 104.094 58.4523 103.816C58.7413 103.535 58.8859 103.154 58.8859 102.674ZM57.257 97.2422C56.8312 97.2422 56.4855 97.375 56.2198 97.6406C55.9581 97.9023 55.8273 98.2598 55.8273 98.7129C55.8273 99.1465 55.9562 99.498 56.214 99.7676C56.4757 100.033 56.8234 100.166 57.257 100.166C57.6906 100.166 58.0363 100.033 58.2941 99.7676C58.5558 99.498 58.6866 99.1465 58.6866 98.7129C58.6866 98.2793 58.5519 97.9258 58.2823 97.6523C58.0128 97.3789 57.671 97.2422 57.257 97.2422ZM66.6847 101.361C66.6847 102.631 66.4679 103.574 66.0343 104.191C65.6007 104.809 64.923 105.117 64.0011 105.117C63.0909 105.117 62.4171 104.816 61.9796 104.215C61.5421 103.609 61.3156 102.707 61.2999 101.508V100.061C61.2999 98.8066 61.5167 97.875 61.9503 97.2656C62.3839 96.6562 63.0636 96.3516 63.9894 96.3516C64.9073 96.3516 65.5831 96.6465 66.0167 97.2363C66.4503 97.8223 66.673 98.7285 66.6847 99.9551V101.361ZM65.6007 99.8789C65.6007 98.9609 65.4718 98.293 65.214 97.875C64.9562 97.4531 64.548 97.2422 63.9894 97.2422C63.4347 97.2422 63.0304 97.4512 62.7765 97.8691C62.5226 98.2871 62.3917 98.9297 62.3839 99.7969V101.531C62.3839 102.453 62.5167 103.135 62.7823 103.576C63.0519 104.014 63.4581 104.232 64.0011 104.232C64.5363 104.232 64.9327 104.025 65.1906 103.611C65.4523 103.197 65.589 102.545 65.6007 101.654V99.8789Z" fill="#262626"/>
<rect x="141.534" y="74" width="15.1141" height="102" fill="#69C0FF"/>
<path d="M147.622 60.6953C147.622 61.1211 147.508 61.5 147.282 61.832C147.059 62.1641 146.756 62.4238 146.374 62.6113C146.819 62.8027 147.17 63.082 147.428 63.4492C147.69 63.8164 147.821 64.2324 147.821 64.6973C147.821 65.4355 147.571 66.0234 147.071 66.4609C146.575 66.8984 145.92 67.1172 145.108 67.1172C144.288 67.1172 143.629 66.8984 143.133 66.4609C142.641 66.0195 142.395 65.4316 142.395 64.6973C142.395 64.2363 142.52 63.8203 142.77 63.4492C143.024 63.0781 143.374 62.7969 143.819 62.6055C143.44 62.418 143.141 62.1582 142.922 61.8262C142.704 61.4941 142.594 61.1172 142.594 60.6953C142.594 59.9766 142.825 59.4062 143.286 58.9844C143.747 58.5625 144.354 58.3516 145.108 58.3516C145.858 58.3516 146.463 58.5625 146.924 58.9844C147.389 59.4062 147.622 59.9766 147.622 60.6953ZM146.737 64.6738C146.737 64.1973 146.584 63.8086 146.28 63.5078C145.979 63.207 145.584 63.0566 145.096 63.0566C144.608 63.0566 144.215 63.2051 143.918 63.502C143.625 63.7988 143.479 64.1895 143.479 64.6738C143.479 65.1582 143.622 65.5391 143.907 65.8164C144.196 66.0938 144.596 66.2324 145.108 66.2324C145.616 66.2324 146.014 66.0938 146.303 65.8164C146.592 65.5352 146.737 65.1543 146.737 64.6738ZM145.108 59.2422C144.682 59.2422 144.336 59.375 144.071 59.6406C143.809 59.9023 143.678 60.2598 143.678 60.7129C143.678 61.1465 143.807 61.498 144.065 61.7676C144.327 62.0332 144.674 62.166 145.108 62.166C145.542 62.166 145.887 62.0332 146.145 61.7676C146.407 61.498 146.538 61.1465 146.538 60.7129C146.538 60.2793 146.403 59.9258 146.133 59.6523C145.864 59.3789 145.522 59.2422 145.108 59.2422ZM154.536 63.3613C154.536 64.6309 154.319 65.5742 153.885 66.1914C153.452 66.8086 152.774 67.1172 151.852 67.1172C150.942 67.1172 150.268 66.8164 149.831 66.2148C149.393 65.6094 149.167 64.707 149.151 63.5078V62.0605C149.151 60.8066 149.368 59.875 149.801 59.2656C150.235 58.6562 150.915 58.3516 151.84 58.3516C152.758 58.3516 153.434 58.6465 153.868 59.2363C154.301 59.8223 154.524 60.7285 154.536 61.9551V63.3613ZM153.452 61.8789C153.452 60.9609 153.323 60.293 153.065 59.875C152.807 59.4531 152.399 59.2422 151.84 59.2422C151.286 59.2422 150.881 59.4512 150.627 59.8691C150.374 60.2871 150.243 60.9297 150.235 61.7969V63.5312C150.235 64.4531 150.368 65.1348 150.633 65.5762C150.903 66.0137 151.309 66.2324 151.852 66.2324C152.387 66.2324 152.784 66.0254 153.042 65.6113C153.303 65.1973 153.44 64.5449 153.452 63.6543V61.8789Z" fill="#262626"/>
<rect x="228.439" y="147" width="15.1141" height="29" fill="#BAE7FF"/>
<path d="M230.933 130.207H231.747C232.259 130.199 232.661 130.064 232.954 129.803C233.247 129.541 233.394 129.188 233.394 128.742C233.394 127.742 232.896 127.242 231.899 127.242C231.431 127.242 231.056 127.377 230.774 127.646C230.497 127.912 230.358 128.266 230.358 128.707H229.274C229.274 128.031 229.521 127.471 230.013 127.025C230.509 126.576 231.138 126.352 231.899 126.352C232.704 126.352 233.335 126.564 233.792 126.99C234.249 127.416 234.478 128.008 234.478 128.766C234.478 129.137 234.356 129.496 234.114 129.844C233.876 130.191 233.55 130.451 233.136 130.623C233.604 130.771 233.966 131.018 234.22 131.361C234.478 131.705 234.606 132.125 234.606 132.621C234.606 133.387 234.356 133.994 233.856 134.443C233.356 134.893 232.706 135.117 231.905 135.117C231.104 135.117 230.452 134.9 229.948 134.467C229.448 134.033 229.198 133.461 229.198 132.75H230.288C230.288 133.199 230.435 133.559 230.728 133.828C231.021 134.098 231.413 134.232 231.905 134.232C232.429 134.232 232.829 134.096 233.106 133.822C233.384 133.549 233.522 133.156 233.522 132.645C233.522 132.148 233.37 131.768 233.065 131.502C232.761 131.236 232.321 131.1 231.747 131.092H230.933V130.207ZM236.593 130.723L237.026 126.469H241.397V127.471H237.946L237.688 129.797C238.106 129.551 238.581 129.428 239.112 129.428C239.89 129.428 240.507 129.686 240.964 130.201C241.421 130.713 241.649 131.406 241.649 132.281C241.649 133.16 241.411 133.854 240.935 134.361C240.462 134.865 239.8 135.117 238.948 135.117C238.194 135.117 237.579 134.908 237.103 134.49C236.626 134.072 236.354 133.494 236.288 132.756H237.313C237.38 133.244 237.554 133.613 237.835 133.863C238.116 134.109 238.487 134.232 238.948 134.232C239.452 134.232 239.847 134.061 240.132 133.717C240.421 133.373 240.565 132.898 240.565 132.293C240.565 131.723 240.409 131.266 240.097 130.922C239.788 130.574 239.376 130.4 238.86 130.4C238.388 130.4 238.017 130.504 237.747 130.711L237.46 130.945L236.593 130.723Z" fill="#262626"/>
<rect x="315.346" y="45" width="15.1141" height="131" fill="#1890FF"/>
<path d="M317.121 36H316.031V28.7754L313.846 29.5781V28.5938L316.951 27.4277H317.121V36ZM324.551 27.4629V28.3828H324.352C323.508 28.3984 322.836 28.6484 322.336 29.1328C321.836 29.6172 321.547 30.2988 321.469 31.1777C321.918 30.6621 322.531 30.4043 323.309 30.4043C324.051 30.4043 324.643 30.666 325.084 31.1895C325.529 31.7129 325.752 32.3887 325.752 33.2168C325.752 34.0957 325.512 34.7988 325.031 35.3262C324.555 35.8535 323.914 36.1172 323.109 36.1172C322.293 36.1172 321.631 35.8047 321.123 35.1797C320.615 34.5508 320.361 33.7422 320.361 32.7539V32.3379C320.361 30.7676 320.695 29.5684 321.363 28.7402C322.035 27.9082 323.033 27.4824 324.357 27.4629H324.551ZM323.127 31.3066C322.756 31.3066 322.414 31.418 322.102 31.6406C321.789 31.8633 321.572 32.1426 321.451 32.4785V32.877C321.451 33.5801 321.609 34.1465 321.926 34.5762C322.242 35.0059 322.637 35.2207 323.109 35.2207C323.598 35.2207 323.98 35.041 324.258 34.6816C324.539 34.3223 324.68 33.8516 324.68 33.2695C324.68 32.6836 324.537 32.2109 324.252 31.8516C323.971 31.4883 323.596 31.3066 323.127 31.3066ZM332.385 32.3613C332.385 33.6309 332.168 34.5742 331.734 35.1914C331.301 35.8086 330.623 36.1172 329.701 36.1172C328.791 36.1172 328.117 35.8164 327.68 35.2148C327.242 34.6094 327.016 33.707 327 32.5078V31.0605C327 29.8066 327.217 28.875 327.65 28.2656C328.084 27.6562 328.764 27.3516 329.689 27.3516C330.607 27.3516 331.283 27.6465 331.717 28.2363C332.15 28.8223 332.373 29.7285 332.385 30.9551V32.3613ZM331.301 30.8789C331.301 29.9609 331.172 29.293 330.914 28.875C330.656 28.4531 330.248 28.2422 329.689 28.2422C329.135 28.2422 328.73 28.4512 328.477 28.8691C328.223 29.2871 328.092 29.9297 328.084 30.7969V32.5312C328.084 33.4531 328.217 34.1348 328.482 34.5762C328.752 35.0137 329.158 35.2324 329.701 35.2324C330.236 35.2324 330.633 35.0254 330.891 34.6113C331.152 34.1973 331.289 33.5449 331.301 32.6543V30.8789Z" fill="#262626"/>
<rect x="402.253" y="66" width="15.1141" height="110" fill="#69C0FF"/>
<path d="M404.027 57H402.937V49.7754L400.751 50.5781V49.5938L403.857 48.4277H404.027V57ZM411.779 54.1348H412.962V55.0195H411.779V57H410.689V55.0195H406.804V54.3809L410.624 48.4688H411.779V54.1348ZM408.034 54.1348H410.689V49.9512L410.56 50.1855L408.034 54.1348ZM419.29 53.3613C419.29 54.6309 419.073 55.5742 418.64 56.1914C418.206 56.8086 417.529 57.1172 416.607 57.1172C415.697 57.1172 415.023 56.8164 414.585 56.2148C414.148 55.6094 413.921 54.707 413.906 53.5078V52.0605C413.906 50.8066 414.122 49.875 414.556 49.2656C414.99 48.6562 415.669 48.3516 416.595 48.3516C417.513 48.3516 418.189 48.6465 418.622 49.2363C419.056 49.8223 419.279 50.7285 419.29 51.9551V53.3613ZM418.206 51.8789C418.206 50.9609 418.077 50.293 417.82 49.875C417.562 49.4531 417.154 49.2422 416.595 49.2422C416.04 49.2422 415.636 49.4512 415.382 49.8691C415.128 50.2871 414.997 50.9297 414.99 51.7969V53.5312C414.99 54.4531 415.122 55.1348 415.388 55.5762C415.657 56.0137 416.064 56.2324 416.607 56.2324C417.142 56.2324 417.538 56.0254 417.796 55.6113C418.058 55.1973 418.195 54.5449 418.206 53.6543V51.8789Z" fill="#262626"/>
<rect x="489.157" y="142" width="15.1141" height="34" fill="#BAE7FF"/>
<path d="M494.65 128.135H495.833V129.02H494.65V131H493.56V129.02H489.675V128.381L493.495 122.469H494.65V128.135ZM490.906 128.135H493.56V123.951L493.431 124.186L490.906 128.135ZM502.161 127.361C502.161 128.631 501.945 129.574 501.511 130.191C501.077 130.809 500.4 131.117 499.478 131.117C498.568 131.117 497.894 130.816 497.456 130.215C497.019 129.609 496.792 128.707 496.777 127.508V126.061C496.777 124.807 496.993 123.875 497.427 123.266C497.861 122.656 498.54 122.352 499.466 122.352C500.384 122.352 501.06 122.646 501.493 123.236C501.927 123.822 502.15 124.729 502.161 125.955V127.361ZM501.077 125.879C501.077 124.961 500.948 124.293 500.691 123.875C500.433 123.453 500.025 123.242 499.466 123.242C498.911 123.242 498.507 123.451 498.253 123.869C497.999 124.287 497.868 124.93 497.861 125.797V127.531C497.861 128.453 497.993 129.135 498.259 129.576C498.529 130.014 498.935 130.232 499.478 130.232C500.013 130.232 500.409 130.025 500.667 129.611C500.929 129.197 501.066 128.545 501.077 127.654V125.879Z" fill="#262626"/>
<rect x="576.064" y="36" width="15.1141" height="140" fill="#1890FF"/>
<path d="M577.84 29H576.75V21.7754L574.564 22.5781V21.5938L577.67 20.4277H577.84V29ZM586.189 22.6953C586.189 23.1211 586.076 23.5 585.849 23.832C585.627 24.1641 585.324 24.4238 584.941 24.6113C585.386 24.8027 585.738 25.082 585.996 25.4492C586.258 25.8164 586.388 26.2324 586.388 26.6973C586.388 27.4355 586.138 28.0234 585.638 28.4609C585.142 28.8984 584.488 29.1172 583.676 29.1172C582.855 29.1172 582.197 28.8984 581.701 28.4609C581.209 28.0195 580.963 27.4316 580.963 26.6973C580.963 26.2363 581.088 25.8203 581.338 25.4492C581.592 25.0781 581.941 24.7969 582.386 24.6055C582.008 24.418 581.709 24.1582 581.49 23.8262C581.271 23.4941 581.162 23.1172 581.162 22.6953C581.162 21.9766 581.392 21.4062 581.853 20.9844C582.314 20.5625 582.922 20.3516 583.676 20.3516C584.426 20.3516 585.031 20.5625 585.492 20.9844C585.957 21.4062 586.189 21.9766 586.189 22.6953ZM585.304 26.6738C585.304 26.1973 585.152 25.8086 584.847 25.5078C584.547 25.207 584.152 25.0566 583.664 25.0566C583.176 25.0566 582.783 25.2051 582.486 25.502C582.193 25.7988 582.047 26.1895 582.047 26.6738C582.047 27.1582 582.189 27.5391 582.474 27.8164C582.763 28.0938 583.164 28.2324 583.676 28.2324C584.183 28.2324 584.582 28.0938 584.871 27.8164C585.16 27.5352 585.304 27.1543 585.304 26.6738ZM583.676 21.2422C583.25 21.2422 582.904 21.375 582.638 21.6406C582.377 21.9023 582.246 22.2598 582.246 22.7129C582.246 23.1465 582.375 23.498 582.633 23.7676C582.894 24.0332 583.242 24.166 583.676 24.166C584.109 24.166 584.455 24.0332 584.713 23.7676C584.974 23.498 585.105 23.1465 585.105 22.7129C585.105 22.2793 584.97 21.9258 584.701 21.6523C584.431 21.3789 584.09 21.2422 583.676 21.2422ZM593.103 25.3613C593.103 26.6309 592.886 27.5742 592.453 28.1914C592.019 28.8086 591.342 29.1172 590.42 29.1172C589.51 29.1172 588.836 28.8164 588.398 28.2148C587.961 27.6094 587.734 26.707 587.719 25.5078V24.0605C587.719 22.8066 587.935 21.875 588.369 21.2656C588.802 20.6562 589.482 20.3516 590.408 20.3516C591.326 20.3516 592.002 20.6465 592.435 21.2363C592.869 21.8223 593.092 22.7285 593.103 23.9551V25.3613ZM592.019 23.8789C592.019 22.9609 591.89 22.293 591.633 21.875C591.375 21.4531 590.967 21.2422 590.408 21.2422C589.853 21.2422 589.449 21.4512 589.195 21.8691C588.941 22.2871 588.81 22.9297 588.802 23.7969V25.5312C588.802 26.4531 588.935 27.1348 589.201 27.5762C589.47 28.0137 589.877 28.2324 590.42 28.2324C590.955 28.2324 591.351 28.0254 591.609 27.6113C591.871 27.1973 592.008 26.5449 592.019 25.6543V23.8789Z" fill="#262626"/>
<rect x="662.97" y="132" width="15.1141" height="44" fill="#BAE7FF"/>
<path d="M668.14 111.463V112.383H667.941C667.097 112.398 666.426 112.648 665.926 113.133C665.426 113.617 665.136 114.299 665.058 115.178C665.508 114.662 666.121 114.404 666.898 114.404C667.64 114.404 668.232 114.666 668.674 115.189C669.119 115.713 669.342 116.389 669.342 117.217C669.342 118.096 669.101 118.799 668.621 119.326C668.144 119.854 667.504 120.117 666.699 120.117C665.883 120.117 665.22 119.805 664.713 119.18C664.205 118.551 663.951 117.742 663.951 116.754V116.338C663.951 114.768 664.285 113.568 664.953 112.74C665.625 111.908 666.623 111.482 667.947 111.463H668.14ZM666.717 115.307C666.345 115.307 666.004 115.418 665.691 115.641C665.379 115.863 665.162 116.143 665.041 116.479V116.877C665.041 117.58 665.199 118.146 665.515 118.576C665.832 119.006 666.226 119.221 666.699 119.221C667.187 119.221 667.57 119.041 667.847 118.682C668.129 118.322 668.269 117.852 668.269 117.27C668.269 116.684 668.127 116.211 667.842 115.852C667.56 115.488 667.185 115.307 666.717 115.307ZM675.974 116.361C675.974 117.631 675.758 118.574 675.324 119.191C674.89 119.809 674.213 120.117 673.291 120.117C672.381 120.117 671.707 119.816 671.269 119.215C670.832 118.609 670.605 117.707 670.59 116.508V115.061C670.59 113.807 670.806 112.875 671.24 112.266C671.674 111.656 672.353 111.352 673.279 111.352C674.197 111.352 674.873 111.646 675.306 112.236C675.74 112.822 675.963 113.729 675.974 114.955V116.361ZM674.89 114.879C674.89 113.961 674.761 113.293 674.504 112.875C674.246 112.453 673.838 112.242 673.279 112.242C672.724 112.242 672.32 112.451 672.066 112.869C671.812 113.287 671.681 113.93 671.674 114.797V116.531C671.674 117.453 671.806 118.135 672.072 118.576C672.342 119.014 672.748 119.232 673.291 119.232C673.826 119.232 674.222 119.025 674.48 118.611C674.742 118.197 674.879 117.545 674.89 116.654V114.879Z" fill="#262626"/>
<rect x="749.877" y="25" width="15.1141" height="151" fill="#1890FF"/>
<path d="M751.653 16H750.563V8.77539L748.377 9.57812V8.59375L751.483 7.42773H751.653V16ZM758.983 12.25C758.756 12.5195 758.485 12.7363 758.168 12.9004C757.856 13.0645 757.512 13.1465 757.137 13.1465C756.645 13.1465 756.215 13.0254 755.848 12.7832C755.485 12.541 755.203 12.2012 755.004 11.7637C754.805 11.3223 754.705 10.8359 754.705 10.3047C754.705 9.73438 754.813 9.2207 755.028 8.76367C755.246 8.30664 755.555 7.95703 755.953 7.71484C756.352 7.47266 756.817 7.35156 757.348 7.35156C758.192 7.35156 758.856 7.66797 759.34 8.30078C759.828 8.92969 760.073 9.78906 760.073 10.8789V11.1953C760.073 12.8555 759.744 14.0684 759.088 14.834C758.432 15.5957 757.442 15.9863 756.117 16.0059H755.906V15.0918H756.135C757.03 15.0762 757.717 14.8438 758.198 14.3945C758.678 13.9414 758.94 13.2266 758.983 12.25ZM757.313 12.25C757.676 12.25 758.01 12.1387 758.315 11.916C758.623 11.6934 758.848 11.418 758.989 11.0898V10.6562C758.989 9.94531 758.834 9.36719 758.526 8.92188C758.217 8.47656 757.826 8.25391 757.354 8.25391C756.877 8.25391 756.494 8.4375 756.205 8.80469C755.916 9.16797 755.772 9.64844 755.772 10.2461C755.772 10.8281 755.91 11.3086 756.188 11.6875C756.469 12.0625 756.844 12.25 757.313 12.25ZM766.916 12.3613C766.916 13.6309 766.699 14.5742 766.266 15.1914C765.832 15.8086 765.155 16.1172 764.233 16.1172C763.323 16.1172 762.649 15.8164 762.211 15.2148C761.774 14.6094 761.547 13.707 761.531 12.5078V11.0605C761.531 9.80664 761.748 8.875 762.182 8.26562C762.615 7.65625 763.295 7.35156 764.221 7.35156C765.139 7.35156 765.815 7.64648 766.248 8.23633C766.682 8.82227 766.905 9.72852 766.916 10.9551V12.3613ZM765.832 10.8789C765.832 9.96094 765.703 9.29297 765.446 8.875C765.188 8.45312 764.78 8.24219 764.221 8.24219C763.666 8.24219 763.262 8.45117 763.008 8.86914C762.754 9.28711 762.623 9.92969 762.615 10.7969V12.5312C762.615 13.4531 762.748 14.1348 763.014 14.5762C763.283 15.0137 763.69 15.2324 764.233 15.2324C764.768 15.2324 765.164 15.0254 765.422 14.6113C765.684 14.1973 765.821 13.5449 765.832 12.6543V10.8789Z" fill="#262626"/>
<rect x="839.616" y="76" width="15.1141" height="100" fill="#69C0FF"/>
<path d="M840.448 67H839.358V59.7754L837.172 60.5781V59.5938L840.278 58.4277H840.448V67ZM845.199 62.207H846.014C846.526 62.1992 846.928 62.0645 847.221 61.8027C847.514 61.541 847.66 61.1875 847.66 60.7422C847.66 59.7422 847.162 59.2422 846.166 59.2422C845.698 59.2422 845.323 59.377 845.041 59.6465C844.764 59.9121 844.625 60.2656 844.625 60.707H843.541C843.541 60.0312 843.787 59.4707 844.28 59.0254C844.776 58.5762 845.405 58.3516 846.166 58.3516C846.971 58.3516 847.602 58.5645 848.059 58.9902C848.516 59.416 848.744 60.0078 848.744 60.7656C848.744 61.1367 848.623 61.4961 848.381 61.8438C848.143 62.1914 847.817 62.4512 847.403 62.623C847.871 62.7715 848.233 63.0176 848.487 63.3613C848.744 63.7051 848.873 64.125 848.873 64.6211C848.873 65.3867 848.623 65.9941 848.123 66.4434C847.623 66.8926 846.973 67.1172 846.172 67.1172C845.371 67.1172 844.719 66.9004 844.215 66.4668C843.715 66.0332 843.465 65.4609 843.465 64.75H844.555C844.555 65.1992 844.701 65.5586 844.994 65.8281C845.287 66.0977 845.68 66.2324 846.172 66.2324C846.696 66.2324 847.096 66.0957 847.373 65.8223C847.651 65.5488 847.789 65.1562 847.789 64.6445C847.789 64.1484 847.637 63.7676 847.332 63.502C847.028 63.2363 846.588 63.0996 846.014 63.0918H845.199V62.207ZM855.711 63.3613C855.711 64.6309 855.494 65.5742 855.061 66.1914C854.627 66.8086 853.949 67.1172 853.028 67.1172C852.117 67.1172 851.444 66.8164 851.006 66.2148C850.569 65.6094 850.342 64.707 850.326 63.5078V62.0605C850.326 60.8066 850.543 59.875 850.977 59.2656C851.41 58.6562 852.09 58.3516 853.016 58.3516C853.934 58.3516 854.61 58.6465 855.043 59.2363C855.477 59.8223 855.699 60.7285 855.711 61.9551V63.3613ZM854.627 61.8789C854.627 60.9609 854.498 60.293 854.24 59.875C853.983 59.4531 853.574 59.2422 853.016 59.2422C852.461 59.2422 852.057 59.4512 851.803 59.8691C851.549 60.2871 851.418 60.9297 851.41 61.7969V63.5312C851.41 64.4531 851.543 65.1348 851.809 65.5762C852.078 66.0137 852.485 66.2324 853.028 66.2324C853.563 66.2324 853.959 66.0254 854.217 65.6113C854.479 65.1973 854.615 64.5449 854.627 63.6543V61.8789Z" fill="#262626"/>
<rect x="933.135" y="63" width="15.1141" height="113" fill="#69C0FF"/>
<path d="M933.967 53H932.877V45.7754L930.691 46.5781V45.5938L933.797 44.4277H933.967V53ZM941.719 50.1348H942.902V51.0195H941.719V53H940.629V51.0195H936.744V50.3809L940.564 44.4688H941.719V50.1348ZM937.975 50.1348H940.629V45.9512L940.5 46.1855L937.975 50.1348ZM944.379 48.7227L944.812 44.4688H949.184V45.4707H945.732L945.475 47.7969C945.893 47.5508 946.367 47.4277 946.898 47.4277C947.676 47.4277 948.293 47.6855 948.75 48.2012C949.207 48.7129 949.436 49.4062 949.436 50.2812C949.436 51.1602 949.197 51.8535 948.721 52.3613C948.248 52.8652 947.586 53.1172 946.734 53.1172C945.98 53.1172 945.365 52.9082 944.889 52.4902C944.412 52.0723 944.141 51.4941 944.074 50.7559H945.1C945.166 51.2441 945.34 51.6133 945.621 51.8633C945.902 52.1094 946.273 52.2324 946.734 52.2324C947.238 52.2324 947.633 52.0605 947.918 51.7168C948.207 51.373 948.352 50.8984 948.352 50.293C948.352 49.7227 948.195 49.2656 947.883 48.9219C947.574 48.5742 947.162 48.4004 946.646 48.4004C946.174 48.4004 945.803 48.5039 945.533 48.7109L945.246 48.9453L944.379 48.7227Z" fill="#262626"/>
<rect x="1018.15" y="18" width="15.1141" height="158" fill="#1890FF"/>
<path d="M1018.98 12H1017.89V4.77539L1015.71 5.57812V4.59375L1018.81 3.42773H1018.98V12ZM1026.31 8.25C1026.09 8.51953 1025.81 8.73633 1025.5 8.90039C1025.19 9.06445 1024.84 9.14648 1024.47 9.14648C1023.98 9.14648 1023.55 9.02539 1023.18 8.7832C1022.81 8.54102 1022.53 8.20117 1022.33 7.76367C1022.14 7.32227 1022.04 6.83594 1022.04 6.30469C1022.04 5.73438 1022.14 5.2207 1022.36 4.76367C1022.58 4.30664 1022.89 3.95703 1023.28 3.71484C1023.68 3.47266 1024.15 3.35156 1024.68 3.35156C1025.52 3.35156 1026.19 3.66797 1026.67 4.30078C1027.16 4.92969 1027.4 5.78906 1027.4 6.87891V7.19531C1027.4 8.85547 1027.07 10.0684 1026.42 10.834C1025.76 11.5957 1024.77 11.9863 1023.45 12.0059H1023.24V11.0918H1023.47C1024.36 11.0762 1025.05 10.8438 1025.53 10.3945C1026.01 9.94141 1026.27 9.22656 1026.31 8.25ZM1024.64 8.25C1025.01 8.25 1025.34 8.13867 1025.65 7.91602C1025.95 7.69336 1026.18 7.41797 1026.32 7.08984V6.65625C1026.32 5.94531 1026.16 5.36719 1025.86 4.92188C1025.55 4.47656 1025.16 4.25391 1024.68 4.25391C1024.21 4.25391 1023.82 4.4375 1023.54 4.80469C1023.25 5.16797 1023.1 5.64844 1023.1 6.24609C1023.1 6.82812 1023.24 7.30859 1023.52 7.6875C1023.8 8.0625 1024.17 8.25 1024.64 8.25ZM1029.4 7.72266L1029.83 3.46875H1034.2V4.4707H1030.75L1030.49 6.79688C1030.91 6.55078 1031.38 6.42773 1031.91 6.42773C1032.69 6.42773 1033.31 6.68555 1033.77 7.20117C1034.22 7.71289 1034.45 8.40625 1034.45 9.28125C1034.45 10.1602 1034.21 10.8535 1033.74 11.3613C1033.26 11.8652 1032.6 12.1172 1031.75 12.1172C1031 12.1172 1030.38 11.9082 1029.9 11.4902C1029.43 11.0723 1029.16 10.4941 1029.09 9.75586H1030.12C1030.18 10.2441 1030.36 10.6133 1030.64 10.8633C1030.92 11.1094 1031.29 11.2324 1031.75 11.2324C1032.25 11.2324 1032.65 11.0605 1032.93 10.7168C1033.22 10.373 1033.37 9.89844 1033.37 9.29297C1033.37 8.72266 1033.21 8.26562 1032.9 7.92188C1032.59 7.57422 1032.18 7.40039 1031.66 7.40039C1031.19 7.40039 1030.82 7.50391 1030.55 7.71094L1030.26 7.94531L1029.4 7.72266Z" fill="#262626"/>
</svg>
