<svg width="12" height="12" viewBox="0 0 12 12" fill="none" xmlns="http://www.w3.org/2000/svg">
<path d="M6.96856 8.39668C6.94506 8.37342 6.91334 8.36037 6.88027 8.36037C6.84721 8.36037 6.81549 8.37342 6.79199 8.39668L4.97637 10.2123C4.13574 11.0529 2.71699 11.142 1.78887 10.2123C0.85918 9.28262 0.948242 7.86543 1.78887 7.02481L3.60449 5.20918C3.65293 5.16074 3.65293 5.08106 3.60449 5.03262L2.98262 4.41074C2.95912 4.38748 2.9274 4.37443 2.89434 4.37443C2.86127 4.37443 2.82955 4.38748 2.80606 4.41074L0.99043 6.22637C-0.331445 7.54824 -0.331445 9.68731 0.99043 11.0076C2.3123 12.3279 4.45137 12.3295 5.77168 11.0076L7.58731 9.19199C7.63574 9.14356 7.63574 9.06387 7.58731 9.01543L6.96856 8.39668ZM11.0092 0.99043C9.68731 -0.331445 7.54824 -0.331445 6.22793 0.99043L4.41074 2.80606C4.38748 2.82955 4.37443 2.86127 4.37443 2.89434C4.37443 2.9274 4.38748 2.95912 4.41074 2.98262L5.03106 3.60293C5.07949 3.65137 5.15918 3.65137 5.20762 3.60293L7.02324 1.7873C7.86387 0.94668 9.28262 0.857617 10.2107 1.7873C11.1404 2.71699 11.0514 4.13418 10.2107 4.97481L8.39512 6.79043C8.37185 6.81392 8.35881 6.84565 8.35881 6.87871C8.35881 6.91177 8.37185 6.9435 8.39512 6.96699L9.01699 7.58887C9.06543 7.63731 9.14512 7.63731 9.19356 7.58887L11.0092 5.77324C12.3295 4.45137 12.3295 2.3123 11.0092 0.99043ZM7.53262 3.81699C7.50912 3.79373 7.4774 3.78068 7.44434 3.78068C7.41128 3.78068 7.37955 3.79373 7.35606 3.81699L3.81699 7.35449C3.79373 7.37799 3.78068 7.40971 3.78068 7.44277C3.78068 7.47584 3.79373 7.50756 3.81699 7.53106L4.43574 8.14981C4.48418 8.19824 4.56387 8.19824 4.61231 8.14981L8.14981 4.61231C8.19824 4.56387 8.19824 4.48418 8.14981 4.43574L7.53262 3.81699Z" fill="#064D69"/>
</svg>
