<svg width="12" height="17" viewBox="0 0 12 17" fill="none" xmlns="http://www.w3.org/2000/svg">
<path fill-rule="evenodd" clip-rule="evenodd" d="M5.85453 2.28742C3.84811 2.28742 1.7818 3.95402 1.7818 6.86604C1.7818 7.5102 2.02197 8.3299 2.44392 9.24602C2.85933 10.1479 3.41988 11.0778 3.99086 11.9243C4.5603 12.7685 5.13115 13.5167 5.56032 14.0545C5.66831 14.1898 5.76715 14.3115 5.85453 14.4179C5.9419 14.3115 6.04074 14.1898 6.14873 14.0545C6.5779 13.5167 7.14876 12.7685 7.7182 11.9243C8.28917 11.0778 8.84972 10.1479 9.26514 9.24602C9.68709 8.3299 9.92725 7.5102 9.92725 6.86604C9.92725 3.95402 7.86094 2.28742 5.85453 2.28742ZM5.85453 15.3692C5.44057 15.8288 5.4404 15.8286 5.4404 15.8286L5.43622 15.8238L5.42524 15.8112C5.41576 15.8004 5.402 15.7845 5.38424 15.7639C5.34873 15.7226 5.29723 15.6624 5.23202 15.585C5.10164 15.4301 4.91626 15.2063 4.69419 14.9281C4.25063 14.3723 3.65785 13.5956 3.06365 12.7147C2.47099 11.8361 1.86791 10.8404 1.41059 9.84754C0.959815 8.86884 0.618164 7.8244 0.618164 6.86604C0.618164 3.10636 3.32276 0.979248 5.85453 0.979248C8.3863 0.979248 11.0909 3.10636 11.0909 6.86604C11.0909 7.8244 10.7492 8.86884 10.2985 9.84754C9.84115 10.8404 9.23806 11.8361 8.6454 12.7147C8.05121 13.5956 7.45843 14.3723 7.01487 14.9281C6.79279 15.2063 6.60742 15.4301 6.47703 15.585C6.41182 15.6624 6.36032 15.7226 6.32481 15.7639C6.30706 15.7845 6.2933 15.8004 6.28381 15.8112L6.27283 15.8238L6.26894 15.8283C6.26894 15.8283 6.26848 15.8288 5.85453 15.3692ZM5.85453 15.3692L6.26848 15.8288L5.85453 16.3L5.4404 15.8286L5.85453 15.3692Z" fill="#064D69"/>
<path fill-rule="evenodd" clip-rule="evenodd" d="M5.85453 5.55786C5.21187 5.55786 4.69089 6.14355 4.69089 6.86604C4.69089 7.58852 5.21187 8.17421 5.85453 8.17421C6.49719 8.17421 7.01816 7.58852 7.01816 6.86604C7.01816 6.14355 6.49719 5.55786 5.85453 5.55786ZM3.52725 6.86604C3.52725 5.42107 4.56921 4.24969 5.85453 4.24969C7.13984 4.24969 8.1818 5.42107 8.1818 6.86604C8.1818 8.31101 7.13984 9.48239 5.85453 9.48239C4.56921 9.48239 3.52725 8.31101 3.52725 6.86604Z" fill="#064D69"/>
</svg>
