<svg width="16" height="18" viewBox="0 0 16 18" fill="none" xmlns="http://www.w3.org/2000/svg">
<path fill-rule="evenodd" clip-rule="evenodd" d="M4.14305 2.29389C5.16598 1.25189 6.55336 0.666504 8 0.666504C9.44664 0.666504 10.834 1.25189 11.8569 2.29389C12.8799 3.33589 13.4545 4.74915 13.4545 6.22276V8.30635C13.4545 9.19898 13.8344 9.74977 14.3067 10.2951C14.3613 10.3581 14.4214 10.4254 14.4841 10.4958C14.6741 10.7088 14.8889 10.9497 15.0534 11.1843C15.29 11.5218 15.5 11.9444 15.5 12.4735C15.5 13.0627 15.1632 13.5209 14.7581 13.844C14.3528 14.1673 13.8033 14.4221 13.1703 14.6216C11.8971 15.0228 10.1183 15.2517 8 15.2517C5.88165 15.2517 4.10289 15.0228 2.82975 14.6216C2.19665 14.4221 1.6472 14.1673 1.24193 13.844C0.836788 13.5209 0.5 13.0627 0.5 12.4735C0.5 11.9444 0.709964 11.5218 0.946602 11.1843C1.11111 10.9497 1.32593 10.7088 1.51589 10.4958C1.57864 10.4254 1.63868 10.3581 1.69329 10.2951C2.16562 9.74977 2.54545 9.19898 2.54545 8.30635V6.22276C2.54545 4.74915 3.12013 3.33589 4.14305 2.29389ZM8 2.05557C6.91502 2.05557 5.87448 2.49461 5.10729 3.27611C4.3401 4.05761 3.90909 5.11755 3.90909 6.22276V8.30635C3.90909 9.70568 3.2662 10.5787 2.7158 11.2141C2.62724 11.3163 2.5468 11.4066 2.4731 11.4892C2.3043 11.6786 2.17087 11.8282 2.05624 11.9917C1.90935 12.2012 1.86364 12.3428 1.86364 12.4735C1.86357 12.4767 1.86156 12.574 2.08264 12.7504C2.30592 12.9285 2.68119 13.1208 3.23275 13.2946C4.32893 13.64 5.95926 13.8626 8 13.8626C10.0407 13.8626 11.6711 13.64 12.7673 13.2946C13.3188 13.1208 13.6941 12.9285 13.9174 12.7504C14.1384 12.574 14.1364 12.4768 14.1364 12.4736C14.1364 12.3429 14.0906 12.2012 13.9438 11.9917C13.8291 11.8282 13.6957 11.6786 13.5269 11.4892C13.4532 11.4066 13.3728 11.3163 13.2842 11.2141C12.7338 10.5787 12.0909 9.70568 12.0909 8.30635V6.22276C12.0909 5.11755 11.6599 4.05761 10.8927 3.27611C10.1255 2.49461 9.08498 2.05557 8 2.05557Z" fill="#595959"/>
<path d="M8 15.9462C7.31068 15.9462 6.66295 15.9226 6.05341 15.8767C6.18336 16.299 6.44225 16.668 6.79237 16.9299C7.1425 17.1919 7.56558 17.3332 8 17.3332C8.43442 17.3332 8.8575 17.1919 9.20763 16.9299C9.55775 16.668 9.81664 16.299 9.94659 15.8767C9.33705 15.9226 8.68932 15.9462 8 15.9462Z" fill="#595959"/>
</svg>
