<svg width="13" height="14" viewBox="0 0 13 14" fill="none" xmlns="http://www.w3.org/2000/svg">
<path d="M12.7047 2.27031L11.8234 2.95937C10.6219 1.42344 8.75313 0.4375 6.65469 0.4375C3.03126 0.4375 0.0984431 3.36719 0.0937556 6.99219C0.0890681 10.6203 3.02813 13.5625 6.65469 13.5625C9.48751 13.5625 11.9016 11.7656 12.8203 9.24844C12.8438 9.18281 12.8094 9.10938 12.7438 9.0875L11.8578 8.78281C11.8269 8.77222 11.7931 8.77414 11.7636 8.78816C11.7341 8.80218 11.7113 8.82718 11.7 8.85781C11.6719 8.93594 11.6406 9.01406 11.6078 9.09062C11.3375 9.73125 10.95 10.3063 10.4563 10.8C9.96649 11.2907 9.38661 11.6822 8.74844 11.9531C8.08751 12.2328 7.38282 12.375 6.65782 12.375C5.93126 12.375 5.22813 12.2328 4.56719 11.9531C3.9284 11.6834 3.34832 11.2917 2.85938 10.8C2.36829 10.3103 1.97717 9.72972 1.70782 9.09062C1.42813 8.42812 1.28594 7.725 1.28594 6.99844C1.28594 6.27187 1.42813 5.56875 1.70782 4.90625C1.97813 4.26562 2.36563 3.69063 2.85938 3.19688C3.35313 2.70312 3.92813 2.31563 4.56719 2.04375C5.22813 1.76406 5.93282 1.62188 6.65782 1.62188C7.38438 1.62188 8.08751 1.76406 8.74844 2.04375C9.38723 2.31351 9.96732 2.70519 10.4563 3.19688C10.6109 3.35156 10.7563 3.51562 10.8906 3.6875L9.95001 4.42188C9.93139 4.43627 9.91722 4.45563 9.90913 4.47772C9.90103 4.49981 9.89933 4.52374 9.90423 4.54676C9.90912 4.56977 9.92042 4.59094 9.93681 4.60782C9.9532 4.6247 9.97402 4.63661 9.99688 4.64219L12.7406 5.31406C12.8188 5.33281 12.8953 5.27344 12.8953 5.19375L12.9078 2.36719C12.9063 2.26406 12.7859 2.20625 12.7047 2.27031Z" fill="#8C8C8C"/>
</svg>
