<svg width="14" height="14" viewBox="0 0 14 14" fill="none" xmlns="http://www.w3.org/2000/svg">
<path fill-rule="evenodd" clip-rule="evenodd" d="M10.049 9.36023L13.5853 12.8965L12.6616 13.8202L9.12537 10.2839L10.049 9.36023Z" fill="white"/>
<path fill-rule="evenodd" clip-rule="evenodd" d="M6.13021 1.7931C3.60518 1.7931 1.55823 3.84004 1.55823 6.36507C1.55823 8.89011 3.60518 10.9371 6.13021 10.9371C8.65524 10.9371 10.7022 8.89011 10.7022 6.36507C10.7022 3.84004 8.65524 1.7931 6.13021 1.7931ZM0.251953 6.36507C0.251953 3.1186 2.88374 0.486816 6.13021 0.486816C9.37668 0.486816 12.0085 3.1186 12.0085 6.36507C12.0085 9.61155 9.37668 12.2433 6.13021 12.2433C2.88374 12.2433 0.251953 9.61155 0.251953 6.36507Z" fill="white"/>
</svg>
