<svg width="18" height="18" viewBox="0 0 18 18" fill="none" xmlns="http://www.w3.org/2000/svg">
<path d="M17.0625 11.2212L15.7832 10.1274C15.8438 9.75635 15.875 9.37744 15.875 8.99854C15.875 8.61963 15.8438 8.24072 15.7832 7.86963L17.0625 6.77588C17.159 6.69327 17.2281 6.58325 17.2605 6.46045C17.2929 6.33764 17.2872 6.20786 17.2441 6.08838L17.2266 6.0376C16.8744 5.05327 16.347 4.14079 15.6699 3.34424L15.6348 3.30322C15.5526 3.20664 15.4432 3.13722 15.3208 3.1041C15.1984 3.07097 15.0689 3.07571 14.9492 3.11768L13.3613 3.68213C12.7754 3.20166 12.1211 2.82275 11.4141 2.55713L11.1074 0.896973C11.0843 0.772055 11.0237 0.657134 10.9337 0.567476C10.8437 0.477819 10.7285 0.417669 10.6035 0.39502L10.5508 0.385254C9.53321 0.20166 8.46289 0.20166 7.44532 0.385254L7.39258 0.39502C7.26758 0.417669 7.15242 0.477819 7.06241 0.567476C6.97241 0.657134 6.91181 0.772055 6.88868 0.896973L6.58008 2.56494C5.87869 2.83062 5.22552 3.20933 4.64649 3.68603L3.04688 3.11768C2.92728 3.07538 2.79764 3.07047 2.67519 3.10361C2.55274 3.13675 2.44327 3.20638 2.36133 3.30322L2.32618 3.34424C1.6499 4.14136 1.12261 5.05369 0.769535 6.0376L0.751957 6.08838C0.664066 6.33252 0.736332 6.60596 0.933598 6.77588L2.22852 7.88135C2.16797 8.24854 2.13868 8.62354 2.13868 8.99658C2.13868 9.37158 2.16797 9.74658 2.22852 10.1118L0.933598 11.2173C0.837105 11.2999 0.768044 11.4099 0.735598 11.5327C0.703151 11.6555 0.708857 11.7853 0.751957 11.9048L0.769535 11.9556C1.12305 12.9399 1.64649 13.8481 2.32618 14.6489L2.36133 14.6899C2.44347 14.7865 2.55294 14.8559 2.67532 14.8891C2.7977 14.9222 2.92724 14.9175 3.04688 14.8755L4.64649 14.3071C5.22852 14.7856 5.87891 15.1646 6.58008 15.4282L6.88868 17.0962C6.91181 17.2211 6.97241 17.336 7.06241 17.4257C7.15242 17.5153 7.26758 17.5755 7.39258 17.5981L7.44532 17.6079C8.47224 17.7925 9.52386 17.7925 10.5508 17.6079L10.6035 17.5981C10.7285 17.5755 10.8437 17.5153 10.9337 17.4257C11.0237 17.336 11.0843 17.2211 11.1074 17.0962L11.4141 15.436C12.1208 15.1711 12.7788 14.791 13.3613 14.311L14.9492 14.8755C15.0688 14.9178 15.1985 14.9227 15.3209 14.8896C15.4434 14.8564 15.5528 14.7868 15.6348 14.6899L15.6699 14.6489C16.3496 13.8462 16.873 12.9399 17.2266 11.9556L17.2441 11.9048C17.332 11.6646 17.2598 11.3911 17.0625 11.2212ZM14.3965 8.1001C14.4453 8.39502 14.4707 8.69775 14.4707 9.00049C14.4707 9.30322 14.4453 9.60596 14.3965 9.90088L14.2676 10.6841L15.7266 11.9321C15.5054 12.4417 15.2262 12.924 14.8945 13.3696L13.082 12.7271L12.4688 13.231C12.002 13.6138 11.4824 13.9146 10.9199 14.1255L10.1758 14.4048L9.82617 16.2993C9.27455 16.3618 8.71764 16.3618 8.16602 16.2993L7.81641 14.4009L7.07813 14.1177C6.52149 13.9067 6.00391 13.606 5.54102 13.2251L4.92774 12.7192L3.10352 13.3677C2.77149 12.9204 2.49414 12.438 2.27149 11.9302L3.7461 10.6704L3.61914 9.88916C3.57227 9.59814 3.54688 9.29736 3.54688 9.00049C3.54688 8.70166 3.57032 8.40283 3.61914 8.11182L3.7461 7.33057L2.27149 6.0708C2.49219 5.56104 2.77149 5.08057 3.10352 4.6333L4.92774 5.28174L5.54102 4.77588C6.00391 4.39502 6.52149 4.09424 7.07813 3.8833L7.81836 3.604L8.16797 1.70557C8.7168 1.64307 9.27735 1.64307 9.82813 1.70557L10.1777 3.6001L10.9219 3.87939C11.4824 4.09033 12.0039 4.39111 12.4707 4.77393L13.084 5.27783L14.8965 4.63525C15.2285 5.08252 15.5059 5.56494 15.7285 6.07275L14.2695 7.3208L14.3965 8.1001ZM9 5.36768C7.10157 5.36768 5.5625 6.90674 5.5625 8.80518C5.5625 10.7036 7.10157 12.2427 9 12.2427C10.8984 12.2427 12.4375 10.7036 12.4375 8.80518C12.4375 6.90674 10.8984 5.36768 9 5.36768ZM10.5469 10.3521C10.344 10.5555 10.1029 10.7169 9.8374 10.8268C9.57193 10.9368 9.28734 10.9931 9 10.9927C8.41602 10.9927 7.86719 10.7642 7.45313 10.3521C7.24966 10.1492 7.08831 9.90805 6.97837 9.64258C6.86842 9.3771 6.81206 9.09251 6.8125 8.80518C6.8125 8.22119 7.04102 7.67236 7.45313 7.2583C7.86719 6.84424 8.41602 6.61768 9 6.61768C9.58399 6.61768 10.1328 6.84424 10.5469 7.2583C10.7503 7.46119 10.9117 7.7023 11.0216 7.96778C11.1316 8.23325 11.188 8.51784 11.1875 8.80518C11.1875 9.38916 10.959 9.93799 10.5469 10.3521Z" fill="#595959"/>
</svg>
